<svg width="16" height="17" viewBox="0 0 16 17" fill="none" xmlns="http://www.w3.org/2000/svg">
<g clip-path="url(#clip0_37_1764)">
<path d="M7.99999 4.83333C10.5267 4.83333 12.78 6.25333 13.88 8.5C12.78 10.7467 10.5333 12.1667 7.99999 12.1667C5.46666 12.1667 3.21999 10.7467 2.11999 8.5C3.21999 6.25333 5.47332 4.83333 7.99999 4.83333ZM7.99999 3.5C4.66666 3.5 1.81999 5.57333 0.666656 8.5C1.81999 11.4267 4.66666 13.5 7.99999 13.5C11.3333 13.5 14.18 11.4267 15.3333 8.5C14.18 5.57333 11.3333 3.5 7.99999 3.5ZM7.99999 6.83333C8.91999 6.83333 9.66666 7.58 9.66666 8.5C9.66666 9.42 8.91999 10.1667 7.99999 10.1667C7.07999 10.1667 6.33332 9.42 6.33332 8.5C6.33332 7.58 7.07999 6.83333 7.99999 6.83333ZM7.99999 5.5C6.34666 5.5 4.99999 6.84667 4.99999 8.5C4.99999 10.1533 6.34666 11.5 7.99999 11.5C9.65332 11.5 11 10.1533 11 8.5C11 6.84667 9.65332 5.5 7.99999 5.5Z" fill="#A3AED0"/>
</g>
<defs>
<clipPath id="clip0_37_1764">
<rect width="16" height="16" fill="white" transform="translate(0 0.5)"/>
</clipPath>
</defs>
</svg>
