<svg xmlns="http://www.w3.org/2000/svg" xmlns:xlink="http://www.w3.org/1999/xlink" version="1.1" x="0px" y="0px" viewBox="0 0 500 500" style="enable-background:new 0 0 500 500;" xml:space="preserve">
<g id="Background_Complete">
	<g>
		<g>
			<path style="fill:#e0e0e0;" d="M271.757,282.357v-26.042c0-1.269,1.323-2.067,2.393-1.444l22.537,13.121     c1.093,0.637,1.088,2.264-0.009,2.893l-22.537,12.921C273.072,284.419,271.757,283.62,271.757,282.357z"/>
		</g>
		<g>
			<path style="fill:#e0e0e0;" d="M313.616,282.851v-26.042c0-1.269,1.367-2.067,2.471-1.444l23.275,13.121     c1.129,0.637,1.124,2.264-0.01,2.893L316.078,284.3C314.973,284.913,313.616,284.114,313.616,282.851z"/>
		</g>
		<g>
			<path style="fill:#e0e0e0;" d="M328.246,282.851v-26.042c0-1.269,1.167-2.067,2.111-1.444l19.878,13.121     c0.964,0.637,0.96,2.264-0.008,2.893L330.349,284.3C329.405,284.913,328.246,284.114,328.246,282.851z"/>
		</g>
		<g>
			<path style="fill:#e0e0e0;" d="M219.284,256.809v26.042c0,1.269-1.367,2.067-2.471,1.444l-23.275-13.121     c-1.129-0.637-1.124-2.264,0.009-2.893l23.275-12.921C217.926,254.746,219.284,255.545,219.284,256.809z"/>
		</g>
		<g>
			<path style="fill:#e0e0e0;" d="M204.654,256.809v26.042c0,1.269-1.167,2.067-2.111,1.444l-19.878-13.121     c-0.964-0.637-0.96-2.264,0.008-2.893l19.878-12.921C203.494,254.746,204.654,255.545,204.654,256.809z"/>
		</g>
		<g>
			<path style="fill:#e0e0e0;" d="M239.856,284.223h-1.668c-1.571,0-2.844-1.273-2.844-2.844v-24.086     c0-1.571,1.273-2.844,2.844-2.844h1.668c1.571,0,2.844,1.273,2.844,2.844v24.086     C242.701,282.949,241.427,284.223,239.856,284.223z"/>
			<path style="fill:#e0e0e0;" d="M252.853,284.223h-1.668c-1.571,0-2.844-1.273-2.844-2.844v-24.086     c0-1.571,1.273-2.844,2.844-2.844h1.668c1.571,0,2.844,1.273,2.844,2.844v24.086     C255.697,282.949,254.424,284.223,252.853,284.223z"/>
		</g>
	</g>
	<g>
		<g>
			<rect x="382.252" y="32.934" style="fill:#e0e0e0;" width="92.888" height="153.757"/>
		</g>
		<g>
			<rect x="379.162" y="32.934" style="fill:#ebebeb;" width="92.888" height="153.757"/>
		</g>
		<g>
			<rect x="383.118" y="36.052" style="fill:#ffffff;" width="84.977" height="147.52"/>
		</g>
		<g>
			<g>
				<rect x="399.296" y="55.221" style="fill:#ebebeb;" width="52.254" height="109.182"/>
			</g>
			<g>
				<path style="fill:#e0e0e0;" d="M399.296,125.767c-0.121-10.199,9.049-20.156,19.149-21.58c4.816-0.679,9.933,0.277,14.433-1.568      c8.032-3.294,10.588-13.966,18.672-17.131l0.369,78.915h-52.623V125.767z"/>
			</g>
		</g>
	</g>
	<g>
		<g>
			<g>
				<g>
					<g>
						<g>
							<g>
								<g>
									<g>
										<rect x="47.868" y="32.991" style="fill:#e0e0e0;" width="85.936" height="89.581"/>
									</g>
								</g>
							</g>
						</g>
					</g>
				</g>
			</g>
		</g>
		<g>
			<g>
				<g>
					<g>
						<g>
							<g>
								<g>
									<g>
										<rect x="42.049" y="32.991" style="fill:#FAFAFA;" width="85.936" height="89.581"/>
									</g>
								</g>
							</g>
						</g>
					</g>
				</g>
			</g>
			<g>
				<g>
					<g>
						<g>
							<g>
								<g>
									<g>
										<path style="fill:#e0e0e0;" d="M128.011,122.598H42.022V32.964h85.989V122.598z M42.075,122.545h85.882V33.017H42.075            V122.545z"/>
									</g>
								</g>
							</g>
						</g>
					</g>
				</g>
			</g>
		</g>
		<g>
			<g>
				<g>
					<g>
						<g>
							<g>
								<g>
									<g>
										<rect x="53.6" y="45.033" style="fill:#ffffff;" width="62.832" height="65.496"/>
									</g>
								</g>
							</g>
						</g>
					</g>
				</g>
			</g>
		</g>
		<g>
			<g>
				<g>
					<g>
						<g>
							<g>
								<g>
									<g>
										<g>
											<path style="fill:#e0e0e0;" d="M53.6,110.965c0.05,0.059-0.547,0.744-1.55,1.803c-1.003,1.059-2.413,2.492-3.994,4.049             c-1.581,1.557-3.034,2.944-4.105,3.929c-1.072,0.985-1.762,1.567-1.816,1.513c-0.054-0.055,0.539-0.736,1.542-1.795             c1.003-1.059,2.417-2.495,4.003-4.057c1.585-1.561,3.041-2.952,4.112-3.936C52.864,111.485,53.551,110.906,53.6,110.965z             "/>
										</g>
									</g>
								</g>
							</g>
						</g>
					</g>
				</g>
			</g>
		</g>
		<g>
			<g>
				<g>
					<g>
						<g>
							<g>
								<g>
									<g>
										<g>
											<path style="fill:#e0e0e0;" d="M116.432,110.804c0.059-0.049,0.744,0.547,1.803,1.55             c1.059,1.004,2.492,2.414,4.049,3.994c1.557,1.581,2.944,3.034,3.929,4.105c0.984,1.072,1.567,1.762,1.513,1.816             c-0.055,0.054-0.736-0.539-1.795-1.542c-1.059-1.004-2.495-2.418-4.057-4.003c-1.561-1.585-2.951-3.041-3.936-4.112             C116.952,111.54,116.373,110.854,116.432,110.804z"/>
										</g>
									</g>
								</g>
							</g>
						</g>
					</g>
				</g>
			</g>
		</g>
		<g>
			<g>
				<g>
					<g>
						<g>
							<g>
								<g>
									<g>
										<g>
											<path style="fill:#e0e0e0;" d="M116.26,45.208c-0.049-0.059,0.547-0.744,1.551-1.803             c1.003-1.059,2.413-2.492,3.994-4.049c1.581-1.558,3.034-2.944,4.105-3.929c1.071-0.984,1.761-1.567,1.816-1.512             c0.054,0.055-0.539,0.736-1.542,1.795c-1.004,1.059-2.417,2.495-4.003,4.057c-1.585,1.561-3.041,2.951-4.112,3.936             C116.997,44.688,116.31,45.267,116.26,45.208z"/>
										</g>
									</g>
								</g>
							</g>
						</g>
					</g>
				</g>
			</g>
		</g>
		<g>
			<g>
				<g>
					<g>
						<g>
							<g>
								<g>
									<g>
										<g>
											<path style="fill:#e0e0e0;" d="M53.429,45.368c-0.059,0.05-0.744-0.547-1.803-1.55c-1.059-1.003-2.492-2.414-4.049-3.994             c-1.557-1.581-2.945-3.033-3.929-4.105c-0.985-1.072-1.567-1.762-1.512-1.816c0.054-0.055,0.736,0.538,1.795,1.542             c1.059,1.003,2.495,2.417,4.057,4.003c1.562,1.585,2.952,3.041,3.936,4.113C52.908,44.632,53.487,45.319,53.429,45.368z"/>
										</g>
									</g>
								</g>
							</g>
						</g>
					</g>
				</g>
			</g>
		</g>
		<g>
			<g>
				<g>
					<g>
						<g>
							<g>
								<g>
									<g>
										<g>
											<path style="fill:#e0e0e0;" d="M116.26,110.529c-0.005-0.004-0.009-0.112-0.014-0.318             c-0.004-0.223-0.008-0.524-0.014-0.914c-0.007-0.821-0.016-2.002-0.028-3.536c-0.015-3.103-0.036-7.617-0.063-13.349             c-0.03-11.471-0.072-27.813-0.123-47.38l0.242,0.242c-18.291,0.011-39.772,0.023-62.653,0.036h-0.006l0.278-0.278             c-0.014,24.04-0.028,46.529-0.039,65.496l-0.239-0.238c18.776,0.05,34.409,0.093,45.37,0.122             c5.476,0.027,9.784,0.048,12.744,0.062c1.462,0.012,2.588,0.021,3.372,0.028c0.371,0.006,0.658,0.01,0.871,0.013             C116.154,110.521,116.256,110.525,116.26,110.529c0.005,0.004-0.089,0.009-0.277,0.014             c-0.207,0.003-0.486,0.007-0.846,0.013c-0.773,0.006-1.883,0.015-3.326,0.027c-2.948,0.015-7.237,0.036-12.69,0.062             c-10.997,0.029-26.683,0.072-45.522,0.122l-0.239,0.001l0-0.24c-0.011-18.967-0.025-41.456-0.039-65.496l0-0.278h0.278             h0.006c22.882,0.013,44.362,0.025,62.653,0.036h0.243l-0.001,0.242c-0.051,19.631-0.093,36.026-0.123,47.535             c-0.028,5.708-0.049,10.204-0.064,13.294c-0.012,1.513-0.022,2.678-0.028,3.489c-0.006,0.379-0.01,0.671-0.014,0.888             C116.269,110.436,116.265,110.534,116.26,110.529z"/>
										</g>
									</g>
								</g>
							</g>
						</g>
					</g>
				</g>
			</g>
		</g>
		<g>
			<g>
				<g>
					<g>
						<g>
							<g>
								<g>
									<g>
										<rect x="74.533" y="67.298" style="fill:#ebebeb;" width="20.966" height="20.966"/>
									</g>
								</g>
							</g>
						</g>
					</g>
				</g>
			</g>
		</g>
	</g>
	<g>
		<g>
			<g>
				<g>
					<g>
						<g>
							<g>
								<g>
									<rect x="185.845" y="337.168" style="fill:#F5F5F5;" width="171.824" height="79.243"/>
								</g>
							</g>
						</g>
					</g>
				</g>
				<g>
					<g>
						<g>
							<g>
								<g>
									<path style="fill:#e0e0e0;" d="M353.579,412.676H189.778v-71.339h163.801V412.676z M190.846,411.608H352.51v-69.201           H190.846V411.608z"/>
								</g>
							</g>
						</g>
					</g>
				</g>
				<g>
					<g>
						<g>
							<g>
								<g>
									<rect x="357.669" y="337.168" style="fill:#e0e0e0;" width="41.976" height="79.243"/>
								</g>
							</g>
						</g>
					</g>
				</g>
				<g>
					<g>
						<g>
							<g>
								<g>
									<g>
										<path style="fill:#e0e0e0;" d="M190.312,363.415c18.408,0,36.814,0,55.222,0c29.083,0,58.166,0,87.249,0            c6.754,0,13.508,0,20.262,0c0.278,0,0.278-0.431,0-0.431c-18.407,0-36.814,0-55.222,0c-29.083,0-58.166,0-87.248,0            c-6.754,0-13.508,0-20.262,0C190.035,362.984,190.034,363.415,190.312,363.415L190.312,363.415z"/>
									</g>
								</g>
							</g>
						</g>
					</g>
				</g>
				<g>
					<g>
						<g>
							<g>
								<g>
									<g>
										<path style="fill:#e0e0e0;" d="M272.21,363.199c0.488-7.034,0.435-14.484,0.055-21.525c-0.015-0.282-0.423-0.282-0.438,0            c-0.38,7.041-0.432,14.491,0.056,21.525C271.897,363.41,272.195,363.41,272.21,363.199L272.21,363.199z"/>
									</g>
								</g>
							</g>
						</g>
					</g>
				</g>
				<g>
					<g>
						<g>
							<g>
								<g>
									<path style="fill:#e0e0e0;" d="M316.012,352.437c0,1.224-0.993,2.217-2.217,2.217c-1.225,0-2.217-0.993-2.217-2.217           c0-1.224,0.992-2.217,2.217-2.217C315.019,350.22,316.012,351.213,316.012,352.437z"/>
								</g>
							</g>
						</g>
					</g>
				</g>
				<g>
					<g>
						<g>
							<g>
								<g>
									<path style="fill:#e0e0e0;" d="M230.609,352.437c0,1.224-0.993,2.217-2.217,2.217c-1.224,0-2.217-0.993-2.217-2.217           c0-1.224,0.993-2.217,2.217-2.217C229.617,350.22,230.609,351.213,230.609,352.437z"/>
								</g>
							</g>
						</g>
					</g>
				</g>
				<g>
					<g>
						<g>
							<g>
								<g>
									<path style="fill:#e0e0e0;" d="M273.895,377.007c0,1.225-0.992,2.217-2.217,2.217c-1.225,0-2.217-0.992-2.217-2.217           c0-1.224,0.992-2.217,2.217-2.217C272.903,374.79,273.895,375.783,273.895,377.007z"/>
								</g>
							</g>
						</g>
					</g>
				</g>
				<g>
					<g>
						<g>
							<g>
								<g>
									<polygon style="fill:#e0e0e0;" points="206.388,416.411 197.542,466.161 202.518,466.161 218.828,416.411          "/>
								</g>
							</g>
						</g>
					</g>
				</g>
				<g>
					<g>
						<g>
							<g>
								<g>
									<polygon style="fill:#e0e0e0;" points="345.512,416.411 352.91,466.248 347.934,466.248 333.072,416.411          "/>
								</g>
							</g>
						</g>
					</g>
				</g>
				<g>
					<g>
						<g>
							<g>
								<g>
									<polygon style="fill:#e0e0e0;" points="378.729,416.411 387.111,466.248 382.134,466.248 366.289,416.411          "/>
								</g>
							</g>
						</g>
					</g>
				</g>
				<g>
					<g>
						<g>
							<g>
								<g>
									<path style="fill:#e0e0e0;" d="M273.746,399.434c0,1.224-0.992,2.217-2.217,2.217c-1.224,0-2.217-0.992-2.217-2.217           s0.993-2.217,2.217-2.217C272.754,397.217,273.746,398.21,273.746,399.434z"/>
								</g>
							</g>
						</g>
					</g>
				</g>
				<g>
					<g>
						<g>
							<g>
								<g>
									<g>
										<path style="fill:#e0e0e0;" d="M190.312,387.954c18.408,0,36.814,0,55.222,0c29.083,0,58.166,0,87.249,0            c6.754,0,13.508,0,20.262,0c0.278,0,0.278-0.431,0-0.431c-18.407,0-36.814,0-55.222,0c-29.083,0-58.166,0-87.248,0            c-6.754,0-13.508,0-20.262,0C190.035,387.523,190.034,387.954,190.312,387.954L190.312,387.954z"/>
									</g>
								</g>
							</g>
						</g>
					</g>
				</g>
			</g>
		</g>
		<g>
			<g>
				<g>
					<g>
						<g>
							<g>
								<g>
									
										<rect x="274.519" y="279.147" transform="matrix(0.0053 1 -1 0.0053 583.4495 23.7104)" style="fill:#e0e0e0;" width="10.576" height="51.952"/>
								</g>
							</g>
						</g>
					</g>
				</g>
			</g>
			<g>
				<g>
					<g>
						<g>
							<g>
								<g>
									<g>
										
											<rect x="274.84" y="299.933" transform="matrix(0.0053 1 -1 0.0053 610.44 44.0926)" style="fill:#F5F5F5;" width="16.433" height="57.904"/>
									</g>
								</g>
							</g>
						</g>
					</g>
				</g>
				<g>
					<g>
						<g>
							<g>
								<g>
									<g>
										<path style="fill:#e0e0e0;" d="M300.896,336.833c-0.155,0-0.281-3.679-0.281-8.216c0-4.539,0.126-8.217,0.281-8.217            s0.281,3.678,0.281,8.217C301.177,333.154,301.052,336.833,300.896,336.833z"/>
									</g>
								</g>
							</g>
						</g>
					</g>
				</g>
				<g>
					<g>
						<g>
							<g>
								<g>
									<g>
										<path style="fill:#e0e0e0;" d="M303.329,336.833c-0.155,0-0.281-3.679-0.281-8.216c0-4.539,0.126-8.217,0.281-8.217            c0.155,0,0.281,3.678,0.281,8.217C303.61,333.154,303.484,336.833,303.329,336.833z"/>
									</g>
								</g>
							</g>
						</g>
					</g>
				</g>
				<g>
					<g>
						<g>
							<g>
								<g>
									<g>
										<path style="fill:#e0e0e0;" d="M262.861,336.833c-0.155,0-0.281-3.679-0.281-8.216c0-4.539,0.126-8.217,0.281-8.217            c0.155,0,0.281,3.678,0.281,8.217C263.142,333.154,263.016,336.833,262.861,336.833z"/>
									</g>
								</g>
							</g>
						</g>
					</g>
				</g>
				<g>
					<g>
						<g>
							<g>
								<g>
									<g>
										<path style="fill:#e0e0e0;" d="M265.293,336.833c-0.155,0-0.281-3.679-0.281-8.216c0-4.539,0.126-8.217,0.281-8.217            c0.155,0,0.281,3.678,0.281,8.217C265.574,333.154,265.448,336.833,265.293,336.833z"/>
									</g>
								</g>
							</g>
						</g>
					</g>
				</g>
				<g>
					<g>
						<g>
							<g>
								<g>
									<g>
										<path style="fill:#e0e0e0;" d="M270.6,328.882c0-0.157,5.842-0.285,13.046-0.285c7.207,0,13.048,0.127,13.048,0.285            c0,0.157-5.841,0.285-13.048,0.285C276.442,329.166,270.6,329.039,270.6,328.882z"/>
									</g>
								</g>
							</g>
						</g>
					</g>
				</g>
			</g>
			<g>
				<g>
					<g>
						<g>
							<g>
								<g>
									<g>
										
											<rect x="292.754" y="279.595" transform="matrix(0.0053 1 -1 0.0053 611.787 15.6198)" style="fill:#ebebeb;" width="10.576" height="71.452"/>
									</g>
								</g>
							</g>
						</g>
					</g>
				</g>
				<g>
					<g>
						<g>
							<g>
								<g>
									<path style="fill:#e0e0e0;" d="M323.566,319.109c-1.865,0-3.377-1.531-3.377-3.421c0-1.889,1.512-3.42,3.377-3.42           c1.865,0,3.377,1.531,3.377,3.42C326.942,317.577,325.431,319.109,323.566,319.109z"/>
								</g>
							</g>
						</g>
					</g>
				</g>
				<g>
					<g>
						<g>
							<g>
								<g>
									
										<rect x="289.307" y="291.774" transform="matrix(-1.836970 1 -1 -1.836970 606.0528 25.3242)" style="fill:#e0e0e0;" width="2.114" height="47.829"/>
								</g>
							</g>
						</g>
					</g>
				</g>
			</g>
		</g>
	</g>
	<g>
		<g>
			<g>
				<path style="fill:#e0e0e0;" d="M47.13,369.831c-4.439-2.787-9.524-4.537-14.738-5.072c-2.408-0.247-5.039-0.177-6.971,1.282      c-0.41,0.31-0.81,0.768-0.718,1.273c0.067,0.372,0.381,0.642,0.682,0.871C31.382,372.758,40.452,373.336,47.13,369.831"/>
			</g>
			<g>
				<path style="fill:#e0e0e0;" d="M46.752,369.414c-3.336-2.604-6.692-5.225-9.519-8.375c-2.826-3.15-5.124-6.89-5.968-11.037      c-0.256-1.258-0.335-2.695,0.472-3.693C39.324,352.235,45.285,359.899,46.752,369.414"/>
			</g>
			<g>
				<path style="fill:#e0e0e0;" d="M47.051,369.774c-0.571-4.151-0.777-8.417,0.176-12.497c0.953-4.08,3.173-7.985,6.657-10.313      c1.311,3.065,0.748,6.595-0.176,9.798c-1.427,4.949-3.667,9.664-6.601,13.897"/>
			</g>
			<g>
				<path style="fill:#e0e0e0;" d="M54.489,383.101c-4.515,0.549-8.448,2.929-11.819,5.982c-3.372,3.053-5.768,7.167-6.761,11.605      c4.429-0.274,8.186-3.397,10.911-6.899c2.725-3.502,4.613-7.344,7.606-10.62"/>
			</g>
			<g>
				<path style="fill:#e0e0e0;" d="M56.105,385.233c-3.637-8.958-2.319-19.753,3.366-27.573      C62.043,366.81,61.099,377.146,56.105,385.233"/>
			</g>
			<g>
				<path style="fill:#e0e0e0;" d="M65.933,396.935c-4.098-0.254-8.264,0.722-11.822,2.77c-3.558,2.048-6.494,5.161-8.333,8.832      c-0.25,0.499-0.47,1.133-0.136,1.58c0.291,0.388,0.852,0.425,1.337,0.393c3.972-0.257,7.492-2.647,10.397-5.368      c2.905-2.721,5.435-5.865,8.645-8.218"/>
			</g>
			<g>
				<path style="fill:#e0e0e0;" d="M65.619,396.298c-2.114-6.764-2.245-14.134-0.375-20.968c0.739-2.699,1.979-5.54,4.475-6.806      c0.213-0.108,0.461-0.204,0.685-0.12c0.212,0.08,0.335,0.297,0.433,0.501c0.888,1.855,1.146,3.961,1.055,6.016      c-0.091,2.055-0.518,4.078-0.943,6.09c-0.786,3.722-1.204,7.722-3.246,10.932c-0.484,0.762-0.911,1.585-1.298,2.401      c-0.386,0.816-0.389,1.103-0.744,1.752"/>
			</g>
			<g>
				<path style="fill:#e0e0e0;" d="M91.633,400.174c-1.927-7.331,0.118-16.219,4.738-22.229c0.34-0.443,0.791-0.917,1.347-0.866      c0.851,0.079,1.071,1.212,1.033,2.066C98.418,386.637,95.919,394.02,91.633,400.174"/>
			</g>
			<g>
				<path style="fill:#e0e0e0;" d="M93.979,401.777c8.907,2.318,19.125,0.065,26.534-5.397c-4.39-2.225-9.566-2.86-14.364-1.763      C101.35,395.715,96.966,397.865,93.979,401.777"/>
			</g>
			<g>
				<path style="fill:#e0e0e0;" d="M95.957,396.896c4.989-8.133,14.552-13.441,24.081-13.924c-1.098,3.876-4.283,6.888-7.876,8.708      c-3.594,1.82-7.605,2.613-11.559,3.381C99.064,395.359,96.954,395.687,95.957,396.896"/>
			</g>
			<g>
				<path style="fill:#e0e0e0;" d="M92.129,373.209c1.351-4.628,2.709-9.296,3.08-14.103c0.371-4.807-0.314-9.825-2.809-13.95      c-4.66,9.017-5.131,19.552-0.411,28.537"/>
			</g>
			<g>
				<path style="fill:#e0e0e0;" d="M107.817,365.28c5.449-9.904,16.567-17.815,27.816-18.923      C131.294,357.161,119.459,365.512,107.817,365.28"/>
			</g>
			<g>
				<path style="fill:#e0e0e0;" d="M104.389,367.22c8.127,1.238,15.051,6.428,22.645,9.575c1.624,0.673,3.376,1.209,5.119,0.98      c1.743-0.229,3.463-1.398,3.854-3.112c0.325-1.423-0.323-2.934-1.345-3.977c-1.021-1.043-2.371-1.694-3.718-2.256      c-8.272-3.444-17.142-3.53-25.856-1.441"/>
			</g>
			<g>
				<path style="fill:#e0e0e0;" d="M99.686,372.92c1.84,0.527,2.468,1.479,3.925,2.72c4.943,4.21,10.871,7.255,17.172,8.821      c0.656,0.163,1.517,0.228,1.842-0.365c0.284-0.518-0.075-1.144-0.444-1.606c-2.64-3.303-6.406-5.563-10.368-7.039      c-3.963-1.476-7.396-3.254-12.127-2.873"/>
			</g>
			<g>
				<path style="fill:#e0e0e0;" d="M94.379,338.495c6.608,6.168,15.917,9.335,24.915,8.477c0.41-0.039,0.856-0.104,1.134-0.407      c0.627-0.682-0.125-1.735-0.856-2.305C112.248,338.548,103.375,336.181,94.379,338.495"/>
			</g>
			<g>
				<path style="fill:#e0e0e0;" d="M100.671,336.192c8.735-6.549,20.714-8.526,31.09-5.13c-3.915,3.859-9.348,5.935-14.815,6.504      C111.479,338.135,106.003,337.529,100.671,336.192"/>
			</g>
			<g>
				<path style="fill:#e0e0e0;" d="M98.171,320.373c-0.719-7.312-0.252-13.083-0.76-20.429c-0.04-0.587-0.167-1.293-0.716-1.504      c-0.764-0.294-1.402,0.645-1.652,1.425c-2.177,6.772-0.987,14.538,3.118,20.347"/>
			</g>
			<g>
				<path style="fill:#e0e0e0;" d="M97.644,321.181c4.956-3.065,8.674-7.067,12.112-11.772c2.392-3.273,4.409-7.194,3.865-11.212      c-3.359-0.067-6.552,1.786-8.737,4.338c-2.185,2.553-3.484,5.744-4.454,8.961C99.461,314.713,98.782,318.019,97.644,321.181"/>
			</g>
			<g>
				<path style="fill:#e0e0e0;" d="M109.544,317.875c10.876-4.022,21.023-10.005,29.806-17.575      c-3.561-1.434-7.637-0.576-11.196,0.861c-8.133,3.283-14.777,8.824-18.766,16.635"/>
			</g>
			<g>
				<path style="fill:#e0e0e0;" d="M100.99,325.181c5.502,0.601,11.091,0.993,16.551,0.081c5.366-0.897,10.437-3.024,15.451-5.134      c0.415-0.175,0.868-0.385,1.05-0.797c0.198-0.448-0.013-0.993-0.376-1.322c-0.363-0.329-0.846-0.486-1.318-0.618      c-5.451-1.525-11.334-0.811-16.697,0.998C110.287,320.197,105.889,322.345,100.99,325.181"/>
			</g>
			<g>
				<path style="fill:#e0e0e0;" d="M69.572,338.745c-3.754-7.577-3.51-16.42-0.267-24.23c2.283,3.478,2.562,7.908,2.144,12.047      c-0.417,4.139-1.677,8.4-1.759,12.559"/>
			</g>
			<g>
				<path style="fill:#e0e0e0;" d="M54.575,331.181c-9.372-0.179-18.748,3.815-25.112,10.698c4.678,0.735,9.496-0.472,13.751-2.549      c4.255-2.078,8.036-4.993,11.784-7.887"/>
			</g>
			<g>
				<path style="fill:#e0e0e0;" d="M44.493,327.809c-4.585-0.372-8.997-0.939-13.406,0.411c-4.409,1.351-8.421,4.417-10.218,8.664      c4.288,0.483,8.637-0.592,12.568-2.373C37.368,332.73,40.943,330.263,44.493,327.809"/>
			</g>
			<g>
				<path style="fill:#e0e0e0;" d="M59.421,327.963c-4.125-2.703-8.36-5.455-13.163-6.574s-10.368-0.292-13.717,3.328      c3.888,2.281,8.605,2.551,13.112,2.547s10.034-0.055,14.283,1.449"/>
			</g>
			<g>
				<path style="fill:#e0e0e0;" d="M59.446,328.181c-7.052-6.924-9.725-19.364-6.888-28.831      C58.101,307.772,60.583,318.163,59.446,328.181"/>
			</g>
			<g>
				<path style="fill:#e0e0e0;" d="M78.836,308.561c1.33-3.092,2.265-6.337,3.458-9.484c1.193-3.147,2.676-6.244,4.931-8.743      c2.255-2.499,5.372-4.36,8.734-4.526c-2.104,9.528-8.433,18.042-16.95,22.803"/>
			</g>
			<g>
				<path style="fill:#e0e0e0;" d="M75.327,312.65c-2.201-3.029-4.744-7.141-7.728-9.402c-2.984-2.261-6.871-3.629-10.513-2.761      C60.79,307.108,67.79,311.776,75.327,312.65"/>
			</g>
			<g>
				<path style="fill:#e0e0e0;" d="M76.029,308.814c-1.442-3.666-2.896-7.37-3.479-11.266c-0.583-3.896-0.228-8.057,1.764-11.456      c3.871,7.317,5.118,15.172,1.913,22.804"/>
			</g>
			<g>
				<path style="fill:#e0e0e0;" d="M78.872,286.092c2.193-7.254,8.835-12.594,16.005-15.045c0.904-0.309,1.862-0.567,2.806-0.421      c0.944,0.146,1.87,0.792,2.068,1.726c0.262,1.234-0.758,2.34-1.716,3.159C92.451,280.287,85.888,283.91,78.872,286.092"/>
			</g>
			<g>
				<path style="fill:#e0e0e0;" d="M78.951,280.16c0.279-4.677,0.571-9.422,2.092-13.853c1.521-4.431,4.453-8.588,8.718-10.528      c0.726,4.724-1.359,9.423-3.872,13.488c-2.513,4.065-5.543,7.901-7.052,12.436"/>
			</g>
			<g>
				<path style="fill:#e0e0e0;" d="M78.836,283.379c-1.812-5.286-1.999-12.001-5.165-16.607c-2.213-3.219-5.756-5.412-7.663-8.822      c-1.267,3.185-0.879,6.854,0.446,10.015c1.325,3.161,3.513,5.882,5.856,8.384C74.653,278.851,76.659,280.733,78.836,283.379"/>
			</g>
			<g>
				<g>
					<path style="fill:#e0e0e0;" d="M78.872,439.06c-0.141,0-0.263-35.265-0.273-78.758c-0.01-43.507,0.096-78.765,0.237-78.765       c0.141,0,0.263,35.258,0.273,78.765C79.119,403.794,79.012,439.06,78.872,439.06z"/>
				</g>
			</g>
			<g>
				<g>
					<path style="fill:#e0e0e0;" d="M109.69,333.423c0.01,0.034-0.463,0.209-1.326,0.498c-0.953,0.322-2.178,0.735-3.649,1.231       c-3.077,1.048-7.303,2.566-11.891,4.446c-4.542,1.948-8.826,3.53-11.265,5.644c-1.219,1.043-1.918,2.172-2.264,2.995       c-0.35,0.828-0.412,1.335-0.459,1.326c-0.017-0.003-0.012-0.129,0.015-0.37c0.04-0.238,0.102-0.593,0.259-1.028       c0.298-0.87,0.978-2.077,2.209-3.192c1.226-1.118,2.933-2.122,4.888-3.036c1.955-0.913,4.122-1.865,6.423-2.81       c4.601-1.886,8.861-3.354,11.972-4.317c1.555-0.485,2.824-0.842,3.703-1.078C109.188,333.501,109.68,333.389,109.69,333.423z"/>
				</g>
			</g>
			<g>
				<g>
					<path style="fill:#e0e0e0;" d="M119.791,308.611c0.011,0.013-0.117,0.149-0.372,0.397c-0.3,0.282-0.674,0.633-1.132,1.063       c-1.051,0.955-2.481,2.254-4.225,3.838c-3.648,3.248-8.595,7.653-14.061,12.52c-5.489,4.886-10.232,9.554-13.519,13.069       c-1.646,1.755-2.942,3.21-3.826,4.225c-0.413,0.471-0.751,0.857-1.022,1.167c-0.237,0.264-0.368,0.398-0.382,0.387       c-0.014-0.011,0.091-0.166,0.302-0.452c0.214-0.284,0.524-0.706,0.949-1.23c0.839-1.056,2.097-2.55,3.714-4.341       c3.228-3.587,7.945-8.31,13.445-13.205c5.508-4.874,10.52-9.253,14.162-12.41c1.788-1.534,3.254-2.792,4.332-3.716       c0.483-0.4,0.878-0.728,1.195-0.991C119.628,308.708,119.779,308.598,119.791,308.611z"/>
				</g>
			</g>
			<g>
				<g>
					<path style="fill:#e0e0e0;" d="M94.077,331.396c-0.144-0.064,1.003-2.712,2.145-6.06c1.153-3.348,1.696-6.173,1.842-6.149       c0.133,0.014-0.192,2.922-1.359,6.313c-0.574,1.693-1.208,3.182-1.707,4.238C94.498,330.794,94.139,331.424,94.077,331.396z"/>
				</g>
			</g>
			<g>
				<g>
					<path style="fill:#e0e0e0;" d="M78.904,352.741c-0.028,0.021-0.328-0.33-0.846-0.982c-0.574-0.736-1.3-1.667-2.167-2.779       c-1.82-2.353-4.336-5.6-7.156-9.154c-2.822-3.554-5.414-6.742-7.292-9.049c-0.885-1.096-1.628-2.015-2.214-2.741       c-0.517-0.652-0.791-1.024-0.764-1.047c0.027-0.023,0.351,0.305,0.915,0.918c0.565,0.612,1.364,1.513,2.339,2.638       c1.95,2.249,4.59,5.405,7.415,8.964c2.824,3.558,5.298,6.845,7.045,9.254c0.874,1.205,1.57,2.188,2.038,2.877       C78.687,352.329,78.932,352.72,78.904,352.741z"/>
				</g>
			</g>
			<g>
				<g>
					<path style="fill:#e0e0e0;" d="M72.147,344.066c-0.083,0.089-1.886-2.05-2.831-5.3c-0.697-2.29-0.728-4.385-0.642-5.343       l0.225,0.018c-0.101,0.409-0.175,0.624-0.215,0.617c-0.04-0.007-0.042-0.234-0.009-0.653l0.225,0.018       c0.082,0.95,0.227,2.973,0.904,5.198C70.717,341.77,72.284,343.98,72.147,344.066z"/>
				</g>
			</g>
			<g>
				<g>
					<path style="fill:#e0e0e0;" d="M63.423,333.092c-0.066,0.071-0.646-0.661-1.977-1.148c-1.32-0.511-3.307-0.623-5.487-0.436       c-2.182,0.16-4.131,0.549-5.526,0.892c-1.395,0.345-2.247,0.617-2.274,0.546c-0.023-0.06,0.789-0.453,2.177-0.893       c1.387-0.436,3.362-0.89,5.584-1.053c2.205-0.19,4.296-0.021,5.661,0.611C62.965,332.223,63.469,333.08,63.423,333.092z"/>
				</g>
			</g>
			<g>
				<g>
					<path style="fill:#e0e0e0;" d="M61.355,330.433c-0.039,0.079-1.151-0.461-3.028-1.103c-1.873-0.644-4.542-1.32-7.555-1.555       c-3.015-0.225-5.755,0.039-7.704,0.392c-1.952,0.349-3.134,0.715-3.16,0.631c-0.011-0.033,0.275-0.153,0.803-0.342       c0.526-0.196,1.308-0.42,2.287-0.642c1.955-0.448,4.745-0.776,7.814-0.546c3.067,0.239,5.774,0.985,7.639,1.725       c0.934,0.368,1.673,0.708,2.163,0.981C61.107,330.24,61.371,330.401,61.355,330.433z"/>
				</g>
			</g>
			<g>
				<g>
					<path style="fill:#e0e0e0;" d="M78.836,319.187c-0.136,0.035-1.125-3.4-2.208-7.671c-1.083-4.272-1.851-7.762-1.714-7.797       c0.136-0.035,1.125,3.399,2.208,7.671C78.205,315.661,78.973,319.152,78.836,319.187z"/>
				</g>
			</g>
			<g>
				<g>
					<path style="fill:#e0e0e0;" d="M78.977,319.187c-0.152,0.049-0.787-2.246-2.448-4.592c-1.616-2.396-3.678-3.599-3.602-3.718       c0.027-0.053,0.596,0.156,1.39,0.717c0.796,0.554,1.781,1.493,2.629,2.708C78.67,316.744,79.1,319.178,78.977,319.187z"/>
				</g>
			</g>
			<g>
				<g>
					<path style="fill:#e0e0e0;" d="M78.872,420.261c-0.055,0.008-0.159-0.848-0.556-2.345c-0.393-1.497-1.133-3.622-2.356-6.106       c-2.437-4.979-6.87-11.292-12.504-17.615c-2.791-3.189-5.5-6.198-7.798-9.079c-2.302-2.876-4.195-5.618-5.576-8.043       c-1.386-2.423-2.288-4.502-2.815-5.968c-0.259-0.736-0.449-1.31-0.553-1.707c-0.111-0.395-0.162-0.604-0.145-0.609       c0.046-0.014,0.302,0.807,0.883,2.245c0.58,1.437,1.526,3.477,2.941,5.858c1.411,2.384,3.32,5.084,5.631,7.93       c2.308,2.851,5.02,5.843,7.816,9.038c5.649,6.34,10.072,12.733,12.444,17.794c1.193,2.526,1.888,4.69,2.224,6.215       c0.163,0.764,0.273,1.359,0.312,1.769C78.871,420.044,78.889,420.258,78.872,420.261z"/>
				</g>
			</g>
			<g>
				<g>
					<path style="fill:#e0e0e0;" d="M106.72,388.806c0.017,0.038-0.516,0.307-1.459,0.819c-0.936,0.526-2.264,1.336-3.786,2.503       c-1.522,1.165-3.224,2.695-4.971,4.535c-1.745,1.843-3.542,3.984-5.377,6.278c-3.668,4.602-7.098,8.674-9.153,11.925       c-1.043,1.612-1.801,2.972-2.298,3.926c-0.501,0.951-0.767,1.486-0.804,1.469c-0.016-0.007,0.031-0.149,0.135-0.414       c0.109-0.262,0.256-0.657,0.49-1.143c0.444-0.985,1.159-2.381,2.171-4.03c1.995-3.329,5.398-7.457,9.06-12.052       c1.838-2.298,3.658-4.443,5.436-6.284c1.781-1.837,3.528-3.357,5.095-4.498c1.567-1.142,2.938-1.914,3.91-2.39       c0.483-0.243,0.878-0.392,1.139-0.504C106.571,388.838,106.713,388.79,106.72,388.806z"/>
				</g>
			</g>
			<g>
				<g>
					<path style="fill:#e0e0e0;" d="M107.265,399.01c0.006,0.074-1.178,0.218-3.085,0.448c-1.9,0.246-4.545,0.563-7.316,1.441       c-2.761,0.899-5.056,2.269-6.551,3.438c-1.51,1.167-2.222,2.132-2.292,2.076c-0.024-0.018,0.123-0.281,0.457-0.71       c0.33-0.432,0.87-1.009,1.607-1.645c1.471-1.268,3.788-2.72,6.622-3.644c2.839-0.898,5.52-1.159,7.437-1.314       C106.068,398.961,107.259,398.944,107.265,399.01z"/>
				</g>
			</g>
			<g>
				<g>
					<path style="fill:#e0e0e0;" d="M88.921,405.292c-0.161-0.091,1.229-2.215,2.308-5.071c1.012-2.882,1.249-5.41,1.43-5.38       c0.066,0.008,0.063,0.64-0.051,1.655c-0.121,1.012-0.364,2.418-0.9,3.899c-0.539,1.479-1.246,2.715-1.789,3.576       C89.369,404.831,88.978,405.327,88.921,405.292z"/>
				</g>
			</g>
			<g>
				<g>
					<path style="fill:#e0e0e0;" d="M115.739,361.411c0.006,0.016-0.164,0.107-0.494,0.263c-0.383,0.174-0.862,0.392-1.45,0.659       c-0.635,0.272-1.406,0.618-2.274,1.076c-0.872,0.449-1.889,0.913-2.947,1.549c-0.538,0.306-1.099,0.625-1.683,0.957       c-0.583,0.336-1.161,0.734-1.775,1.119c-1.241,0.753-2.483,1.68-3.81,2.626c-2.596,1.97-5.325,4.302-7.953,6.995       c-2.602,2.719-4.84,5.527-6.721,8.189c-0.9,1.358-1.784,2.632-2.494,3.898c-0.363,0.627-0.742,1.218-1.057,1.812       c-0.312,0.595-0.612,1.167-0.899,1.715c-0.599,1.08-1.027,2.112-1.447,2.999c-0.428,0.883-0.747,1.665-0.997,2.309       c-0.247,0.596-0.448,1.083-0.609,1.471c-0.145,0.335-0.229,0.508-0.245,0.502c-0.017-0.006,0.035-0.19,0.149-0.537       c0.137-0.398,0.31-0.897,0.521-1.508c0.223-0.657,0.516-1.453,0.921-2.352c0.397-0.902,0.804-1.95,1.386-3.047       c0.28-0.556,0.572-1.137,0.875-1.741c0.308-0.603,0.681-1.203,1.038-1.839c0.699-1.284,1.576-2.575,2.472-3.951       c1.873-2.697,4.118-5.537,6.741-8.277c2.648-2.714,5.41-5.055,8.04-7.018c1.344-0.943,2.605-1.863,3.864-2.605       c0.623-0.379,1.21-0.772,1.802-1.101c0.593-0.324,1.163-0.636,1.71-0.934c1.076-0.619,2.11-1.063,2.997-1.49       c0.884-0.435,1.67-0.756,2.319-1.001c0.604-0.232,1.097-0.421,1.49-0.572C115.55,361.453,115.732,361.395,115.739,361.411z"/>
				</g>
			</g>
			<g>
				<g>
					<path style="fill:#e0e0e0;" d="M93.699,376.178c-0.045-0.007,0.2-0.863,1.212-1.805c0.987-0.94,2.787-1.811,4.883-1.873       c2.09-0.055,3.901,0.529,5.139,1.004c1.244,0.489,1.967,0.885,1.943,0.944c-0.029,0.071-0.804-0.208-2.061-0.603       c-1.253-0.384-3.024-0.889-5.004-0.835c-1.973,0.061-3.676,0.821-4.664,1.637C94.136,375.46,93.78,376.228,93.699,376.178z"/>
				</g>
			</g>
			<g>
				<g>
					<path style="fill:#e0e0e0;" d="M90.405,379.577c-0.14-0.078,1.103-1.9,1.386-4.511c0.326-2.607-0.465-4.666-0.311-4.709       c0.056-0.023,0.333,0.456,0.573,1.314c0.241,0.854,0.4,2.097,0.244,3.454c-0.16,1.357-0.602,2.53-1.033,3.305       C90.834,379.21,90.454,379.612,90.405,379.577z"/>
				</g>
			</g>
		</g>
		<g>
			<path style="fill:#e0e0e0;" d="M54.515,425.314c0.76,13.477,4.821,27.183,11.068,41.041h27.164     c5.957-13.72,9.738-27.405,10.41-41.041H54.515z"/>
		</g>
		<g>
			<g>
				<path style="fill:#FAFAFA;" d="M98.755,447.122c0,0.141-8.944,0.255-19.974,0.255c-11.034,0-19.976-0.114-19.976-0.255      c0-0.141,8.942-0.255,19.976-0.255C89.811,446.867,98.755,446.981,98.755,447.122z"/>
			</g>
		</g>
		<g>
			<g>
				<path style="fill:#FAFAFA;" d="M98.148,452.004c0,0.141-8.385,0.255-18.725,0.255c-10.344,0-18.727-0.114-18.727-0.255      c0-0.141,8.383-0.255,18.727-0.255C89.763,451.749,98.148,451.863,98.148,452.004z"/>
			</g>
		</g>
		<g>
			<g>
				<path style="fill:#FAFAFA;" d="M66.021,434.162c0.141,0,0.255,2.802,0.255,6.257c0,3.456-0.114,6.257-0.255,6.257      c-0.141,0-0.255-2.801-0.255-6.257C65.767,436.964,65.881,434.162,66.021,434.162z"/>
			</g>
		</g>
		<g>
			<g>
				<path style="fill:#FAFAFA;" d="M80.576,434.162c0.141,0,0.255,2.901,0.255,6.479c0,3.579-0.114,6.48-0.255,6.48      c-0.141,0-0.255-2.901-0.255-6.48C80.321,437.064,80.435,434.162,80.576,434.162z"/>
			</g>
		</g>
		<g>
			<g>
				<path style="fill:#FAFAFA;" d="M94.239,434.052c0.141,0,0.255,2.959,0.255,6.609c0,3.651-0.114,6.609-0.255,6.609      c-0.141,0-0.255-2.958-0.255-6.609C93.984,437.012,94.098,434.052,94.239,434.052z"/>
			</g>
		</g>
		<g>
			<g>
				<path style="fill:#FAFAFA;" d="M102.295,434.162c0,0.141-10.49,0.255-23.427,0.255c-12.942,0-23.43-0.114-23.43-0.255      c0-0.141,10.488-0.255,23.43-0.255C91.805,433.907,102.295,434.022,102.295,434.162z"/>
			</g>
		</g>
	</g>
</g>
<g id="Background_Simple" style="display:none;">
	<path style="display:inline;fill:#F5F5F5;" d="M409.705,89.174l-2.014-3.319c-16.98-27.982-47.682-44.851-80.051-42.804   c-4.161,0.263-8.304,0.826-12.391,1.701c-29.43,6.3-55.038,28.555-65.652,57.058c-6.242,16.763-7.987,36.063-19.833,49.369   c-15.417,17.317-41.592,17.86-64.605,17.143c-23.013-0.717-49.205-0.106-64.547,17.279c-9.609,10.888-12.662,26.371-11.888,40.952   c2.051,38.604,28.951,73.122,63.161,90.279c34.21,17.157,74.488,18.694,111.929,11.146c52.45-10.573,102.329-39.609,132.311-84.455   C426.105,198.676,433.693,137.578,409.705,89.174z"/>
</g>
<g id="Floor">
	<g>
		<path style="fill:#263238;" d="M458.337,466.354c0,0.144-91.94,0.26-205.327,0.26c-113.427,0-205.347-0.117-205.347-0.26    c0-0.144,91.92-0.26,205.347-0.26C366.397,466.094,458.337,466.211,458.337,466.354z"/>
	</g>
</g>
<g id="Screen">
	<g>
		<g>
			<path style="fill:#ffffff;" d="M356.604,239.032H170.339c-4.345,0-7.867-3.522-7.867-7.867V86.625     c0-4.345,3.522-7.867,7.867-7.867h186.265c4.345,0,7.867,3.522,7.867,7.867v144.54     C364.47,235.51,360.948,239.032,356.604,239.032z"/>
			<path style="fill:#455A64;" d="M325.484,157.835c-4.131-4.166-10.823-4.298-15.115-0.3l-18.9,17.603     c0,0-14.457,12.839-23.832,19.126c-1.082,0.726-2.37,1.501-3.801,1.343c-1.135-0.126-1.998-0.811-2.767-1.455     c-8.302-6.964-16.605-13.929-24.907-20.894l-9.079-7.561c-7.004-5.833-17.122-6.026-24.333-0.451     c-18.625,14.4-39.986,31.644-39.986,31.644l-0.246,35.527c-0.025,3.648,3.878,6.615,8.701,6.615h184.075     c5.068,0,9.177-3.107,9.177-6.94v-34.94L325.484,157.835z"/>
			<g>
				
					<ellipse transform="matrix(0.7071 -0.7071 0.7071 0.7071 -3.2489 248.7415)" style="fill:#455A64;" cx="298.633" cy="128.293" rx="13.426" ry="13.426"/>
			</g>
			<g>
				<path style="fill:#263238;" d="M356.604,239.032c0,0,0.155-0.017,0.461-0.037c0.306-0.011,0.763-0.07,1.351-0.209      c1.146-0.285,2.946-0.989,4.391-2.883c0.708-0.933,1.309-2.151,1.505-3.593c0.116-0.715,0.087-1.48,0.087-2.28      c-0.002-0.799-0.004-1.631-0.006-2.497c-0.007-3.464-0.015-7.459-0.024-11.955c-0.02-17.997-0.048-44.027-0.083-76.19      c-0.01-16.084-0.02-33.702-0.032-52.614c0.058-2.315-1.021-4.619-2.841-6.092c-0.912-0.73-1.993-1.256-3.141-1.515      c-1.141-0.283-2.362-0.159-3.588-0.187c-4.886,0.002-9.85,0.004-14.887,0.006c-10.074,0.004-20.442,0.007-31.075,0.011      c-42.531,0.006-89.288,0.013-138.367,0.02c-2.99-0.04-5.863,1.863-7.005,4.602c-0.277,0.682-0.482,1.395-0.564,2.128      c-0.072,0.723-0.053,1.489-0.054,2.25c0,1.52,0,3.038,0,4.553c0,6.061-0.001,12.081-0.001,18.057      c-0.001,11.953-0.003,23.731-0.004,35.304c-0.005,23.146-0.01,45.472-0.015,66.741c-0.002,5.317-0.003,10.568-0.005,15.749      c0.027,1.285-0.069,2.613,0.083,3.836c0.175,1.234,0.643,2.427,1.387,3.421c1.449,2.029,3.916,3.214,6.376,3.143      c10.075,0.005,19.856,0.009,29.313,0.013c18.914,0.012,36.531,0.022,52.616,0.032c32.163,0.035,58.191,0.063,76.186,0.083      c8.99,0.021,15.971,0.038,20.713,0.049c2.363,0.011,4.166,0.02,5.387,0.026C355.982,239.014,356.604,239.032,356.604,239.032      s-0.622,0.018-1.835,0.027c-1.221,0.006-3.024,0.014-5.387,0.026c-4.742,0.011-11.724,0.028-20.713,0.049      c-17.995,0.02-44.023,0.048-76.186,0.083c-16.084,0.01-33.702,0.02-52.616,0.032c-9.457,0.004-19.238,0.008-29.313,0.013      c-2.581,0.078-5.219-1.178-6.751-3.327c-0.789-1.054-1.289-2.32-1.475-3.63c-0.162-1.334-0.06-2.598-0.09-3.901      c-0.002-5.181-0.004-10.432-0.005-15.749c-0.005-21.268-0.01-43.595-0.015-66.741c-0.001-11.573-0.003-23.351-0.004-35.304      c0-5.977-0.001-11.997-0.001-18.057c0-1.515,0-3.033,0-4.553c0.003-0.758-0.02-1.517,0.058-2.309      c0.088-0.783,0.306-1.546,0.603-2.275c1.219-2.927,4.291-4.96,7.483-4.917c49.078,0.007,95.836,0.014,138.367,0.021      c10.632,0.004,21.001,0.007,31.075,0.011c5.037,0.002,10.001,0.004,14.887,0.006c1.208,0.03,2.453-0.1,3.684,0.201      c1.215,0.276,2.358,0.833,3.321,1.606c1.923,1.554,3.061,4.006,2.997,6.433c-0.011,18.912-0.022,36.53-0.032,52.614      c-0.035,32.163-0.063,58.193-0.083,76.19c-0.009,4.497-0.017,8.492-0.024,11.955c-0.002,0.866-0.004,1.698-0.006,2.497      c-0.004,0.795,0.021,1.569-0.101,2.299c-0.208,1.464-0.826,2.697-1.551,3.637c-1.478,1.908-3.305,2.601-4.462,2.871      c-0.594,0.131-1.054,0.181-1.361,0.184C356.759,239.033,356.604,239.032,356.604,239.032z"/>
			</g>
		</g>
		<g>
			<path style="fill:#ffffff;" d="M171.628,220.824v0.57h-2.67v-0.45l1.439-1.367c0.352-0.336,0.414-0.548,0.414-0.75     c0-0.331-0.228-0.523-0.673-0.523c-0.352,0-0.647,0.119-0.848,0.378l-0.471-0.362c0.279-0.378,0.782-0.601,1.376-0.601     c0.787,0,1.294,0.398,1.294,1.04c0,0.352-0.098,0.673-0.6,1.144l-0.968,0.921H171.628z"/>
			<path style="fill:#ffffff;" d="M171.992,219.028c0-0.259,0.191-0.43,0.424-0.43c0.233,0,0.424,0.171,0.424,0.43     c0,0.248-0.192,0.429-0.424,0.429C172.183,219.457,171.992,219.276,171.992,219.028z M171.992,221     c0-0.259,0.191-0.429,0.424-0.429c0.233,0,0.424,0.17,0.424,0.429c0,0.248-0.192,0.429-0.424,0.429     C172.183,221.429,171.992,221.248,171.992,221z"/>
			<path style="fill:#ffffff;" d="M174.526,217.77v3.623h-0.672v-3.059h-0.766v-0.565H174.526z"/>
			<path style="fill:#ffffff;" d="M178.473,220.571h-0.642v0.822h-0.652v-0.822h-1.988v-0.467l1.785-2.334h0.72l-1.682,2.231h1.186     v-0.73h0.632v0.73h0.642V220.571z"/>
		</g>
		<g>
			<rect x="184.392" y="219.122" style="fill:#ffffff;" width="140.993" height="1.253"/>
		</g>
		<g>
			<rect x="184.186" y="217.772" style="fill:#713abe;" width="85.897" height="3.342"/>
		</g>
		<g>
			<path style="fill:#713abe;" d="M272.857,219.749c0,2.31-1.872,4.182-4.182,4.182c-2.31,0-4.182-1.872-4.182-4.182     c0-2.31,1.872-4.182,4.182-4.182C270.984,215.567,272.857,217.439,272.857,219.749z"/>
		</g>
		<g>
			<path style="fill:#ffffff;" d="M334.701,220.468c0,0.721-0.585,1.176-1.325,1.176c-0.988,0-1.568-0.636-1.568-1.801     c0-1.243,0.725-1.925,1.775-1.925c0.362,0,0.709,0.077,0.952,0.232l-0.248,0.508c-0.197-0.13-0.435-0.176-0.689-0.176     c-0.683,0-1.113,0.425-1.113,1.247v0.006c0.218-0.254,0.565-0.378,0.968-0.378C334.168,219.356,334.701,219.79,334.701,220.468z      M334.048,220.499c0-0.378-0.285-0.615-0.724-0.615c-0.435,0-0.735,0.264-0.735,0.621c0,0.341,0.269,0.61,0.75,0.61     C333.759,221.115,334.048,220.877,334.048,220.499z"/>
			<path style="fill:#ffffff;" d="M335.028,219.226c0-0.259,0.191-0.43,0.424-0.43c0.232,0,0.424,0.171,0.424,0.43     c0,0.248-0.192,0.429-0.424,0.429C335.218,219.655,335.028,219.474,335.028,219.226z M335.028,221.198     c0-0.259,0.191-0.429,0.424-0.429c0.232,0,0.424,0.17,0.424,0.429c0,0.248-0.192,0.429-0.424,0.429     C335.218,221.627,335.028,221.446,335.028,221.198z"/>
			<path style="fill:#ffffff;" d="M336.309,219.78c0-1.19,0.652-1.863,1.511-1.863c0.865,0,1.517,0.673,1.517,1.863     c0,1.19-0.652,1.863-1.517,1.863C336.961,221.644,336.309,220.97,336.309,219.78z M338.659,219.78     c0-0.875-0.341-1.278-0.839-1.278c-0.491,0-0.833,0.404-0.833,1.278c0,0.875,0.342,1.278,0.833,1.278     C338.318,221.058,338.659,220.655,338.659,219.78z"/>
			<path style="fill:#ffffff;" d="M339.788,219.78c0-1.19,0.652-1.863,1.511-1.863c0.865,0,1.517,0.673,1.517,1.863     c0,1.19-0.652,1.863-1.517,1.863C340.44,221.644,339.788,220.97,339.788,219.78z M342.138,219.78     c0-0.875-0.341-1.278-0.839-1.278c-0.491,0-0.833,0.404-0.833,1.278c0,0.875,0.342,1.278,0.833,1.278     C341.797,221.058,342.138,220.655,342.138,219.78z"/>
		</g>
		<g>
			<polygon style="fill:#ffffff;" points="348.669,219.555 347.416,219.555 347.416,215.942 351.022,215.942 351.022,217.195      348.669,217.195    "/>
		</g>
		<g>
			<polygon style="fill:#ffffff;" points="351.025,224.27 347.412,224.27 347.412,220.665 348.665,220.665 348.665,223.017      351.025,223.017    "/>
		</g>
		<g>
			<polygon style="fill:#ffffff;" points="356.779,224.27 353.172,224.27 353.172,223.017 355.525,223.017 355.525,220.656      356.779,220.656    "/>
		</g>
		<g>
			<polygon style="fill:#ffffff;" points="356.782,219.548 355.529,219.548 355.529,217.195 353.169,217.195 353.169,215.942      356.782,215.942    "/>
		</g>
	</g>
</g>
<g id="Button">
	<g>
		<g>
			<g>
				<g>
					
						<ellipse transform="matrix(0.1591 -0.9873 0.9873 0.1591 71.6186 387.8395)" style="fill:#713abe;" cx="263.471" cy="151.88" rx="22.754" ry="22.754"/>
					<g>
						<path style="fill:#263238;" d="M286.225,151.88c-0.009,0-0.024-0.125-0.045-0.368c-0.02-0.269-0.047-0.626-0.08-1.079        c-0.016-0.24-0.033-0.504-0.053-0.794c-0.032-0.291-0.096-0.606-0.149-0.948c-0.112-0.685-0.218-1.479-0.483-2.342        c-0.406-1.752-1.233-3.822-2.531-6.014c-1.309-2.183-3.194-4.462-5.757-6.395c-2.555-1.915-5.777-3.543-9.496-4.198        c-3.693-0.632-7.861-0.516-11.829,0.993c-1.01,0.324-1.959,0.824-2.935,1.292c-0.924,0.559-1.898,1.075-2.759,1.775        c-0.915,0.628-1.714,1.414-2.552,2.171c-0.757,0.838-1.552,1.658-2.204,2.609c-1.339,1.86-2.508,3.926-3.215,6.198        c-0.733,2.258-1.128,4.656-1.16,7.097c0.032,2.442,0.426,4.841,1.159,7.1c0.707,2.273,1.876,4.34,3.215,6.2        c0.652,0.951,1.447,1.772,2.204,2.61c0.838,0.757,1.637,1.543,2.552,2.171c0.86,0.7,1.835,1.216,2.759,1.775        c0.976,0.469,1.925,0.969,2.935,1.292c3.969,1.509,8.137,1.626,11.83,0.993c3.718-0.656,6.941-2.284,9.496-4.199        c2.563-1.933,4.448-4.212,5.757-6.395c1.298-2.192,2.125-4.261,2.531-6.014c0.265-0.863,0.371-1.657,0.482-2.342        c0.053-0.343,0.117-0.658,0.149-0.948c0.019-0.29,0.037-0.554,0.053-0.794c0.034-0.453,0.06-0.809,0.08-1.079        C286.201,152.004,286.216,151.88,286.225,151.88s0.012,0.125,0.008,0.369c-0.007,0.27-0.017,0.629-0.029,1.084        c-0.008,0.242-0.018,0.508-0.028,0.8c-0.024,0.293-0.08,0.611-0.125,0.957c-0.096,0.692-0.187,1.495-0.439,2.369        c-0.38,1.775-1.186,3.879-2.477,6.113c-1.302,2.225-3.193,4.555-5.783,6.539c-2.582,1.965-5.853,3.643-9.64,4.331        c-3.76,0.664-8.013,0.562-12.073-0.967c-1.032-0.328-2.004-0.835-3.003-1.312c-0.947-0.568-1.943-1.094-2.824-1.807        c-0.936-0.641-1.756-1.442-2.613-2.215c-0.776-0.854-1.589-1.693-2.258-2.664c-1.372-1.9-2.569-4.014-3.295-6.339        c-0.752-2.311-1.156-4.766-1.188-7.263c0.033-2.496,0.437-4.951,1.19-7.261c0.726-2.324,1.923-4.437,3.295-6.337        c0.669-0.971,1.482-1.809,2.258-2.663c0.857-0.773,1.677-1.573,2.613-2.214c0.881-0.712,1.877-1.238,2.824-1.806        c0.998-0.477,1.97-0.984,3.002-1.312c4.059-1.528,8.311-1.631,12.071-0.967c3.786,0.687,7.058,2.365,9.64,4.33        c2.59,1.984,4.482,4.314,5.784,6.539c1.292,2.235,2.098,4.338,2.478,6.114c0.252,0.875,0.343,1.678,0.439,2.37        c0.045,0.346,0.101,0.664,0.125,0.957c0.01,0.292,0.019,0.559,0.028,0.8c0.012,0.455,0.022,0.814,0.029,1.085        C286.237,151.755,286.234,151.88,286.225,151.88z"/>
					</g>
				</g>
			</g>
		</g>
		<g>
			<rect x="256.636" y="143.612" style="fill:#ffffff;" width="4.793" height="16.535"/>
			<rect x="265.513" y="143.612" style="fill:#ffffff;" width="4.793" height="16.535"/>
		</g>
	</g>
</g>
<g id="Plant">
	<g>
		<g>
			<g>
				<path style="fill:#455A64;" d="M446.096,252.404c-11.134,5.768-19.673,15.698-25.812,26.632      c-6.139,10.934-10.096,22.932-14.016,34.843l-3.43,61.432c12.956-22.041,23.355-47.951,26.164-73.363      c-2.874-0.256-5.748-0.512-8.622-0.768c5.781-0.882,10.633-5.071,13.72-10.037c3.087-4.966,4.676-10.694,6.228-16.332      c-3.506,0.521-7.013,1.042-10.519,1.564C438.048,270.877,444.02,262.087,446.096,252.404z"/>
			</g>
		</g>
		<g style="opacity:0.3;">
			<g>
				<g>
					<path d="M446.096,252.404c-11.134,5.768-19.673,15.698-25.812,26.632c-6.139,10.934-10.096,22.932-14.016,34.843l-3.43,61.432       c12.956-22.041,23.355-47.951,26.164-73.363c-2.874-0.256-5.748-0.512-8.622-0.768c5.781-0.882,10.633-5.071,13.72-10.037       c3.087-4.966,4.676-10.694,6.228-16.332c-3.506,0.521-7.013,1.042-10.519,1.564       C438.048,270.877,444.02,262.087,446.096,252.404z" fill="#000000"/>
				</g>
			</g>
		</g>
		<g>
			<g>
				<path style="fill:#455A64;" d="M400.921,389.705c0,0-28.121-33.659-27.796-65.79h11.36c0,0-12.339-8.114-11.362-12.658      c0.976-4.544,1.301-21.746,1.301-21.746l10.386,2.596c0,0-7.789-3.895-8.763-10.061c-0.974-6.167,2.272-34.728,2.272-34.728      s12.658,13.307,16.552,26.939c3.895,13.632,14.118,29.535,11.116,71.079C402.984,386.88,400.921,389.705,400.921,389.705z"/>
			</g>
		</g>
		<g>
			<g>
				<path style="fill:#455A64;" d="M415.178,392.882c0,0,30.466-20.296,37.235-46.2l-9.133-2.485c0,0,11.695-3.824,11.904-7.691      c0.209-3.867,3.712-17.767,3.712-17.767l-8.918-0.185c0,0,7.115-1.427,9.247-6.172c2.132-4.745,5.771-28.417,5.771-28.417      s-13.088,7.929-19.202,18.036c-6.114,10.107-17.812,20.656-24.488,54.713C414.631,390.771,415.178,392.882,415.178,392.882z"/>
			</g>
		</g>
		<g>
			<g>
				<g>
					<path style="fill:#263238;" d="M386,276.665c0.01-0.002,0.045,0.116,0.104,0.349c0.063,0.264,0.145,0.605,0.248,1.035       c0.214,0.95,0.514,2.288,0.897,3.993c0.391,1.734,0.846,3.86,1.339,6.336c0.502,2.474,1.087,5.289,1.658,8.415       c1.207,6.24,2.479,13.701,3.789,22.002c1.269,8.307,2.536,17.46,3.662,27.093c1.103,9.639,1.957,18.841,2.617,27.22       c0.619,8.382,1.082,15.937,1.331,22.288c0.157,3.174,0.229,6.048,0.306,8.571c0.085,2.523,0.127,4.697,0.141,6.474       c0.016,1.747,0.029,3.118,0.038,4.092c-0.002,0.442-0.004,0.793-0.005,1.064c-0.004,0.24-0.011,0.363-0.022,0.363       c-0.01,0-0.023-0.122-0.038-0.362c-0.014-0.271-0.031-0.621-0.053-1.063c-0.035-0.973-0.084-2.343-0.147-4.089       c-0.049-1.776-0.124-3.948-0.24-6.468c-0.107-2.521-0.208-5.392-0.391-8.563c-0.301-6.345-0.807-13.892-1.454-22.266       c-0.688-8.37-1.559-17.564-2.66-27.195c-1.124-9.625-2.374-18.773-3.614-27.079c-1.28-8.299-2.509-15.762-3.664-22.008       c-0.545-3.129-1.102-5.948-1.573-8.427c-0.463-2.481-0.885-4.613-1.242-6.353c-0.337-1.714-0.602-3.059-0.79-4.015       c-0.079-0.435-0.143-0.781-0.191-1.047C386.006,276.789,385.99,276.667,386,276.665z"/>
				</g>
			</g>
		</g>
		<g>
			<g>
				<path style="fill:#455A64;" d="M397.021,410.316c0,0-25.734-29.199-33.724-46.85l6.032-2.577      c-4.372,0.721-8.852-1.158-12.243-4.011c-3.39-2.854-5.88-6.607-8.321-10.306l7.946-1.343      c-7.226-2.028-13.592-6.959-17.362-13.449c9.377,1.542,17.861,6.693,24.851,13.13c5.661,5.213,10.455,11.265,15.059,17.449      c2.246,3.016,4.211,6.23,5.848,9.615C389.431,380.914,397.035,399.593,397.021,410.316z"/>
			</g>
		</g>
		<g>
			<g>
				<g>
					<path style="fill:#263238;" d="M452.818,300.96c0.009,0.004-0.031,0.106-0.116,0.299c-0.102,0.221-0.232,0.501-0.393,0.85       c-0.375,0.779-0.898,1.864-1.562,3.242c-1.377,2.805-3.328,6.883-5.691,11.944c-4.731,10.119-10.964,24.244-17.118,40.138       c-6.142,15.905-11.033,30.551-14.34,41.22c-1.657,5.334-2.957,9.664-3.824,12.665c-0.436,1.466-0.779,2.62-1.025,3.449       c-0.115,0.366-0.208,0.66-0.281,0.893c-0.066,0.2-0.105,0.302-0.115,0.299c-0.01-0.003,0.01-0.109,0.058-0.315       c0.059-0.237,0.133-0.536,0.225-0.909c0.221-0.836,0.529-2,0.92-3.479c0.801-3.021,2.042-7.371,3.649-12.724       c3.209-10.708,8.043-25.389,14.191-41.31c6.159-15.91,12.458-30.023,17.288-40.104c2.412-5.042,4.421-9.095,5.86-11.87       c0.705-1.358,1.261-2.426,1.66-3.194c0.182-0.338,0.329-0.609,0.445-0.824C452.751,301.048,452.809,300.956,452.818,300.96z"/>
				</g>
			</g>
		</g>
		<g>
			<g>
				<g>
					<path style="fill:#263238;" d="M399.204,422.828c-0.02,0.002-0.064-0.182-0.129-0.536c-0.07-0.421-0.154-0.932-0.256-1.549       c-0.199-1.347-0.537-3.29-1.011-5.677c-0.465-2.389-1.128-5.211-1.972-8.314c-0.871-3.095-1.939-6.467-3.24-9.943       c-1.321-3.469-2.749-6.706-4.141-9.605c-1.418-2.887-2.785-5.443-4.015-7.543c-1.222-2.104-2.252-3.785-2.993-4.928       c-0.331-0.531-0.605-0.97-0.831-1.332c-0.185-0.308-0.274-0.476-0.258-0.487c0.016-0.011,0.138,0.134,0.354,0.421       c0.25,0.345,0.555,0.765,0.923,1.273c0.8,1.106,1.887,2.759,3.159,4.844c1.28,2.081,2.691,4.628,4.142,7.516       c1.425,2.9,2.876,6.149,4.204,9.636c1.308,3.494,2.366,6.889,3.213,10.008c0.82,3.126,1.444,5.97,1.859,8.378       c0.424,2.405,0.701,4.364,0.831,5.723c0.059,0.624,0.108,1.14,0.149,1.565C399.219,422.637,399.224,422.826,399.204,422.828z"/>
				</g>
			</g>
		</g>
		<g>
			<g>
				<rect x="376.838" y="415.96" style="fill:#713abe;" width="56.323" height="11.489"/>
			</g>
		</g>
		<g>
			<g>
				<polygon style="fill:#713abe;" points="382.204,427.449 388.297,466.094 422.33,466.094 428.009,427.449     "/>
			</g>
		</g>
		<g>
			<g>
				<g>
					<path style="fill:#263238;" d="M429.705,427.449c0,0.16-10.655,0.29-23.795,0.29c-13.145,0-23.797-0.13-23.797-0.29       c0-0.16,10.652-0.29,23.797-0.29C419.051,427.159,429.705,427.289,429.705,427.449z"/>
				</g>
			</g>
		</g>
	</g>
</g>
<g id="Character">
	<g>
		<g>
			<g>
				<g>
					<g>
						<g>
							<g>
								<g>
									<g>
										<g>
											<g>
												<g>
													<g>
														<g>
															<g>
																<path style="fill:#455A64;" d="M138.494,442.248v23.795l48.959-0.232c-0.356-4.825-27.226-14.451-27.226-14.451                  l0.534-9.111H138.494z"/>
															</g>
														</g>
													</g>
												</g>
											</g>
										</g>
									</g>
								</g>
							</g>
						</g>
						<g style="opacity:0.6;">
							<g>
								<g>
									<g>
										<g>
											<g>
												<g>
													<g>
														<g>
															<g>
																<g>
																	<path style="fill:#ffffff;" d="M146.413,449.206c-0.939,0.282-1.574,1.391-1.341,2.377                   c0.233,0.985,1.315,1.667,2.259,1.402c0.943-0.264,1.745-1.572,1.407-2.524c-0.338-0.952-1.651-1.68-2.505-1.189"/>
																</g>
															</g>
														</g>
													</g>
												</g>
											</g>
										</g>
									</g>
								</g>
							</g>
						</g>
						<g>
							<g>
								<g>
									<g>
										<g>
											<g>
												<g>
													<g>
														<g>
															<g>
																<path style="fill:#263238;" d="M138.494,466.043v-3.8l46.743,0.542c0,0,2.437,1.437,2.215,3.026L138.494,466.043z"/>
															</g>
														</g>
													</g>
												</g>
											</g>
										</g>
									</g>
								</g>
							</g>
						</g>
						<g>
							<g>
								<g>
									<g>
										<g>
											<g>
												<g>
													<g>
														<g>
															<g>
																<g>
																	<path style="fill:#263238;" d="M160.226,451.819c-0.004,0.247-1.191,0.377-2.35,1.188                   c-1.179,0.78-1.767,1.858-1.987,1.763c-0.22-0.045,0.113-1.526,1.533-2.482                   C158.832,451.319,160.275,451.592,160.226,451.819z"/>
																</g>
															</g>
														</g>
													</g>
												</g>
											</g>
										</g>
									</g>
								</g>
							</g>
						</g>
						<g>
							<g>
								<g>
									<g>
										<g>
											<g>
												<g>
													<g>
														<g>
															<g>
																<g>
																	<path style="fill:#263238;" d="M166.641,454.021c0.058,0.238-0.966,0.673-1.758,1.73                   c-0.823,1.031-1.01,2.164-1.247,2.156c-0.223,0.042-0.408-1.401,0.601-2.695                   C165.235,453.91,166.632,453.786,166.641,454.021z"/>
																</g>
															</g>
														</g>
													</g>
												</g>
											</g>
										</g>
									</g>
								</g>
							</g>
						</g>
						<g>
							<g>
								<g>
									<g>
										<g>
											<g>
												<g>
													<g>
														<g>
															<g>
																<g>
																	<path style="fill:#263238;" d="M169.527,460.085c-0.215,0.056-0.564-1.173,0.027-2.534                   c0.582-1.366,1.695-1.916,1.799-1.712c0.137,0.201-0.574,0.937-1.043,2.062                   C169.815,459.015,169.762,460.057,169.527,460.085z"/>
																</g>
															</g>
														</g>
													</g>
												</g>
											</g>
										</g>
									</g>
								</g>
							</g>
						</g>
						<g>
							<g>
								<g>
									<g>
										<g>
											<g>
												<g>
													<g>
														<g>
															<g>
																<g>
																	<path style="fill:#263238;" d="M159.751,445.053c-0.096,0.226-1.192-0.098-2.535,0.016                   c-1.345,0.087-2.384,0.571-2.511,0.361c-0.14-0.176,0.868-1.106,2.451-1.217                   C158.737,444.088,159.865,444.858,159.751,445.053z"/>
																</g>
															</g>
														</g>
													</g>
												</g>
											</g>
										</g>
									</g>
								</g>
							</g>
						</g>
					</g>
				</g>
			</g>
			<g>
				<g>
					<g>
						<g>
							<path style="fill:#263238;" d="M160.023,452.884c0.036,0.005,0.161-0.507,0.105-1.454c-0.07-0.933-0.361-2.328-1.297-3.751         c-0.473-0.701-1.092-1.403-1.915-1.975c-0.398-0.273-1.018-0.572-1.653-0.284c-0.595,0.28-0.931,0.932-0.964,1.567         c0.063,2.449,1.857,4.708,4.302,5.567c2.509,0.861,5.161-0.202,6.613-1.924c0.356-0.439,0.699-0.884,0.878-1.469         c0.083-0.286,0.123-0.623,0.007-0.952c-0.111-0.323-0.373-0.581-0.666-0.688c-0.591-0.198-1.093-0.024-1.526,0.147         c-0.425,0.2-0.79,0.407-1.139,0.636c-1.389,0.907-2.275,1.955-2.799,2.715c-0.526,0.767-0.708,1.255-0.675,1.275         c0.11,0.11,1.013-1.879,3.728-3.551c0.655-0.368,1.514-0.897,2.206-0.661c0.303,0.122,0.424,0.472,0.279,0.889         c-0.128,0.41-0.442,0.826-0.77,1.212c-1.325,1.522-3.72,2.447-5.92,1.683c-2.173-0.716-3.811-2.88-3.876-4.836         c0.011-0.453,0.25-0.869,0.577-1.03c0.313-0.164,0.725-0.026,1.091,0.212c0.752,0.493,1.359,1.131,1.823,1.767         c0.926,1.295,1.28,2.596,1.428,3.486C159.994,452.364,159.964,452.881,160.023,452.884z"/>
						</g>
					</g>
				</g>
			</g>
		</g>
		<g>
			<g>
				<g>
					<g>
						<g>
							<g>
								<g>
									<g>
										<polygon style="fill:#455A64;" points="115.746,443.457 115.746,451.141 115.191,464.952 96.836,465.39 96.182,451.141             96.72,442.459           "/>
									</g>
								</g>
							</g>
						</g>
					</g>
				</g>
			</g>
			<g>
				<g>
					<g>
						<g>
							<g>
								<g>
									<g>
										<g>
											<path style="fill:#263238;" d="M106.116,463.911c-0.112,0.005,0.153-4.219,0.59-9.435             c0.437-5.217,0.883-9.45,0.994-9.456c0.112-0.005-0.153,4.218-0.59,9.435             C106.673,459.672,106.228,463.906,106.116,463.911z"/>
										</g>
									</g>
								</g>
							</g>
						</g>
					</g>
				</g>
			</g>
			<g>
				<g>
					<g>
						<g>
							<g>
								<g>
									<g>
										<polygon style="fill:#263238;" points="115.265,462.652 96.72,462.863 96.72,465.39 115.277,465.368           "/>
									</g>
								</g>
							</g>
						</g>
					</g>
				</g>
			</g>
			<g>
				<g>
					<g>
						<g>
							<g>
								<g>
									<g>
										<g>
											<path style="fill:#263238;" d="M96.766,454.713c-0.028-0.021,0.129-0.286,0.469-0.729c0.34-0.442,0.881-1.05,1.636-1.716             c0.756-0.662,1.738-1.381,2.964-1.951c1.214-0.578,2.696-0.986,4.278-0.972c3.175,0.004,5.845,1.527,7.16,3.046             c0.683,0.749,1.104,1.454,1.344,1.956c0.236,0.506,0.323,0.802,0.292,0.814c-0.1,0.055-0.543-1.124-1.922-2.506             c-1.335-1.387-3.868-2.759-6.881-2.766c-3.003-0.016-5.477,1.471-6.982,2.671             C97.59,453.789,96.843,454.775,96.766,454.713z"/>
										</g>
									</g>
								</g>
							</g>
						</g>
					</g>
				</g>
			</g>
		</g>
		<g>
			<path style="fill:#263238;" d="M157.067,263.965l-2.142-3.351l-68.587,3.222c0,0-1.315,21.308-0.362,29.109     c0.306,2.505,1.719,12.202,1.719,12.202l1.693,75.158c0.645,5.964,2.262,68.697,2.262,68.697h27.185l5.543-100.561     c0.585-11.193,0.161-28.154,0.725-40.536l9.338,37.934l6.954,23.341c0,0-1.5,11.578-3.144,25.361     c-2.303,19.313-2.222,53.598-2.222,53.598l27.906,0.446c0,0,3.875-35.617,6.909-56.417l2.604-24.825     c0.015-4.153-1.809-14.308-2.127-15.977L157.067,263.965z"/>
			<g>
				<path style="fill:#455A64;" d="M131.193,310.169c-0.012,0.033-0.458-0.118-1.256-0.422c-0.401-0.146-0.888-0.338-1.429-0.612      c-0.543-0.269-1.183-0.538-1.835-0.938c-0.665-0.376-1.395-0.789-2.13-1.309c-0.762-0.481-1.514-1.08-2.312-1.703      c-1.556-1.291-3.171-2.836-4.652-4.647c-1.467-1.822-2.661-3.711-3.607-5.5c-0.435-0.914-0.879-1.768-1.187-2.616      c-0.353-0.828-0.614-1.625-0.836-2.357c-0.251-0.723-0.385-1.403-0.529-1.992c-0.152-0.588-0.239-1.103-0.292-1.527      c-0.124-0.845-0.175-1.312-0.14-1.317c0.107-0.019,0.346,1.858,1.305,4.726c0.24,0.717,0.517,1.495,0.883,2.306      c0.32,0.829,0.772,1.664,1.212,2.559c0.955,1.751,2.142,3.603,3.586,5.397c1.458,1.783,3.038,3.314,4.555,4.607      c0.779,0.623,1.511,1.227,2.253,1.716c0.715,0.529,1.424,0.954,2.071,1.346C129.457,309.426,131.235,310.07,131.193,310.169z"/>
			</g>
			<g>
				<path style="fill:#455A64;" d="M157.68,280.305c0.006,0.05-0.901,0.207-2.371,0.07c-1.464-0.133-3.484-0.645-5.449-1.772      c-1.963-1.131-3.422-2.622-4.262-3.83c-0.85-1.209-1.155-2.078-1.109-2.097c0.08-0.042,0.497,0.76,1.396,1.879      c0.891,1.121,2.334,2.513,4.229,3.606c1.897,1.088,3.826,1.636,5.241,1.856C156.774,280.241,157.677,280.215,157.68,280.305z"/>
			</g>
		</g>
		<g>
			<path style="fill:#FFBE9D;" d="M214.765,169.572c0,0,2.167-4.924,2.923-5.923c0.755-0.999,4.114-4.837,4.114-4.837     s6.748-3.126,7.85-2.812c1.102,0.314,1.867,0.781,1.867,0.781l9.431-6.599c0,0,2.212-1.159,3.066,0.156     c0.855,1.316-0.323,2.312-0.827,2.926c-0.504,0.614-7.336,6.47-7.336,6.47l-0.251,0.461c0,0,2.543,0.785,2.552,2.173     c0.009,1.388-0.912,2.926-0.912,2.926s1.275,0.932,0.779,2.626c-0.497,1.694-0.497,1.694-0.497,1.694s1.53,1.011,1.287,2.706     c-0.243,1.695-4.285,4.605-4.285,4.605s-7.339,3.277-8.861,3.424c-1.522,0.146-4.988,1.016-4.988,1.016L214.765,169.572z"/>
			<g>
				<path style="fill:#EB996E;" d="M233.551,155.345c0.037,0.057-0.607,0.574-1.695,1.355c-1.102,0.756-2.601,1.86-4.546,2.644      c-1.957,0.689-3.751,1.046-4.867,1.744c-1.143,0.643-1.569,1.381-1.636,1.333c-0.06-0.012,0.28-0.871,1.446-1.639      c1.132-0.817,3.001-1.251,4.877-1.915c1.844-0.74,3.386-1.792,4.527-2.467C232.792,155.698,233.512,155.284,233.551,155.345z"/>
			</g>
			<g>
				<path style="fill:#EB996E;" d="M235.791,159.897c0.062,0.029-0.007,0.272-0.267,0.513c-0.253,0.242-0.652,0.494-1.109,0.706      c-0.921,0.417-1.688,0.625-1.749,0.512c-0.072-0.135,0.641-0.57,1.533-0.973c0.445-0.206,0.837-0.391,1.112-0.534      C235.586,159.981,235.725,159.861,235.791,159.897z"/>
			</g>
			<g>
				<path style="fill:#EB996E;" d="M237.291,165.035c0.102,0.094-0.206,0.592-0.751,1.043c-0.544,0.452-1.09,0.663-1.164,0.546      c-0.076-0.12,0.323-0.509,0.838-0.938C236.731,165.258,237.187,164.938,237.291,165.035z"/>
			</g>
			<g>
				<path style="fill:#EB996E;" d="M237.8,169.28c0.128,0.045-0.062,0.766-0.746,1.32c-0.68,0.559-1.425,0.601-1.443,0.466      c-0.033-0.142,0.548-0.384,1.121-0.861C237.314,169.74,237.668,169.219,237.8,169.28z"/>
			</g>
			<polygon style="fill:#FFBE9D;" points="215.088,168.555 202.458,176.723 207.467,192.977 223.534,179.607 222.559,172.355    "/>
		</g>
		<g>
			<g>
				<g>
					<g>
						<g>
							<g>
								<g>
									<g>
										<g>
											<g>
												<g>
													<g>
														<g>
															<g>
																<g>
																	<g>
																		<g>
																			<g>
																				<g>
																					<g>
																						<path style="fill:#FFBE9D;" d="M109.664,103.767l-0.546,43.97c-0.093,7.477,1.298,18.481,13.127,18.088l0,0                        c10.237-1.114,12.953-10.805,13.033-17.784c0.038-3.31,0.076-6.07,0.102-6.41c0,0,11.207-0.914,12.153-11.983                        c0.457-5.349,0.501-16.443,0.425-26.48c-0.081-10.78-8.441-19.684-19.192-20.469l-1.069-0.078                        C116.122,82.453,109.512,92.19,109.664,103.767z"/>
																					</g>
																				</g>
																			</g>
																		</g>
																	</g>
																</g>
															</g>
														</g>
													</g>
												</g>
											</g>
										</g>
									</g>
								</g>
							</g>
							<g>
								<g>
									<g>
										<g>
											<g>
												<g>
													<g>
														<g>
															<g>
																<g>
																	<g>
																		<g>
																			<g>
																				<g>
																					<g>
																						<path style="fill:#EB996E;" d="M135.38,141.632c0,0-7.013-0.101-14.113-5.318c0,0,2.928,8.349,14.056,8.159                        L135.38,141.632z"/>
																					</g>
																				</g>
																			</g>
																		</g>
																	</g>
																</g>
															</g>
														</g>
													</g>
												</g>
											</g>
										</g>
									</g>
								</g>
							</g>
						</g>
					</g>
				</g>
				<g>
					<g>
						<g>
							<g>
								<g>
									<g>
										<g>
											<g>
												<g>
													<g>
														<g>
															<g>
																<g>
																	<g>
																		<g>
																			<g>
																				<g>
																					<g>
																						<g>
																							<g>
																								<g>
																									<g>
																										<path style="fill:#263238;" d="M129.034,107.705c-0.22,0.224-1.498-0.805-3.353-0.855                            c-1.852-0.077-3.239,0.86-3.434,0.621c-0.096-0.106,0.133-0.515,0.738-0.94                            c0.596-0.423,1.602-0.822,2.757-0.782c1.155,0.041,2.114,0.505,2.66,0.968                            C128.96,107.183,129.142,107.605,129.034,107.705z"/>
																									</g>
																								</g>
																							</g>
																						</g>
																					</g>
																				</g>
																			</g>
																		</g>
																	</g>
																</g>
															</g>
														</g>
													</g>
												</g>
											</g>
										</g>
									</g>
									<g>
										<g>
											<g>
												<g>
													<g>
														<g>
															<g>
																<g>
																	<g>
																		<g>
																			<g>
																				<g>
																					<g>
																						<g>
																							<g>
																								<g>
																									<path style="fill:#263238;" d="M128.978,111.541c-0.03,0.792-0.725,1.42-1.553,1.404                           c-0.826-0.016-1.474-0.67-1.444-1.462c0.03-0.792,0.725-1.421,1.552-1.406                           C128.361,110.093,129.008,110.748,128.978,111.541z"/>
																								</g>
																							</g>
																						</g>
																					</g>
																				</g>
																			</g>
																		</g>
																	</g>
																</g>
															</g>
														</g>
													</g>
												</g>
											</g>
										</g>
									</g>
									<g>
										<g>
											<g>
												<g>
													<g>
														<g>
															<g>
																<g>
																	<g>
																		<g>
																			<g>
																				<g>
																					<g>
																						<g>
																							<g>
																								<g>
																									<path style="fill:#263238;" d="M133.679,120.605c-0.001-0.097,1.071-0.203,2.802-0.297                           c0.438-0.013,0.856-0.069,0.951-0.361c0.125-0.307-0.022-0.789-0.196-1.31                           c-0.332-1.082-0.679-2.216-1.044-3.404c-1.441-4.844-2.451-8.813-2.255-8.87                           c0.196-0.056,1.523,3.824,2.964,8.668c0.345,1.194,0.675,2.332,0.989,3.42                           c0.128,0.506,0.37,1.087,0.101,1.723c-0.141,0.316-0.477,0.529-0.761,0.583                           c-0.285,0.065-0.53,0.052-0.746,0.049C134.75,120.773,133.679,120.702,133.679,120.605z"/>
																								</g>
																							</g>
																						</g>
																					</g>
																				</g>
																			</g>
																		</g>
																	</g>
																</g>
															</g>
														</g>
													</g>
												</g>
											</g>
										</g>
									</g>
								</g>
							</g>
						</g>
						<g>
							<g>
								<g>
									<g>
										<g>
											<g>
												<g>
													<g>
														<g>
															<g>
																<g>
																	<g>
																		<g>
																			<g>
																				<g>
																					<path style="fill:#263238;" d="M128.245,100.732c-0.179,0.411-1.664,0.102-3.442,0.193                       c-1.78,0.054-3.239,0.483-3.445,0.088c-0.091-0.189,0.186-0.568,0.79-0.935                       c0.599-0.366,1.536-0.688,2.603-0.732c1.066-0.042,2.022,0.202,2.644,0.519                       C128.022,100.181,128.323,100.537,128.245,100.732z"/>
																				</g>
																			</g>
																		</g>
																	</g>
																</g>
															</g>
														</g>
													</g>
												</g>
											</g>
										</g>
									</g>
								</g>
							</g>
						</g>
						<g>
							<g>
								<g>
									<g>
										<g>
											<g>
												<g>
													<g>
														<g>
															<g>
																<g>
																	<g>
																		<g>
																			<g>
																				<g>
																					<path style="fill:#263238;" d="M145.858,104.169c-0.194,0.335-1.642-0.037-3.395-0.091                       c-1.754-0.086-3.209,0.17-3.394-0.18c-0.081-0.167,0.208-0.468,0.819-0.734                       c0.606-0.266,1.542-0.47,2.594-0.429c1.051,0.043,1.981,0.321,2.579,0.635                       C145.663,103.685,145.944,104.008,145.858,104.169z"/>
																				</g>
																			</g>
																		</g>
																	</g>
																</g>
															</g>
														</g>
													</g>
												</g>
											</g>
										</g>
									</g>
								</g>
							</g>
						</g>
					</g>
				</g>
				<g>
					<g>
						<g>
							<g>
								<g>
									<g>
										<g>
											<g>
												<g>
													<g>
														<g>
															<g>
																<g>
																	<path style="fill:#FFBE9D;" d="M109.97,112.036c-0.183-0.096-7.448-2.807-7.759,4.784                   c-0.311,7.592,7.375,6.338,7.397,6.121S109.97,112.036,109.97,112.036z"/>
																</g>
															</g>
														</g>
													</g>
												</g>
											</g>
										</g>
									</g>
								</g>
							</g>
						</g>
					</g>
				</g>
				<g>
					<g>
						<g>
							<g>
								<g>
									<g>
										<g>
											<g>
												<g>
													<g>
														<g>
															<g>
																<g>
																	<g>
																		<path style="fill:#EB996E;" d="M107.407,119.97c-0.033-0.026-0.136,0.087-0.364,0.18                    c-0.222,0.091-0.6,0.144-0.99-0.02c-0.79-0.327-1.413-1.628-1.394-2.998c0.009-0.691,0.181-1.344,0.448-1.878                    c0.255-0.546,0.63-0.919,1.037-0.974c0.405-0.076,0.682,0.177,0.765,0.394c0.093,0.216,0.039,0.366,0.078,0.381                    c0.021,0.02,0.168-0.12,0.12-0.437c-0.025-0.152-0.107-0.335-0.279-0.488c-0.176-0.155-0.441-0.242-0.723-0.223                    c-0.587,0.017-1.136,0.534-1.43,1.12c-0.326,0.588-0.535,1.321-0.545,2.097c-0.014,1.532,0.711,2.995,1.795,3.358                    c0.529,0.161,0.98,0.019,1.218-0.151C107.385,120.153,107.432,119.985,107.407,119.97z"/>
																	</g>
																</g>
															</g>
														</g>
													</g>
												</g>
											</g>
										</g>
									</g>
								</g>
							</g>
						</g>
					</g>
				</g>
				<g>
					<path style="fill:#263238;" d="M131.888,125.862c0.083-0.192-1.405-0.637-2.45-2.033c-0.523-0.687-0.824-1.436-1.051-1.983       c-0.221-0.551-0.389-0.897-0.471-0.872c-0.077,0.024-0.058,0.397,0.064,0.997c0.127,0.593,0.385,1.441,0.977,2.221       c0.583,0.788,1.365,1.259,1.939,1.485C131.476,125.912,131.868,125.926,131.888,125.862z"/>
				</g>
				<g>
					<g>
						<g>
							<g>
								<g>
									<g>
										<g>
											<g>
												<g>
													<path style="fill:#263238;" d="M145.941,108.403c-0.22,0.224-1.498-0.805-3.353-0.855               c-1.852-0.077-3.239,0.86-3.434,0.621c-0.096-0.106,0.133-0.515,0.737-0.94c0.596-0.423,1.602-0.822,2.757-0.782               c1.155,0.041,2.114,0.505,2.661,0.968C145.867,107.881,146.048,108.303,145.941,108.403z"/>
												</g>
											</g>
										</g>
									</g>
								</g>
							</g>
						</g>
					</g>
				</g>
				<g>
					<g>
						<g>
							<g>
								<g>
									<g>
										<g>
											<g>
												<path style="fill:#263238;" d="M145.636,112.079c-0.03,0.792-0.725,1.42-1.553,1.405              c-0.826-0.016-1.474-0.67-1.444-1.462c0.03-0.792,0.725-1.421,1.552-1.406              C145.019,110.632,145.666,111.287,145.636,112.079z"/>
											</g>
										</g>
									</g>
								</g>
							</g>
						</g>
					</g>
				</g>
			</g>
			<g>
				<path style="fill:#263238;" d="M155.68,88.47c-1.425-2.492-4.873-3.583-7.471-2.364c0.683-3.485-1.197-7.314-4.372-8.906      s-7.368-0.807-9.752,1.826c-0.15-0.944-0.815-1.752-1.633-2.246c-0.818-0.495-1.775-0.71-2.725-0.813      c-2.956-0.321-6.016,0.401-8.516,2.011c-1.31,0.844-2.456,1.933-3.39,3.18c-4.39-0.516-9.046,1.091-12.021,4.386      c-3.566,3.95-4.238,13.106-0.332,21.014l0.92,4.959c1.225-0.003,2.346,0.084,3.101,0.763c1.026,0.923,1.485,2.658,3.19,2      c0.868-0.336,1.66-2.156,1.95-3.04c1.927-5.867,2.567-12.151,1.871-18.286c1.213-1.294,2.678-2.351,4.288-3.095l-0.131,0.118      c3.093-1.075,6.593-2.132,9.528-0.679c2.277,1.127,3.615,3.489,5.317,5.374c3.226,3.573,7.577,5.514,12.386,5.721      c0.164,3.117-0.098,7.522,0.065,10.639l2.622-4.993l0.002,0.025c0.215-0.365,0.392-0.734,0.564-1.103l0.059-0.112l0-0.014      c0.001-0.001,0.001-0.003,0.002-0.004c0.48-0.39,0.843-1.103,1.653-2.031c1.566-1.794,2-4.498,1.074-6.691      C156.297,94.486,157.105,90.962,155.68,88.47z"/>
				<polygon style="fill:#263238;" points="152.106,103.088 152.096,103.079 152.096,103.079     "/>
			</g>
			<g>
				<path style="fill:#455A64;" d="M151.142,88.584c0.008-0.002,0.026,0.054,0.055,0.163c0.031,0.109,0.06,0.275,0.07,0.491      c0.022,0.428-0.048,1.086-0.442,1.779c-0.197,0.343-0.475,0.69-0.848,0.982c-0.374,0.286-0.851,0.511-1.384,0.59      c-1.05,0.172-2.351-0.183-3.165-1.191l0.188-0.162c0.359,0.385,0.556,0.939,0.535,1.488c-0.02,0.739-0.341,1.436-0.848,1.913      c-0.517,0.474-1.175,0.701-1.795,0.764c-1.262,0.123-2.357-0.349-3.121-0.858c-0.776-0.517-1.307-1.052-1.668-1.418      c-0.359-0.371-0.543-0.588-0.531-0.599c0.013-0.013,0.221,0.182,0.599,0.529c0.38,0.343,0.926,0.853,1.696,1.338      c0.758,0.48,1.814,0.906,3.001,0.778c0.581-0.063,1.191-0.284,1.652-0.713c0.455-0.43,0.749-1.073,0.766-1.739      c0.019-0.497-0.156-0.977-0.465-1.313l0.188-0.162c0.74,0.927,1.954,1.277,2.936,1.128c1.01-0.135,1.742-0.798,2.123-1.439      c0.394-0.65,0.489-1.278,0.494-1.694C151.181,88.818,151.119,88.589,151.142,88.584z"/>
			</g>
			<g>
				<path style="fill:#455A64;" d="M141.643,80.264c0.004-0.007,0.06,0.018,0.163,0.073c0.101,0.058,0.249,0.147,0.423,0.286      c0.344,0.273,0.831,0.736,1.145,1.487c0.317,0.732,0.357,1.821-0.261,2.735c-0.301,0.448-0.792,0.829-1.383,0.95      c-0.581,0.122-1.241,0.029-1.769-0.343c-0.166-0.119-0.307-0.268-0.421-0.419l0.217-0.123c0.242,0.568,0.177,1.2-0.057,1.706      c-0.23,0.513-0.646,0.911-1.104,1.131c-0.933,0.448-1.915,0.302-2.586-0.005c-0.686-0.313-1.123-0.746-1.393-1.051      c-0.27-0.311-0.38-0.509-0.369-0.517c0.016-0.012,0.152,0.167,0.438,0.452c0.286,0.28,0.73,0.68,1.393,0.957      c0.646,0.273,1.571,0.383,2.417-0.039c0.416-0.208,0.779-0.564,0.984-1.029c0.208-0.458,0.258-1.019,0.048-1.506l-0.401-0.932      l0.618,0.809c0.099,0.129,0.219,0.257,0.363,0.361c0.458,0.324,1.051,0.413,1.572,0.306c0.526-0.105,0.962-0.435,1.244-0.841      c0.575-0.828,0.565-1.839,0.286-2.538c-0.275-0.719-0.725-1.188-1.042-1.477C141.843,80.407,141.63,80.284,141.643,80.264z"/>
			</g>
		</g>
		<g>
			<g>
				<g>
					<g>
						<path style="fill:#713abe;" d="M79.162,172.102c0,0-8.179,46.454-7.784,50.798c0.395,4.344,2.57,11.254,7.504,12.439        c4.934,1.185,9.475,0,9.475,0l-5.923-57.059L79.162,172.102z"/>
					</g>
					<path style="fill:#713abe;" d="M156.691,243.665l-1.506-21.113l0.449-28.406l-7.008-42.079l-9.665-1.982l-1.282-5.036       c0,0-7.892-5.827-20.908-5.995c-4.004-0.052-9.668,1.522-12.833,3.977l-0.828,5.11c0,0-9.789,6.958-11.952,9.004       c-9.049,8.559-10.943,12.061-11.996,14.957c-1.053,2.896,6.282,70.154,6.282,70.154l-0.976,12.121l-1.497,8.091       c-0.707,3.029,0.706,7.467,3.814,7.598h69.975C159.924,270.138,157.295,246.771,156.691,243.665z"/>
					<path style="fill:#713abe;" d="M204.963,171.886l-16.479,10.175c-3.053-2.667-4.031,0.516-4.031,0.516       s-15.611-11.843-22.083-18.306c-7.233-7.225-12.13-11.579-14.356-11.75c-0.638-0.049-10.874,1.648-10.874,1.648       s0,0-3.009,10.328c-3.009,10.329,10.038,28.096,10.038,28.096l16.376,8.305c1.594,1.45,10.099,6.572,18.746,9.966       c4.695,1.843,10.03,0.878,13.838-2.43l24.281-21.144C213.343,176.348,204.963,171.886,204.963,171.886z"/>
					<g>
						<g>
							<path style="fill:#263238;" d="M138.962,150.085c-0.003,0.01-0.128-0.016-0.362-0.074c-0.264-0.07-0.602-0.159-1.019-0.269         c-0.887-0.225-2.174-0.535-3.782-0.838c-3.21-0.632-7.699-1.228-12.68-1.563c-4.984-0.303-9.515-0.275-12.771,0.038         c-1.629,0.14-2.938,0.343-3.837,0.506c-0.423,0.084-0.766,0.151-1.034,0.204c-0.237,0.044-0.364,0.062-0.366,0.051         c-0.003-0.01,0.118-0.048,0.351-0.111c0.265-0.067,0.605-0.154,1.025-0.261c0.895-0.199,2.206-0.436,3.839-0.604         c3.265-0.369,7.813-0.432,12.811-0.127c4.995,0.336,9.493,0.968,12.703,1.656c1.607,0.332,2.892,0.674,3.771,0.935         c0.412,0.133,0.745,0.24,1.006,0.324C138.846,150.03,138.965,150.075,138.962,150.085z"/>
						</g>
					</g>
					<g style="opacity:0.3;">
						<g>
							<path d="M103.337,148.082c10.753,1.903,21.651,0.018,33.03,1.364C125.38,147.171,113.938,146.093,103.337,148.082" fill="#000000"/>
						</g>
					</g>
					<g style="opacity:0.3;">
						<g>
							<path d="M84.469,235.426c-6.048-14.164-5.332-30.175-4.512-45.554L84.469,235.426z" fill="#000000"/>
						</g>
					</g>
					<g>
						<g>
							<path style="fill:#263238;" d="M79.862,182.154c0.005,0,0.015,0.055,0.028,0.164c0.014,0.124,0.031,0.284,0.053,0.484         c0.041,0.445,0.1,1.068,0.174,1.862c0.141,1.637,0.341,3.973,0.589,6.852c0.488,5.786,1.152,13.78,1.959,22.603         c0.81,8.826,1.637,16.808,2.312,22.578c0.331,2.886,0.62,5.219,0.823,6.831c0.096,0.792,0.172,1.414,0.226,1.857         c0.021,0.2,0.038,0.36,0.051,0.484c0.01,0.109,0.012,0.166,0.007,0.166s-0.018-0.055-0.038-0.163         c-0.021-0.123-0.048-0.282-0.081-0.481c-0.068-0.442-0.162-1.062-0.283-1.851c-0.239-1.608-0.56-3.939-0.919-6.823         c-0.73-5.767-1.59-13.749-2.401-22.577c-0.808-8.825-1.438-16.822-1.871-22.612c-0.207-2.881-0.375-5.219-0.493-6.858         c-0.05-0.795-0.089-1.42-0.117-1.866c-0.009-0.201-0.017-0.361-0.023-0.486C79.856,182.21,79.857,182.154,79.862,182.154z"/>
						</g>
					</g>
					<g>
						<g>
							<path style="fill:#263238;" d="M125.677,174.629c0,0.01-0.153,0.018-0.443,0.024c-0.319,0.002-0.741,0.005-1.269,0.009         c-1.101-0.004-2.695,0.012-4.663,0.058c-3.936,0.089-9.372,0.377-15.337,1.084c-5.966,0.714-11.319,1.709-15.165,2.546         c-1.924,0.417-3.477,0.775-4.546,1.038c-0.514,0.12-0.924,0.217-1.235,0.289c-0.283,0.063-0.433,0.091-0.436,0.081         s0.142-0.058,0.42-0.14c0.307-0.087,0.714-0.201,1.222-0.344c1.061-0.298,2.608-0.689,4.529-1.133         c3.84-0.892,9.198-1.923,15.176-2.638c5.977-0.708,11.427-0.963,15.369-0.997c1.971-0.019,3.567-0.002,4.669,0.038         c0.527,0.02,0.949,0.036,1.268,0.048C125.525,174.606,125.677,174.619,125.677,174.629z"/>
						</g>
					</g>
					<g>
						<g>
							<path style="fill:#263238;" d="M99.294,189.671c-0.084-0.003,0.074-6.436,0.353-14.367c0.279-7.933,0.572-14.36,0.656-14.357         c0.084,0.003-0.074,6.435-0.353,14.368C99.671,183.246,99.377,189.674,99.294,189.671z"/>
						</g>
					</g>
					<g>
						<g>
							<path style="fill:#263238;" d="M145.943,191.07c-0.009,0.007-0.128-0.116-0.346-0.355c-0.234-0.263-0.548-0.614-0.941-1.055         c-0.839-0.94-2.017-2.259-3.464-3.879c-1.433-1.656-3.15-3.653-4.542-6.164c-0.683-1.257-1.28-2.637-1.701-4.123         c-0.401-1.491-0.635-3.073-0.729-4.704c-0.153-3.252,0.159-6.42,1.186-9.149c0.503-1.363,1.183-2.605,1.98-3.675         c0.8-1.069,1.721-1.955,2.643-2.669c1.858-1.431,3.736-2.123,5.046-2.38c1.319-0.266,2.064-0.209,2.064-0.209         c0.003,0.04-0.744,0.027-2.036,0.324c-1.285,0.289-3.114,1-4.92,2.425c-0.897,0.712-1.79,1.59-2.565,2.644         c-0.771,1.054-1.43,2.276-1.916,3.62c-0.995,2.688-1.296,5.817-1.144,9.046c0.093,1.613,0.321,3.174,0.712,4.645         c0.411,1.466,0.993,2.828,1.66,4.074c1.359,2.488,3.045,4.49,4.451,6.16c1.411,1.645,2.56,2.985,3.378,3.94         c0.373,0.456,0.669,0.82,0.891,1.091C145.852,190.928,145.952,191.063,145.943,191.07z"/>
						</g>
					</g>
					<g style="opacity:0.3;">
						<g>
							<path d="M83.694,179.722c4.34-0.224,8.661-0.794,12.91-1.703c-0.525,1.875-0.77,3.829-0.723,5.776         c1.345-1.51,2.335-3.333,2.87-5.283c0.298,2.124,1.506,4.105,3.257,5.344c0.429-1.926,0.528-3.926,0.29-5.885         c6.424-0.774,12.813-1.832,19.144-3.168c-12.81-0.314-25.665,1.287-38.006,4.732" fill="#000000"/>
						</g>
					</g>
				</g>
			</g>
			<g>
				<path style="fill:#263238;" d="M217.119,187.87c0.011,0.014-0.192,0.206-0.589,0.56c-0.435,0.38-1.019,0.889-1.752,1.529      c-1.575,1.344-3.787,3.232-6.504,5.55c-2.769,2.339-6.049,5.109-9.686,8.182c-1.819,1.538-3.661,3.233-5.681,4.886      c-0.998,0.831-2.124,1.609-3.319,2.232c-0.594,0.324-1.207,0.628-1.85,0.889c-0.647,0.252-1.305,0.503-2.08,0.515      c-0.151-0.014-0.257,0-0.472-0.101l0.2,0.029c-1.411,0.333-2.819,0.169-4.132-0.117c-1.32-0.289-2.578-0.707-3.79-1.168      c-2.418-0.939-4.657-2.044-6.751-3.158c-4.181-2.243-7.79-4.523-10.786-6.478c-2.993-1.961-5.365-3.619-6.992-4.779      c-0.779-0.566-1.398-1.017-1.861-1.353c-0.421-0.315-0.637-0.488-0.627-0.502c0.01-0.014,0.246,0.13,0.686,0.419      c0.476,0.317,1.114,0.741,1.915,1.274c1.661,1.109,4.061,2.721,7.074,4.64c3.016,1.913,6.637,4.156,10.81,6.365      c2.089,1.096,4.319,2.185,6.71,3.106c1.197,0.451,2.436,0.859,3.719,1.138c1.275,0.279,2.627,0.42,3.893,0.12l0.2,0.029      c-0.012-0.007,0.128,0.028,0.217,0.024c0.609-0.005,1.267-0.234,1.877-0.478c0.617-0.249,1.217-0.545,1.8-0.863      c1.187-0.618,2.244-1.347,3.246-2.174c2.004-1.631,3.858-3.322,5.692-4.856c3.664-3.042,6.968-5.784,9.758-8.1      c2.76-2.267,5.008-4.112,6.608-5.426c0.759-0.609,1.362-1.094,1.813-1.455C216.883,188.023,217.108,187.857,217.119,187.87z"/>
			</g>
		</g>
	</g>
</g>
</svg>