<svg xmlns="http://www.w3.org/2000/svg" xmlns:xlink="http://www.w3.org/1999/xlink" version="1.1" x="0px" y="0px" viewBox="0 0 750 500" style="enable-background:new 0 0 750 500;" xml:space="preserve">
<g id="BACKGROUND">
</g>
<g id="OBJECTS">
	<g>
		<g>
			<path style="opacity:0.5;fill:#b15eff;" d="M533.672,165.692c-79.109,0-143.239,64.13-143.239,143.234     c0,79.109,64.13,143.24,143.239,143.24c79.106,0,143.236-64.131,143.236-143.24C676.908,229.822,612.778,165.692,533.672,165.692     z"/>
			<path style="opacity:0.5;fill:#b15eff;" d="M630.104,127.765c0,10.709-8.681,19.39-19.391,19.39     c-10.708,0-19.389-8.681-19.389-19.39c0-10.708,8.681-19.39,19.389-19.39C621.424,108.375,630.104,117.057,630.104,127.765z"/>
			<path style="fill:#b15eff;" d="M111.817,402.559c0,9.557-7.747,17.303-17.303,17.303c-9.557,0-17.303-7.746-17.303-17.303     c0-9.556,7.746-17.303,17.303-17.303C104.07,385.256,111.817,393.003,111.817,402.559z"/>
			<path style="fill:#b15eff;" d="M662.535,101.006c0,8.302-6.731,15.031-15.033,15.031c-8.302,0-15.031-6.729-15.031-15.031     c0-8.303,6.729-15.033,15.031-15.033C655.805,85.973,662.535,92.703,662.535,101.006z"/>
			<path style="opacity:0.4;fill:#b15eff;" d="M155.815,203.467c-48.275,1.277-86.374,41.448-85.096,89.72     c1.278,48.274,41.447,86.375,89.722,85.097c48.275-1.276,86.373-41.448,85.096-89.723     C244.259,240.288,204.09,202.189,155.815,203.467z"/>
			<g>
				<polygon style="fill:#713abe;" points="108.481,102.529 100.791,102.529 112.957,80.993 120.647,80.993     "/>
				<polygon style="fill:#713abe;" points="122.253,102.529 114.564,102.529 126.729,80.993 134.42,80.993     "/>
				<polygon style="fill:#713abe;" points="136.025,102.529 128.336,102.529 140.502,80.993 148.192,80.993     "/>
			</g>
			<g>
				<polygon style="fill:#713abe;" points="520.971,433.764 511.413,433.764 526.533,406.998 536.09,406.998     "/>
				<polygon style="fill:#713abe;" points="538.087,433.764 528.53,433.764 543.65,406.998 553.207,406.998     "/>
				<polygon style="fill:#713abe;" points="555.204,433.764 545.646,433.764 560.767,406.998 570.324,406.998     "/>
				<polygon style="fill:#713abe;" points="572.32,433.764 562.764,433.764 577.882,406.998 587.44,406.998     "/>
				<polygon style="fill:#713abe;" points="589.44,433.764 579.881,433.764 595.001,406.998 604.559,406.998     "/>
			</g>
			
				<rect x="74.546" y="88.291" transform="matrix(0.7071 -0.7071 0.7071 0.7071 -39.6337 87.9132)" style="fill:#713abe;" width="23.5" height="7.008"/>
			
				<rect x="82.792" y="80.045" transform="matrix(0.7071 -0.7071 0.7071 0.7071 -39.6331 87.9143)" style="fill:#713abe;" width="7.008" height="23.499"/>
			<g>
				<g>
					<path style="fill:#713abe;" d="M646.16,154.775c-1.256-1.263-3.297-1.273-4.564-0.017c-1.266,1.254-1.273,3.296-0.02,4.563       c5.516,5.558,5.476,14.569-0.082,20.081c-1.267,1.256-1.273,3.297-0.021,4.563c1.255,1.266,3.3,1.275,4.563,0.019       C654.125,175.966,654.179,162.863,646.16,154.775z"/>
					<path style="fill:#713abe;" d="M655.144,193.164c13.146-13.039,13.236-34.344,0.197-47.494       c-1.256-1.265-3.298-1.272-4.563-0.019c-1.267,1.254-1.273,3.298-0.021,4.565c10.534,10.622,10.462,27.834-0.158,38.367       c-1.266,1.255-1.274,3.298-0.018,4.563C651.834,194.411,653.877,194.419,655.144,193.164z"/>
					<path style="fill:#713abe;" d="M639.118,165.007c-2.472-2.492-6.514-2.507-9.005-0.037c-2.494,2.471-2.512,6.513-0.036,9.003       c2.472,2.493,6.51,2.51,9.002,0.039C641.573,171.54,641.589,167.5,639.118,165.007z"/>
				</g>
			</g>
			<g>
				<g>
					<g>
						<path style="fill:#713abe;" d="M116.579,126.868l-2.842-0.005l-4.075-5.763c-0.32-0.456-0.843-0.728-1.398-0.729        l-16.306-0.032c-0.559,0.001-1.082,0.269-1.406,0.723l-4.094,5.748l-2.845-0.007c-4.424-0.007-8.049,3.605-8.058,8.029        l-0.044,23.393c-0.008,4.423,3.605,8.047,8.027,8.057l32.969,0.061c4.422,0.009,8.047-3.601,8.057-8.025l0.043-23.394        C124.616,130.501,121.002,126.876,116.579,126.868z M100.037,158.227c-6.546-0.011-11.842-5.329-11.83-11.876        c0.011-6.545,5.328-11.843,11.875-11.831c6.548,0.012,11.843,5.331,11.832,11.876        C111.901,152.943,106.584,158.241,100.037,158.227z"/>
						<path style="fill:#713abe;" d="M100.076,138.54c-4.329-0.01-7.843,3.492-7.852,7.821c-0.008,4.327,3.492,7.842,7.82,7.85        c4.329,0.009,7.842-3.492,7.85-7.821C107.901,142.061,104.402,138.547,100.076,138.54z"/>
					</g>
				</g>
			</g>
			<g>
				<path style="fill:#713abe;" d="M635.165,408.721l-0.069-9.431c-0.009-0.902-0.746-1.629-1.65-1.622      c-3.495,0.024-6.307,2.88-6.281,6.377l0.034,4.519l-10.363,0.076l-1.706,0.013c-1.885,0.013-3.404,1.553-3.39,3.438      c0.009,1.297,0.75,2.402,1.815,2.975c-1.057,0.584-1.782,1.703-1.771,2.999c0.007,1.294,0.75,2.401,1.814,2.974      c-1.057,0.587-1.78,1.706-1.771,2.999c0.011,1.442,0.919,2.662,2.188,3.152c-1.261,0.51-2.151,1.743-2.141,3.189      c0.013,1.882,1.555,3.399,3.438,3.386l1.707-0.013l15.358-0.112l1.403-0.012c3.537-0.025,6.38-2.911,6.354-6.445l-0.089-12.313      C640.023,411.879,637.942,409.4,635.165,408.721z"/>
				<path style="fill:#713abe;" d="M649.705,410.955l-4.814,0.036c-1.313,0.011-2.369,1.081-2.361,2.395l0.112,15.234      c0.011,1.313,1.084,2.371,2.396,2.361l4.816-0.037c1.313-0.009,2.37-1.081,2.359-2.393l-0.113-15.237      C652.092,412.002,651.019,410.947,649.705,410.955z"/>
			</g>
		</g>
		<g>
			<rect x="167.073" y="104.605" style="fill:#b15eff;" width="431.782" height="283.293"/>
			<rect x="170.849" y="112.005" style="fill:#e2e2e2;" width="424.517" height="5.083"/>
			<rect x="485.072" y="81.35" style="fill:#0B3356;" width="89.248" height="9.313"/>
			<polygon style="fill:#0B3356;" points="598.856,99.782 590.708,84.648 176.866,84.648 168.136,92.522 168.136,112.005      598.856,112.005    "/>
			<g>
				
					<line style="fill:none;stroke:#FFFFFF;stroke-width:3;stroke-linecap:round;stroke-miterlimit:10;" x1="580.242" y1="93.78" x2="588.467" y2="102.001"/>
				
					<line style="fill:none;stroke:#FFFFFF;stroke-width:3;stroke-linecap:round;stroke-miterlimit:10;" x1="588.467" y1="93.779" x2="580.242" y2="102.001"/>
			</g>
			<g>
				<defs fill="#000000">
					<polygon id="SVGID_1_" points="601.554,24.779 169.234,24.779 167.037,387.898 599.357,387.898      " fill="#000000"/>
				</defs>
				<clipPath id="SVGID_00000039095740945622294930000009495500855084168888_" fill="#000000">
					<use xlink:href="#SVGID_1_" style="overflow:visible;" fill="#000000"/>
				</clipPath>
				<path style="opacity:0.4;clip-path:url(#SVGID_00000039095740945622294930000009495500855084168888_);fill:#9B9B9B;" d="      M548.555,262.103c-41.608,0-75.34,33.731-75.34,75.34c0,41.609,33.731,75.341,75.34,75.341      c41.611,0,75.342-33.732,75.342-75.341C623.896,295.834,590.166,262.103,548.555,262.103z M548.555,377.595      c-22.176,0-40.152-17.976-40.152-40.151c0-22.175,17.977-40.151,40.152-40.151c22.177,0,40.153,17.977,40.153,40.151      C588.708,359.619,570.731,377.595,548.555,377.595z"/>
				<path style="opacity:0.4;clip-path:url(#SVGID_00000039095740945622294930000009495500855084168888_);fill:#9B9B9B;" d="      M478.482,128.794c-25.569,0-46.297,20.727-46.297,46.296c0,25.569,20.728,46.297,46.297,46.297      c25.567,0,46.296-20.727,46.296-46.297C524.778,149.521,504.05,128.794,478.482,128.794z M478.482,199.763      c-13.627,0-24.673-11.046-24.673-24.673c0-13.626,11.046-24.672,24.673-24.672c13.626,0,24.673,11.046,24.673,24.672      C503.155,188.717,492.108,199.763,478.482,199.763z"/>
				<path style="opacity:0.4;clip-path:url(#SVGID_00000039095740945622294930000009495500855084168888_);fill:#9B9B9B;" d="      M158.544,194.742c-28.29,0-51.223,22.933-51.223,51.221c0,28.29,22.934,51.223,51.223,51.223      c28.29,0,51.223-22.933,51.223-51.223C209.767,217.674,186.834,194.742,158.544,194.742z M158.544,273.262      c-15.077,0-27.299-12.223-27.299-27.299c0-15.076,12.222-27.298,27.299-27.298c15.077,0,27.298,12.222,27.298,27.298      C185.842,261.039,173.621,273.262,158.544,273.262z"/>
				<path style="opacity:0.4;clip-path:url(#SVGID_00000039095740945622294930000009495500855084168888_);fill:#9B9B9B;" d="      M230.813,383.243c-8.341-21.479-6.561-80.511,48.083-152.867c-10.872-40.652,4.984-105.45,33.537-118.371l49.796,1.204      c0,0,49.796,142.433,39.543,270.034H230.813z"/>
				<g style="clip-path:url(#SVGID_00000039095740945622294930000009495500855084168888_);">
					<path style="fill:#FFA383;" d="M527.063,89.555c-0.764-4.892-2.953-8.936-1.476-19.528c0.503-3.613-0.064-3.844,0.28-6.819       c0.188-1.598,1.284-3.157,1.286-4.607c0.002-4.468-0.509-4.034-0.467-6.53c0.729-5.664,10.144,3.013,6.685,14.68       c0.318,6.338,1.028,6.228,1.597,5.701c0.276-0.26,3.2-2.709,5.358-8.934c1.088-3.138,1.764-9.125,3.125-12.505       c1.421-3.519,2.15-6.943,4.016-9.781c2.146-3.265,4.041-5.215,5.875-2.852c0.565,0.727,0.284,3.342-1.239,6.737       c-1.134,2.533-1.053,3.521-2.271,6.726c-0.958,3.091-2.945,12.335-2.68,12.506c0.176,0.113,3.065-7.019,7.02-14.272       c1.45-2.663,2.627-4.447,3.457-6.113c1.42-2.842,3.697-2.942,4.301-2.318c1.306,1.352,1.161,3.248-0.473,7.188       c-0.908,2.183-2.289,4.865-3.648,7.541c-2.755,5.417-4.863,10.188-4.658,10.463c0.037,0.049,0.53,1.893,1.148,0.957       c2.262-3.419,7.542-14.436,10.449-18.25c2.11-2.765,3.444-0.779,3.332,1.598c-0.043,0.921-0.174,2.638-1.656,4.989       c-0.651,1.029-1.934,4.474-3.239,6.847c-1.675,3.042-3.905,7.113-3.845,7.305c0.014,0.045,0.505,1.149,1.148,0.063       c1.168-1.972,2.695-5.482,4.69-8.578c0.829-2.171,2.087-4.056,2.91-4.869c0.991-0.981,1.872-0.038,2.103,0.636       c0.65,1.902,0.417,2.723-0.641,5.281c-0.83,2.002-1.598,3.868-2.071,4.716c-1.009,1.806-2.558,4.731-3.416,6.514       c-1.293,2.687-2.913,5.614-3.978,8.613c-2.297,6.466-9.864,15.77-14.292,20.587c-1.009,3.811-9.857,33.009-9.857,33.009       s-21.379,1.007-19.578-4.95C518.161,125.352,524.96,97.974,527.063,89.555z"/>
					<path style="fill:#FF692E;" d="M405.299,222.356c7.569,3.244,53.465-16.796,71.575-19.229       c4.865-0.811,22.01-62.854,30.255-83.466c7.879-19.7,49.932,4.811,47.453,16.25c-2.487,11.48-38.989,101.225-46.017,110.775       c-7.029,9.551-82.081,40.012-88.534,62.089"/>
					<path style="fill:#EA4613;" d="M515.115,115.684c3.375-5.41,7.57-12.434,8.472-16.578c0.901-4.146,25.505,4.354,23.251,9.039       c-3.266,6.79-3.694,14.924-3.607,17.992C543.363,130.912,512.954,119.153,515.115,115.684z"/>
					<path style="fill:#9B9B9B;" d="M539.769,125.371c0,0,0.405-11.319,5.015-18.313"/>
					<path style="fill:#9B9B9B;" d="M536.856,123.749c0,0,0.406-11.319,5.014-18.313"/>
					<path style="fill:#9B9B9B;" d="M533.024,122.668c0,0,0.323-10.962,5.675-18.313"/>
					<path style="fill:#9B9B9B;" d="M529.824,121.374c0,0,0.434-10.958,5.859-18.256"/>
					<path style="fill:#9B9B9B;" d="M525.456,119.694c0,0,2.027-11.826,7.298-17.773"/>
					<path style="fill:#9B9B9B;" d="M522.524,118.546c0,0,2.028-11.827,7.3-17.773"/>
					<path style="fill:#9B9B9B;" d="M518.549,116.519c0,0,2.975-11.015,8.514-16.353"/>
					<path style="fill:#713abe;" d="M405.114,231.833c-5.904-14.038,7.545-88.253-5.504-116.838       c-7.971-17.455-26.822-27.933-43.333-21.227c-12.651-0.399-20.84,8.951-27.119,20.251c-11.922,21.469-0.296,45.237-7.073,51.33       c-11.143,10.018-20.04,17.688-19.723,29.286c0.47,17.196,12.945,22.651,10.272,35.483       C305.084,266.372,405.114,231.833,405.114,231.833z"/>
					<path style="fill:#e2e2e2;" d="M326.747,168.833c-3.186,14.506,5.928,21.953,7.196,29.964       c1.175,7.426-0.155,17.934-7.144,22.309l14.789-3.16l4.039-30.881l-10.573-19.205L326.747,168.833z"/>
					<path style="fill:#FF692E;" d="M376.052,216.409c17.493,7.999,44.799,26.377,49.587,41.003       c4.789,14.625-12.316,75.82-13.084,93.267c-0.77,17.446-1.216,27.548-1.634,37.037c-0.635,14.386-119.936,10.049-119.261-5.255       c0.417-9.489,0.863-19.589,1.631-37.036c0.769-17.446-10.89-79.909-4.833-94.057c6.058-14.147,34.872-30.053,53.002-36.482       L376.052,216.409z"/>
					<path style="fill:#E5886E;" d="M408.175,158.689c-1.236,6.929-7.036,15.629-12.093,12.706       c-4.072-2.357-7.423-6.133-6.194-13.062c1.235-6.932,5.034-10.189,10.624-11.062       C406.534,146.332,409.399,151.757,408.175,158.689z"/>
					<path style="fill:#FFA383;" d="M406.916,149.816c-1.049-1.433-7-2.439-8.959,2.723l0.861-4.913c0,0,1.952-0.82,4.232-0.353       C405.984,147.879,406.916,149.816,406.916,149.816z"/>
					<path style="fill:#E5886E;" d="M318.224,154.726c0.619,7.011,5.632,16.187,10.93,13.721c4.259-1.991,7.93-5.456,7.315-12.467       c-0.621-7.014-4.118-10.593-9.608-11.953C320.945,142.561,317.608,147.713,318.224,154.726z"/>
					<path style="fill:#FFA383;" d="M320.256,145.999c1.181-1.335,7.192-1.814,8.69,3.499l-0.424-4.971c0,0-1.88-0.988-4.188-0.723       C321.353,144.151,320.256,145.999,320.256,145.999z"/>
					<path style="fill:#FFA383;" d="M338.831,188.141c1.859,7.725-1.942,24.72-2.639,28.978c-1.592,0.592-12.245,5.407-12.245,5.407       c-3.036,10.495,5.629,18.911,13.732,29.958c9.168,12.502,19.729,30.602,18.949,44.674l3.377,0.149       c7.699-29.277,26.639-65.173,22.208-77.809c-0.543-1.665-3.573-16.119-0.366-28.535L338.831,188.141z"/>
					<path style="fill:#E5886E;" d="M339.301,192.673c0,0,0.216,2.704-0.272,7.319c0,0,11.811,15.308,20.71,15.699       c8.91,0.393,20.88-12.743,20.88-12.743s0.211-9.141,0.788-12.933L339.301,192.673z"/>
					<path style="fill:#FFA383;" d="M398.989,143.751c-0.855,19.405-17.279,34.447-36.684,33.592       c-19.408-0.855-34.443-17.282-33.589-36.687c1.148-26.05,17.427-37.886,36.837-37.031       C384.958,104.479,400.111,118.246,398.989,143.751z"/>
					<path style="fill:#FFA383;" d="M398.989,143.751c-0.829,18.793-1.523,34.525-9.136,44.424       c-4.59,5.961-16.261,16.046-24.496,18.368c-2.045,0.57-7.805-0.015-9.782-0.813c-7.93-3.208-17.802-13.971-21.667-20.019       c-6.712-10.532-6.019-26.262-5.191-45.056"/>
					<path style="fill:#0E263F;" d="M384.546,157.749c-0.14,3.191-2.177,5.699-4.549,5.595c-2.381-0.104-4.185-2.782-4.045-5.974       c0.141-3.198,2.174-5.704,4.553-5.6C382.88,151.874,384.685,154.551,384.546,157.749z"/>
					<path style="fill:#0E263F;" d="M351.299,156.083c-0.14,3.191-2.183,5.7-4.558,5.596c-2.372-0.105-4.181-2.783-4.042-5.975       c0.142-3.198,2.18-5.704,4.551-5.6C349.627,150.21,351.44,152.886,351.299,156.083z"/>
					<g>
						<path style="fill:#0E263F;" d="M370.398,140.886c0,0,0.373-0.159,1.033-0.35c0.659-0.194,1.602-0.421,2.741-0.584        c2.273-0.337,5.333-0.389,8.358,0.144c0.758,0.105,1.51,0.3,2.248,0.48c0.735,0.177,1.454,0.451,2.14,0.692        c0.685,0.259,1.337,0.584,1.942,0.881c0.604,0.317,1.157,0.687,1.655,1.014c0.498,0.335,0.923,0.734,1.293,1.053        c0.372,0.316,0.658,0.667,0.884,0.955c0.458,0.564,0.665,0.917,0.665,0.917c0.155,0.266,0.066,0.607-0.199,0.763        c-0.105,0.063-0.224,0.086-0.337,0.074l-0.067-0.007c0,0-0.413-0.041-1.041-0.166c-0.314-0.062-0.682-0.14-1.128-0.193        c-0.44-0.06-0.894-0.17-1.421-0.241c-0.53-0.068-1.073-0.178-1.662-0.27c-0.601-0.076-1.203-0.207-1.849-0.305        c-0.65-0.092-1.293-0.246-1.977-0.351c-0.675-0.132-1.361-0.266-2.048-0.4c-1.374-0.283-2.768-0.557-4.074-0.874        c-1.31-0.31-2.541-0.631-3.602-0.947c-2.125-0.617-3.565-1.253-3.565-1.253c-0.283-0.125-0.411-0.456-0.286-0.74        C370.161,141.042,370.272,140.939,370.398,140.886z"/>
					</g>
					<g>
						<path style="fill:#0E263F;" d="M356.83,142.565c0,0-0.357,0.135-0.972,0.329c-0.309,0.084-0.682,0.222-1.109,0.326        c-0.427,0.105-0.906,0.264-1.427,0.379c-1.042,0.266-2.249,0.525-3.528,0.789c-1.282,0.253-2.634,0.512-3.978,0.746        c-0.669,0.119-1.337,0.238-1.996,0.354c-0.655,0.114-1.292,0.236-1.924,0.321c-0.614,0.116-1.216,0.213-1.795,0.292        c-0.561,0.109-1.104,0.196-1.617,0.264c-0.494,0.095-0.955,0.178-1.383,0.233c-0.431,0.056-0.775,0.149-1.089,0.198        c-0.612,0.116-1.008,0.151-1.008,0.151l-0.085,0.008c-0.396,0.035-0.744-0.258-0.779-0.653        c-0.015-0.169,0.03-0.33,0.118-0.461c0,0,0.221-0.333,0.689-0.858c0.233-0.259,0.517-0.608,0.894-0.893        c0.366-0.312,0.792-0.662,1.281-1.005c0.494-0.31,1.043-0.633,1.638-0.958c0.599-0.286,1.243-0.561,1.918-0.832        c0.678-0.225,1.386-0.458,2.112-0.642c0.728-0.154,1.469-0.342,2.215-0.433c2.982-0.469,5.983-0.354,8.201,0.017        c1.111,0.197,2.027,0.421,2.667,0.627c0.641,0.198,1.001,0.361,1.001,0.361c0.365,0.165,0.527,0.594,0.363,0.959        C357.154,142.367,357.003,142.499,356.83,142.565z"/>
					</g>
					<path style="fill:#E5886E;" d="M356.278,175.993c2.075-0.758,9.412-0.501,11.108,0.49c1.693,0.995-3.764,1.974-5.648,1.891       C359.852,178.291,354.611,176.706,356.278,175.993z"/>
					<path style="opacity:0.5;fill:#E5886E;" d="M366.151,196.758c-3.194-0.706-8.742-0.828-11.253-0.496       c-1.811,0.24,2.373-1.394,5.644-1.25C363.533,195.145,367.867,197.214,366.151,196.758z"/>
					<path style="fill:#FFFFFF;" d="M350.898,183.5c6.761,2.338,15.095,2.315,21.533,1.835c0.796-0.06,0.444,0.061-0.343,0.968       c-1.282,1.481-5.385,6.027-10.864,5.74c-5.267-0.275-9.79-6.853-10.931-8.754C349.852,182.558,350.292,183.289,350.898,183.5z"/>
					<path style="fill:#FFA383;" d="M328.324,163.575c-2.661-1.958-4.309-4.416-2.358-7.351c0.484-0.731,1.194-1.492,2.166-2.282       c4.873-3.96,2.336,4.915,2.336,4.915L328.324,163.575z"/>
					<path style="fill:#EA4939;" d="M349.216,182.162c4.296,0.722,9.634-1.69,12.054,0.98c3.361-2.139,9.133,1.675,13.53,1.669       c0.083,0,0.218,0.158-0.085,0.249c-2.324,0.7-15.341,3.295-25.581-2.435C348.631,182.346,348.673,182.071,349.216,182.162z"/>
					<path style="fill:#EA4939;" d="M349.486,182.71c0,0,3.397,5.615,5.853,7.886c2.353,2.175,9.022,2.931,11.763,1.084       c2.482-1.668,6.653-6.629,6.653-6.629s-1.023,0.291-1.024,0.292c-2.362,1.391-3.798,2.863-6.527,3.782       c-2.74,0.922-5.583,0.962-8.258,0.112c-3.478-1.109-4.228-3.709-6.643-5.656c-0.002,0-1.183-0.711-1.183-0.711L349.486,182.71z       "/>
					<path style="fill:#e2e2e2;" d="M351.882,183.955c1.837,1.403,5.263,2.676,9.603,3.011c5.255,0.403,10.829-1.37,10.829-1.37       s-5.654,0.786-10.585,0.568C356.597,185.939,351.882,183.955,351.882,183.955z"/>
					<path style="fill:#E5886E;" d="M328.324,163.575c-0.028-10.732,3.89-25.97,10.748-32.099       c5.692-5.09,14.904-10.541,13.554-19.786c0,0-2.044,10.948,8.611,17.876c7.645,4.972,43.805,5.496,32.965,34.738l4.057-4.01       l0.579-14.925l-10.042-14.818l-37.172-25.559l-19.899,26.161l-5.059,18.246L328.324,163.575z"/>
					<path style="fill:#713abe;" d="M397.579,164.9c0.258-9.654,1.239-17.274-6.305-24.568       c-10.616-10.264-20.617-7.289-29.185-13.695c-8.06-6.027-10.909-15.017-9.594-23.588l12.817-1.265l12.982,2.401l14.715,11.703       l7.153,17.095c0,0,1.409,5.987,0.486,15.873C399.727,158.743,397.579,164.9,397.579,164.9z"/>
					<path style="fill:#713abe;" d="M354.875,103.097c-24.548,7.605-26.294,19.761-28.337,33.922       c-2.042,14.161,1.787,26.556,1.787,26.556c-0.494-6.181,0.986-29.106,13.051-37.438c12.069-8.332,11.251-14.446,11.251-14.446       L354.875,103.097z"/>
					<path style="fill:#e2e2e2;" d="M352.626,111.69c0,0-1.796-11.794,3.652-17.922c0,0-4.678,0.399-6.555,6.507       C347.978,105.943,352.626,111.69,352.626,111.69z"/>
					<path style="fill:#EA4613;" d="M318.091,225.653c-1.662,9.93,4.554,17.333,14.266,30.643       c9.716,13.309,20.367,27.35,21.157,40.725c0.91,15.368-6.117,90.354-6.117,90.354l7.162,0.314l5.447-90.382       c0.335-10.566-6.826-21.914-12.167-30.917c-5.342-9.003-18.215-24.144-20.96-29.826c-2.741-5.68-4.007-9.534-2.932-14.039       C323.948,222.525,320.197,221.263,318.091,225.653z"/>
					<path style="fill:#EA4613;" d="M359.544,295.906c1.411-5.033,6.328-18.353,8.117-22.414c1.79-4.063,4.945,3.94,4.945,3.94       s-13.12,33.19-14.065,44.189c-0.943,10.999-1.076-16.836-1.076-16.836L359.544,295.906z"/>
					<path style="fill:#EA4613;" d="M420.03,308.777c1.599-8.11,7.789-23.629,5.286-37.27c-2.502-13.641,4.344-1.628,9.03,0.475       c4.685,2.103,68.701-14.906,74.218-25.294c0,0-1.264,2.109-4.958,4.389c-7.409,4.57-21.937,12.106-37.092,20.665       C432.05,291.203,421.376,302.123,420.03,308.777z"/>
					<path style="fill:#EA4613;" d="M454.6,209.051c4.296-1.368,21.193-4.343,27.321,2.684c6.128,7.028,6.489,0.376,3.966-2.605       c-2.523-2.982-5.092-10.685-4.705-13.215c-1.726,4.167-2.685,5.773-3.797,6.943C475.435,203.805,474.49,202.544,454.6,209.051z       "/>
					<path style="fill:#EA4613;" d="M509.219,116.214c-1.532,2.232,8.563,10.457,22.799,14.965       c14.238,4.509,21.908,5.132,22.669,3.468c0,0,0.597,1.3-5.486,17.12c0,0,3.034-11.077-3.485-11.628       c-7.713-0.651-25.003-5.037-34.693-16.563c-2.171-2.582-3.826-1.517-6.974,4.443       C506.978,120.039,507.804,117.396,509.219,116.214z"/>
					<path style="fill:#EA4613;" d="M318.151,294.718c0,0-10.848,25.41-6.793,31.357c4.055,5.947,12.811,7.405,12.811,11.46       c0,4.055-9.567-0.918-9.026,3.137c0.376,2.83,29.79,28.502,36.311,38.473c2.823,4.315-0.904,15.468-0.089,17.101l-3.355-0.145       c-9.5-8.027-43.41-43.534-43.41-43.534s-9.832-35.951-8.565-38.383c1.267-2.435,8.835-21.085,9.647-22.438       C306.493,290.395,318.151,294.718,318.151,294.718z"/>
					<path style="fill:#FF692E;" d="M291.219,246.688c-10.984,8.872-55.239,83.945-49.33,108.85       c5.046,21.265,60.464,66.315,68.839,68.48c14.525,3.752,53.939-35.32,34.898-45.773c-19.04-10.453-43.031-41.085-44.191-45.049       c-1.159-3.967,19.384-44.332,19.384-44.332"/>
					<path style="fill:#EA4613;" d="M416.907,324.193c-3.914,8.91-20.153,28.102-19.061,35.129c1.092,7.028,14.357,13,13.267,24.07       C411.112,383.393,411.191,348.78,416.907,324.193z"/>
					<path style="fill:#e2e2e2;" d="M359.157,260.389c0.586,6.309,5.093,21.806,5.093,21.806l3.094-7.608       C367.344,274.586,360.373,271.022,359.157,260.389z"/>
					<path style="fill:#EA4613;" d="M364.25,282.194c6.665,5.228,34.912,9.643,45.364-6.397c10.452-16.038,6.36-29.109,6.36-29.109       l-48.63,27.898L364.25,282.194z"/>
					<path style="fill:#EA4613;" d="M241.349,347.609c0.541,7.929,75.581,77.997,89.779,68.012c0,0-11.027,9.839-20.399,8.397       c-6.128-0.722-49.725-35.574-63.427-57.433C239.366,354.458,241.077,349.293,241.349,347.609z"/>
					<g>
						<defs fill="#000000">
							<path id="SVGID_00000000221963575445976780000014937209659592815522_" d="M507.129,119.662         c-8.245,20.611-25.39,82.655-30.255,83.466c-18.11,2.432-64.006,22.472-71.575,19.229l2.328,13.663         c-10.029-8.066-22.208-15.327-31.575-19.61l-34.592-1.523c-16.153,5.727-40.774,18.978-50.239,31.805l-0.001-0.003         c-10.984,8.872-55.239,83.945-49.33,108.85c5.046,21.265,60.464,66.315,68.839,68.48c9.57,2.472,29.94-13.645,37.282-27.918         c30.71,1.474,62.584-0.968,62.911-8.384c0.418-9.489,0.864-19.591,1.634-37.037c0.344-7.853,3.999-24.565,7.478-41.907         c6.462-22.075,81.503-52.533,88.532-62.084c7.028-9.55,43.53-99.295,46.017-110.775         C557.06,124.473,515.008,99.962,507.129,119.662z" fill="#000000"/>
						</defs>
						<clipPath id="SVGID_00000133515468495100979230000002534812032107330477_" fill="#000000">
							<use xlink:href="#SVGID_00000000221963575445976780000014937209659592815522_" style="overflow:visible;" fill="#000000"/>
						</clipPath>
						<g style="clip-path:url(#SVGID_00000133515468495100979230000002534812032107330477_);">
							<path style="fill:#EDEDED;" d="M434.424,221.105c0,4.877-3.953,8.83-8.83,8.83c-4.879,0-8.83-3.953-8.83-8.83         c0-4.877,3.951-8.831,8.83-8.831C430.471,212.275,434.424,216.229,434.424,221.105z"/>
							<path style="fill:#EDEDED;" d="M460.373,248.316c0,4.876-3.953,8.831-8.83,8.831c-4.878,0-8.83-3.954-8.83-8.831         c0-4.877,3.952-8.831,8.83-8.831C456.42,239.485,460.373,243.439,460.373,248.316z"/>
							<path style="fill:#EDEDED;" d="M473.128,210.513c0,4.876-3.954,8.83-8.83,8.83c-4.878,0-8.831-3.954-8.831-8.83         c0-4.878,3.953-8.831,8.831-8.831C469.174,201.682,473.128,205.635,473.128,210.513z"/>
							<path style="fill:#EDEDED;" d="M505.019,248.316c0,4.876-3.952,8.831-8.832,8.831c-4.875,0-8.828-3.954-8.828-8.831         c0-4.877,3.953-8.831,8.828-8.831C501.066,239.485,505.019,243.439,505.019,248.316z"/>
							<circle style="fill:#EDEDED;" cx="518.549" cy="212.275" r="8.83"/>
							<path style="fill:#EDEDED;" d="M425.738,298.269c0,4.876-3.955,8.83-8.831,8.83c-4.878,0-8.831-3.954-8.831-8.83         c0-4.878,3.953-8.831,8.831-8.831C421.783,289.438,425.738,293.391,425.738,298.269z"/>
							<path style="fill:#EDEDED;" d="M383.733,327.522c0,4.878-3.953,8.828-8.831,8.828c-4.877,0-8.83-3.95-8.83-8.828         c0-4.879,3.953-8.833,8.83-8.833C379.78,318.689,383.733,322.643,383.733,327.522z"/>
							<path style="fill:#EDEDED;" d="M409.792,365.16c0,4.878-3.952,8.83-8.83,8.83c-4.876,0-8.829-3.952-8.829-8.83         c0-4.878,3.953-8.83,8.829-8.83C405.84,356.33,409.792,360.282,409.792,365.16z"/>
							<path style="fill:#EDEDED;" d="M379.225,396.51c0,4.877-3.954,8.83-8.832,8.83c-4.875,0-8.83-3.953-8.83-8.83         c0-4.877,3.955-8.831,8.83-8.831C375.271,387.679,379.225,391.633,379.225,396.51z"/>
							<path style="fill:#EDEDED;" d="M334.905,370.771c0,4.875-3.953,8.829-8.83,8.829c-4.877,0-8.831-3.954-8.831-8.829         c0-4.563,3.454-8.313,7.89-8.782C325.443,361.955,329.806,366.822,334.905,370.771z"/>
							<path style="fill:#EDEDED;" d="M313.695,420.506c0,4.877-3.953,8.83-8.83,8.83c-4.877,0-8.83-3.953-8.83-8.83         c0-4.877,3.953-8.831,8.83-8.831C309.742,411.675,313.695,415.629,313.695,420.506z"/>
							<path style="fill:#EDEDED;" d="M286.068,374.851c0,4.876-3.953,8.831-8.83,8.831c-4.877,0-8.831-3.955-8.831-8.831         c0-4.879,3.954-8.831,8.831-8.831C282.115,366.02,286.068,369.972,286.068,374.851z"/>
							<path style="fill:#EDEDED;" d="M302.353,333.512c0,4.877-3.954,8.831-8.83,8.831c-4.877,0-8.831-3.954-8.831-8.831         c0-4.878,3.954-8.83,8.831-8.83C298.4,324.682,302.353,328.634,302.353,333.512z"/>
							<path style="fill:#EDEDED;" d="M258.669,324.785c0,4.876-3.954,8.828-8.83,8.828c-4.878,0-8.831-3.952-8.831-8.828         c0-4.879,3.953-8.832,8.831-8.832C254.715,315.953,258.669,319.906,258.669,324.785z"/>
							<path style="fill:#EDEDED;" d="M313.695,291.484c0,4.877-3.953,8.829-8.83,8.829c-4.877,0-8.83-3.952-8.83-8.829         c0-4.878,3.953-8.831,8.83-8.831C309.742,282.653,313.695,286.606,313.695,291.484z"/>
							<path style="fill:#EDEDED;" d="M277.238,282.195c0,4.877-3.954,8.83-8.831,8.83c-4.877,0-8.83-3.953-8.83-8.83         c0-4.877,3.953-8.831,8.83-8.831C273.284,273.364,277.238,277.318,277.238,282.195z"/>
							<path style="fill:#EDEDED;" d="M309.827,242.725c0,4.875-3.954,8.829-8.831,8.829c-4.877,0-8.83-3.954-8.83-8.829         c0-4.879,3.953-8.831,8.83-8.831C305.873,233.893,309.827,237.846,309.827,242.725z"/>
							<path style="fill:#EDEDED;" d="M345.366,315.955c0,4.876-3.954,8.83-8.831,8.83c-4.878,0-8.831-3.954-8.831-8.83         c0-4.879,3.953-8.831,8.831-8.831C341.413,307.124,345.366,311.076,345.366,315.955z"/>
							<path style="fill:#EDEDED;" d="M344.539,273.74c-1.51,1.205-3.424,1.929-5.51,1.929c-4.876,0-8.83-3.953-8.83-8.829         c0-3.229,1.731-6.054,4.317-7.594C336.676,262.645,340.372,267.779,344.539,273.74z"/>
							<path style="fill:#EDEDED;" d="M500.348,171.976c0,4.877-3.952,8.831-8.829,8.831c-4.877,0-8.832-3.954-8.832-8.831         c0-4.877,3.955-8.83,8.832-8.83C496.396,163.146,500.348,167.099,500.348,171.976z"/>
							<path style="fill:#EDEDED;" d="M547.531,164.9c0,4.877-3.955,8.83-8.832,8.83c-4.876,0-8.829-3.953-8.829-8.83         c0-4.877,3.953-8.831,8.829-8.831C543.576,156.069,547.531,160.023,547.531,164.9z"/>
							<path style="fill:#EDEDED;" d="M525.081,133.336c0,4.877-3.955,8.83-8.831,8.83c-4.877,0-8.83-3.953-8.83-8.83         c0-4.877,3.953-8.831,8.83-8.831c0.374,0,0.741,0.023,1.104,0.069c2.771,1.833,5.616,3.034,5.616,3.034         C524.287,129.15,525.081,131.149,525.081,133.336z"/>
						</g>
					</g>
					<path style="opacity:0.5;fill:#EA4613;" d="M420.03,308.777c1.599-8.11,7.789-23.629,5.286-37.27       c-2.502-13.641,4.344-1.628,9.03,0.475c4.685,2.103,68.701-14.906,74.218-25.294c0,0-1.264,2.109-4.958,4.389       c-7.409,4.57-21.937,12.106-37.092,20.665C432.05,291.203,421.376,302.123,420.03,308.777z"/>
					<path style="opacity:0.5;fill:#EA4613;" d="M454.6,209.051c4.296-1.368,21.193-4.343,27.321,2.684       c6.128,7.028,6.489,0.376,3.966-2.605c-2.523-2.982-5.092-10.685-4.705-13.215c-1.726,4.167-2.685,5.773-3.797,6.943       C475.435,203.805,474.49,202.544,454.6,209.051z"/>
					<path style="opacity:0.5;fill:#EA4613;" d="M509.219,116.214c-1.532,2.232,8.563,10.457,22.799,14.965       c14.238,4.509,21.908,5.132,22.669,3.468c0,0,0.597,1.3-5.486,17.12c0,0,3.034-11.077-3.485-11.628       c-7.713-0.651-25.003-5.037-34.693-16.563c-2.171-2.582-3.826-1.517-6.974,4.443       C506.978,120.039,507.804,117.396,509.219,116.214z"/>
					<path style="opacity:0.5;fill:#EA4613;" d="M318.151,294.718c0,0-10.848,25.41-6.793,31.357       c4.055,5.947,12.811,7.405,12.811,11.46c0,4.055-9.567-0.918-9.026,3.137c0.376,2.83,29.79,28.502,36.311,38.473       c2.823,4.315-0.904,15.468-0.089,17.101l-3.355-0.145c4.518-9.206,3.713-14.792-3.944-18.757       c-21.354-12.184-41.814-42.52-41.814-42.52s-0.594-3.745,0.366-6.315C307.662,314.992,318.151,294.718,318.151,294.718z"/>
					<path style="opacity:0.5;fill:#EA4613;" d="M416.907,324.193c-3.914,8.91-20.153,28.102-19.061,35.129       c1.092,7.028,14.357,13,13.267,24.07C411.112,383.393,411.191,348.78,416.907,324.193z"/>
					<path style="opacity:0.5;fill:#EA4613;" d="M364.25,282.194c6.665,5.228,34.912,9.643,45.364-6.397       c10.452-16.038,6.36-29.109,6.36-29.109l-48.63,27.898L364.25,282.194z"/>
					<path style="opacity:0.5;fill:#EA4613;" d="M241.349,347.609c0.541,7.929,75.581,77.997,89.779,68.012       c0,0-11.027,9.839-20.399,8.397c-6.128-0.722-49.725-35.574-63.427-57.433C239.366,354.458,241.077,349.293,241.349,347.609z"/>
					<path style="fill:#713abe;" d="M402.478,123.58c3.521,15.818,0.783,18.509,8.345,31.671       c5.765,10.029,17.969,30.692,6.123,45.506c-3.994,4.994-11.113,8.845-11.588,15.897c-0.359,5.342,3.598,10.547,5.698,15.278       c4.311,9.704,8.668,22.72,2.4,32.376c-5.319,8.192-14.609,13.692-23.731,14.832c-11.107,1.388-23.857-1.317-28.834-12.617       c-5.417-12.297,2.857-21.885,11.084-29.804c3.71-3.571,8.277-6.621,8.812-12.254c0.549-5.787-2.55-9.878-5.422-14.653       c-13.347-22.201,21.695-36.92,22.264-55.781c0.26-8.631-3.717-12.369,0.337-20.2       C397.965,133.83,402.473,123.566,402.478,123.58z"/>
					<path style="fill:#e2e2e2;" d="M372.687,203.128c12.707,7.278,22.244,10.646,22.311,15.768       c0.067,5.124-29.28,19.813-35.054,34.569c0.028-0.63,0.028-0.63,0.028-0.63s-1.437-7.116,5.446-17.093       c3.813-5.525,9.28-9.749,10.816-16.681C377.072,215.286,372.89,208.782,372.687,203.128z"/>
					<path style="fill:#713abe;" d="M373.593,323.44c0,3.099-2.354,5.607-5.26,5.607c-2.904,0-5.259-2.509-5.259-5.607       c0-3.098,2.355-5.608,5.259-5.608C371.239,317.832,373.593,320.342,373.593,323.44z"/>
					<path style="fill:#713abe;" d="M371.022,370.769c0,3.098-2.355,5.609-5.261,5.609c-2.905,0-5.259-2.512-5.259-5.609       c0-3.098,2.354-5.609,5.259-5.609C368.667,365.159,371.022,367.671,371.022,370.769z"/>
					<path style="fill:#713abe;" d="M365.054,324.897c0-0.538,1.107,1.023,3.279,1.023c2.268,0,3.28-1.436,3.28-1.023       c0,1.449-1.468,2.624-3.28,2.624C366.522,327.521,365.054,326.346,365.054,324.897z"/>
					<path style="fill:#713abe;" d="M362.482,372.225c0-0.538,1.107,1.025,3.279,1.025c2.267,0,3.28-1.439,3.28-1.025       c0,1.451-1.467,2.625-3.28,2.625C363.951,374.85,362.482,373.676,362.482,372.225z"/>
					<path style="fill:#EDEDED;" d="M365.054,324.897c0-0.538,1.107,1.023,3.279,1.023c2.268,0,3.28-1.436,3.28-1.023       c0,1.449-1.468,2.624-3.28,2.624C366.522,327.521,365.054,326.346,365.054,324.897z"/>
					<path style="fill:#EDEDED;" d="M362.482,372.225c0-0.538,1.107,1.025,3.279,1.025c2.267,0,3.28-1.439,3.28-1.025       c0,1.451-1.467,2.625-3.28,2.625C363.951,374.85,362.482,373.676,362.482,372.225z"/>
				</g>
			</g>
			<rect x="170.849" y="357.633" style="opacity:0.6;fill:#0B3356;" width="428.007" height="30.266"/>
			<rect x="170.849" y="354.723" style="fill:#EA4939;" width="52.602" height="2.91"/>
			<rect x="237.374" y="354.723" style="opacity:0.4;fill:#0B3356;" width="357.991" height="2.91"/>
			<rect x="224.253" y="354.723" style="opacity:0.5;fill:#FFFFFF;" width="13.121" height="2.91"/>
			<g>
				<polyline style="fill:none;stroke:#FFFFFF;stroke-width:3;stroke-linejoin:round;stroke-miterlimit:10;" points="      576.731,365.201 572.954,365.201 572.954,368.975     "/>
				<polyline style="fill:none;stroke:#FFFFFF;stroke-width:3;stroke-linejoin:round;stroke-miterlimit:10;" points="      584.597,368.975 584.597,365.2 580.822,365.2     "/>
				<polyline style="fill:none;stroke:#FFFFFF;stroke-width:3;stroke-linejoin:round;stroke-miterlimit:10;" points="      580.82,376.853 584.597,376.853 584.597,373.076     "/>
				<polyline style="fill:none;stroke:#FFFFFF;stroke-width:3;stroke-linejoin:round;stroke-miterlimit:10;" points="      572.954,373.076 572.954,376.853 576.729,376.853     "/>
			</g>
			
				<rect x="553.554" y="369.19" style="fill:none;stroke:#FFFFFF;stroke-width:3;stroke-linecap:round;stroke-linejoin:round;stroke-miterlimit:10;" width="10.285" height="7.662"/>
			<g>
				<path style="fill:#0B3356;" d="M167.314,81.35c-2.75,0-5,2.184-5,4.854s0,7.104,0,9.854v291.498c0,2.75,2.25,5,5,5H598.9      c2.75,0,5-2.25,5-5V86.35c0-2.75-2.25-5-5-5h-28.642c-2.75,0-5.247,2.095-5.55,4.656c-0.302,2.561,1.701,4.656,4.451,4.656      h21.205c2.75,0,5,2.25,5,5v282.581c0,2.75-2.25,5-5,5H175.849c-2.75,0-5-2.25-5-5V95.663c0-2.75,2.25-5,5-5h327.84      c2.75,0,4.97-2.095,4.932-4.656c-0.038-2.561-2.318-4.656-5.068-4.656H167.314z"/>
			</g>
			<g>
				<path style="fill:#FFFFFF;" d="M627.387,315.172c-4.131,5.521-55.822,18.675-63.424,17.832      c-7.605-0.841-18.766-35.588-14.44-44.627c4.324-9.04,59.847-22.864,66.059-19.024      C621.793,273.193,631.517,309.653,627.387,315.172z"/>
				<path style="fill:#713abe;" d="M596.687,297.21l-14.667-6.151c-1.737-0.729-3.563,0.837-3.103,2.664l4.646,18.506      c0.458,1.826,2.808,2.346,3.994,0.884l10.021-12.354C598.539,299.576,598.092,297.799,596.687,297.21z"/>
			</g>
			<path style="fill:#FFFFFF;" d="M302.401,176.716h-23.646c-5.832,0-10.604,4.772-10.604,10.604v10.727     c0,5.832,4.772,10.604,10.604,10.604h17.652l3.363,4.352c0.697,0.903,2.105,0.741,2.581-0.296l1.94-4.234     c4.938-0.9,8.713-5.237,8.713-10.424V187.32C313.004,181.488,308.233,176.716,302.401,176.716z M278.755,195.976     c-1.616,0-2.925-1.311-2.925-2.928c0-1.614,1.309-2.924,2.925-2.924c1.615,0,2.926,1.31,2.926,2.924     C281.682,194.665,280.37,195.976,278.755,195.976z M290.639,195.976c-1.614,0-2.925-1.311-2.925-2.928     c0-1.614,1.311-2.924,2.925-2.924c1.616,0,2.926,1.31,2.926,2.924C293.564,194.665,292.255,195.976,290.639,195.976z      M302.524,195.976c-1.617,0-2.927-1.311-2.927-2.928c0-1.614,1.309-2.924,2.927-2.924c1.614,0,2.923,1.31,2.923,2.924     C305.448,194.665,304.138,195.976,302.524,195.976z"/>
			<g>
				<g>
					<g>
						<path style="fill:#FFFFFF;" d="M458.856,327.264l0.147,0.055l16.995,5.988l9.835-15.098l0.087-0.133        c2.629-4.032,1.478-9.487-2.556-12.113c-4.035-2.63-9.485-1.479-12.114,2.558l-2.411,3.698l-4.164-1.467        c-4.541-1.602-9.568,0.805-11.168,5.347C451.909,320.641,454.315,325.665,458.856,327.264z"/>
					</g>
				</g>
			</g>
			<g>
				<g>
					<g>
						<path style="fill:#FFFFFF;" d="M554.53,213.034l0.058,0.09l6.751,10.269l11.573-4.132l0.101-0.035        c3.092-1.104,4.719-4.54,3.614-7.631c-1.104-3.093-4.537-4.72-7.63-3.614l-2.835,1.012l-1.655-2.516        c-1.804-2.744-5.524-3.515-8.268-1.71C553.496,206.571,552.727,210.291,554.53,213.034z"/>
					</g>
				</g>
			</g>
			<g>
				<g>
					<g>
						<path style="fill:#FFFFFF;" d="M216.922,153.031l0.101,0.037l11.583,4.104l6.727-10.283l0.06-0.09        c1.796-2.747,1.017-6.468-1.73-8.264c-2.748-1.799-6.467-1.021-8.264,1.729l-1.648,2.52l-2.839-1.005        c-3.094-1.098-6.525,0.537-7.622,3.632C212.193,148.506,213.828,151.936,216.922,153.031z"/>
					</g>
				</g>
			</g>
		</g>
		<g>
			<path style="opacity:0.2;fill:#b15eff;" d="M264.753,434.277c0,13.403-30.731,24.271-68.64,24.271     c-37.908,0-68.639-10.867-68.639-24.271c0-13.405,30.73-24.27,68.639-24.27C234.022,410.008,264.753,420.872,264.753,434.277z"/>
			<g>
				<rect x="191.439" y="255.85" style="fill:#123456;" width="7.841" height="15.327"/>
				<g>
					<g>
						<path style="fill:#0B3356;" d="M203.571,177.37c-0.23-1.076-1.319-1.956-2.419-1.956h-16.857c-1.1,0-2.189,0.88-2.419,1.956        l-2.704,12.617c-0.23,1.076,0.481,1.956,1.581,1.956h23.939c1.1,0,1.812-0.88,1.581-1.956L203.571,177.37z"/>
					</g>
					<g>
						<path d="M199.218,184.433c0,1.1-0.9,2-2,2h-9.188c-1.1,0-2-0.9-2-2v-3.281c0-1.1,0.9-2,2-2h9.188c1.1,0,2,0.9,2,2V184.433z" fill="#000000"/>
					</g>
					<g>
						<path style="fill:#0B3356;" d="M246.234,248.953c0,2.75-2.25,5-5,5h-93.889c-2.75,0-5-2.25-5-5v-56.35c0-2.75,2.25-5,5-5        h93.889c2.75,0,5,2.25,5,5V248.953z"/>
					</g>
					<g>
						<path style="fill:#0A1D35;" d="M246.234,251.677c0,2.75-2.25,5-5,5h-93.889c-2.75,0-5-2.25-5-5v-56.348c0-2.75,2.25-5,5-5        h93.889c2.75,0,5,2.25,5,5V251.677z"/>
					</g>
					<g>
						<path style="fill:#0A1D35;" d="M206.693,242.639c0,2.75-2.25,5-5,5h-47.854c-2.75,0-5-2.25-5-5v-31.846c0-2.75,2.25-5,5-5        h47.854c2.75,0,5,2.25,5,5V242.639z"/>
					</g>
					<g>
						<path style="fill:#b15eff;" d="M206.693,245.029c0,2.75-2.25,5-5,5h-47.854c-2.75,0-5-2.25-5-5v-31.849c0-2.75,2.25-5,5-5        h47.854c2.75,0,5,2.25,5,5V245.029z"/>
					</g>
					<polygon style="fill:#FFFFFF;" points="167.539,250.029 161.636,250.029 174.815,208.181 180.717,208.181      "/>
					<polygon style="fill:#FFFFFF;" points="155.045,250.029 153.962,250.029 167.142,208.181 168.225,208.181      "/>
					<polygon style="fill:#FFFFFF;" points="187.703,250.029 171.176,250.029 184.355,208.181 200.881,208.181      "/>
					<g>
						<path style="fill:#e2e2e2;" d="M224.184,199.322c0,1.1-0.9,2-2,2h-3.335c-1.1,0-2-0.9-2-2v-0.049c0-1.1,0.9-2,2-2h3.335        c1.1,0,2,0.9,2,2V199.322z"/>
					</g>
					<g>
						<path style="fill:#e2e2e2;" d="M234.956,199.322c0,1.1-0.9,2-2,2h-3.335c-1.1,0-2-0.9-2-2v-0.049c0-1.1,0.9-2,2-2h3.335        c1.1,0,2,0.9,2,2V199.322z"/>
					</g>
					<g>
						<path style="fill:#e2e2e2;" d="M224.184,206.181c0,1.1-0.9,2-2,2h-3.335c-1.1,0-2-0.9-2-2v-0.049c0-1.1,0.9-2,2-2h3.335        c1.1,0,2,0.9,2,2V206.181z"/>
					</g>
					<g>
						<path style="fill:#e2e2e2;" d="M234.956,206.181c0,1.1-0.9,2-2,2h-3.335c-1.1,0-2-0.9-2-2v-0.049c0-1.1,0.9-2,2-2h3.335        c1.1,0,2,0.9,2,2V206.181z"/>
					</g>
					<g>
						<path style="fill:#e2e2e2;" d="M224.184,213.039c0,1.1-0.9,2-2,2h-3.335c-1.1,0-2-0.9-2-2v-0.049c0-1.1,0.9-2,2-2h3.335        c1.1,0,2,0.9,2,2V213.039z"/>
					</g>
					<g>
						<path style="fill:#e2e2e2;" d="M234.956,213.039c0,1.1-0.9,2-2,2h-3.335c-1.1,0-2-0.9-2-2v-0.049c0-1.1,0.9-2,2-2h3.335        c1.1,0,2,0.9,2,2V213.039z"/>
					</g>
					<path style="fill:#0A1D35;" d="M236.897,234.954c0,6.355-5.154,11.509-11.511,11.509c-6.357,0-11.511-5.154-11.511-11.509       c0-6.358,5.154-11.512,11.511-11.512C231.743,223.442,236.897,228.596,236.897,234.954z"/>
					<path style="fill:#0B3356;" d="M234.956,234.954c0,5.285-4.284,9.57-9.569,9.57c-5.287,0-9.571-4.285-9.571-9.57       c0-5.285,4.284-9.57,9.571-9.57C230.672,225.384,234.956,229.669,234.956,234.954z"/>
					<path style="fill:#0A1D35;" d="M232.3,234.954c0,3.818-3.096,6.913-6.914,6.913c-3.82,0-6.915-3.095-6.915-6.913       c0-3.819,3.095-6.915,6.915-6.915C229.204,228.039,232.3,231.135,232.3,234.954z"/>
				</g>
				<rect x="182.043" y="269.572" style="fill:#123456;" width="26.635" height="3.208"/>
				<path style="fill:#123456;" d="M210.281,271.177c0,0.885-0.718,1.604-1.604,1.604c-0.886,0-1.604-0.719-1.604-1.604      c0-0.886,0.718-1.604,1.604-1.604C209.563,269.572,210.281,270.291,210.281,271.177z"/>
				<path style="fill:#123456;" d="M183.926,271.177c0,0.885-0.719,1.604-1.605,1.604c-0.886,0-1.604-0.719-1.604-1.604      c0-0.886,0.719-1.604,1.604-1.604C183.207,269.572,183.926,270.291,183.926,271.177z"/>
				<rect x="182.043" y="277.084" style="fill:#123456;" width="26.635" height="3.208"/>
				<path style="fill:#123456;" d="M210.281,278.688c0,0.887-0.718,1.604-1.604,1.604c-0.886,0-1.604-0.718-1.604-1.604      c0-0.885,0.718-1.603,1.604-1.603C209.563,277.084,210.281,277.803,210.281,278.688z"/>
				<path style="fill:#123456;" d="M183.926,278.688c0,0.887-0.719,1.604-1.605,1.604c-0.886,0-1.604-0.718-1.604-1.604      c0-0.885,0.719-1.603,1.604-1.603C183.207,277.084,183.926,277.803,183.926,278.688z"/>
				<rect x="182.984" y="271.177" style="fill:#123456;" width="24.753" height="7.511"/>
				
					<line style="fill:none;stroke:#153556;stroke-width:5;stroke-linecap:round;stroke-miterlimit:10;" x1="191.439" y1="278.688" x2="142.346" y2="432.911"/>
				
					<line style="fill:none;stroke:#153556;stroke-width:5;stroke-linecap:round;stroke-miterlimit:10;" x1="249.933" y1="432.911" x2="200.839" y2="278.688"/>
				
					<line style="fill:none;stroke:#153556;stroke-width:5;stroke-linecap:round;stroke-miterlimit:10;" x1="196.113" y1="280.105" x2="196.113" y2="445.207"/>
			</g>
		</g>
	</g>
</g>
</svg>