<svg xmlns="http://www.w3.org/2000/svg" xmlns:xlink="http://www.w3.org/1999/xlink" version="1.1" x="0px" y="0px" viewBox="0 0 750 500" style="enable-background:new 0 0 750 500;" xml:space="preserve">
<g id="Background_Complete">
	<g>
		<g>
			<g>
				<path style="fill:#F5F5F5;" d="M183.734,396.78c10.848-7.573,14.498-16.902,15.733-30.074      c1.234-13.171-3.591-26.789-12.843-36.246c-7.713-7.884-18.328-13.061-24.072-22.476c-6.122-10.035-5.911-23.712-14.413-31.829      c-5.841-5.577-14.382-7.068-21.476-10.926c-5.79-3.148-10.558-7.847-15.856-11.767c-5.299-3.92-11.585-7.173-18.157-6.68      c-9.913,0.744-17.628,10.48-18.098,20.409c-0.471,9.93,5.071,19.427,12.65,25.861c5.497,4.666,12.265,8.239,15.867,14.485      c6.765,11.732-0.303,28.034,6.96,39.464c5.304,8.347,17.327,12.343,18.996,22.091c0.614,3.585-0.4,7.24-0.372,10.877      c0.086,11.374,10.719,20.538,21.914,22.555C161.761,404.542,173.185,401.034,183.734,396.78"/>
			</g>
			<g>
				<g>
					<path style="fill:#E0E0E0;" d="M114.129,286.754c-0.031,0.035,0.381,0.492,1.193,1.331c0.92,0.925,2.114,2.125,3.598,3.617       c1.592,1.539,3.507,3.45,5.594,5.804c2.105,2.333,4.623,4.879,7.088,7.975c1.268,1.522,2.593,3.112,3.973,4.766       c1.373,1.664,2.664,3.504,4.078,5.347c2.88,3.651,5.589,7.816,8.525,12.136c5.625,8.801,11.277,18.823,16.272,29.8       c4.894,11.027,8.637,21.909,11.483,31.961c1.281,5.065,2.597,9.856,3.415,14.435c0.439,2.281,0.958,4.469,1.29,6.6       c0.322,2.13,0.631,4.177,0.927,6.135c0.679,3.899,0.911,7.472,1.258,10.595c0.374,3.123,0.531,5.824,0.625,8.036       c0.13,2.099,0.235,3.788,0.315,5.091c0.087,1.164,0.156,1.776,0.203,1.775c0.047,0,0.07-0.613,0.071-1.78       c-0.016-1.307-0.036-3.002-0.061-5.109c-0.013-2.221-0.093-4.936-0.396-8.076c-0.276-3.141-0.442-6.736-1.063-10.661       c-0.27-1.972-0.551-4.033-0.844-6.178c-0.307-2.146-0.801-4.35-1.219-6.648c-0.775-4.612-2.056-9.44-3.312-14.544       c-2.795-10.128-6.526-21.094-11.451-32.19c-5.025-11.046-10.747-21.114-16.463-29.928c-2.981-4.327-5.741-8.49-8.675-12.132       c-1.441-1.838-2.76-3.671-4.161-5.326c-1.409-1.643-2.763-3.222-4.059-4.733c-2.523-3.07-5.101-5.582-7.267-7.874       c-2.147-2.312-4.124-4.175-5.776-5.659c-1.559-1.418-2.813-2.558-3.78-3.438C114.634,287.109,114.161,286.719,114.129,286.754z       "/>
				</g>
			</g>
		</g>
	</g>
	<g>
		<g>
			<path style="fill:#EBEBEB;" d="M670.063,202.218c0,0-9.54-6.308-21.169,16.51c-11.629,22.818-16.035,35.978-16.035,35.978     s-3.074,4.781-6.358,1.656c-3.284-3.125-7.782-11.99-13.364-10.394c-5.789,1.655-7.696,8.116-6.592,17.61     c1.104,9.494,2.759,30.384,2.902,32.273c0.14,1.855-0.922,4.588-3.501,2.817c-2.578-1.77-17.411-18.289-24.827-10.781     s0.004,33.451,0.761,36.303c0.757,2.852,0.199,4.07-1.156,4.775c-1.355,0.706-5.817-5.316-10.228-9.841     c-4.411-4.525-10.319-8.999-14.235-4.309c-3.916,4.69-5.169,24.156,13.357,55.775l9.543,14.089l17.066-0.947     c36.399-4.252,51.184-16.976,52.57-22.926c1.386-5.951-5.744-7.973-12.013-8.769c-6.269-0.796-13.764-0.732-14.016-2.238     c-0.253-1.506,0.384-2.685,3.116-3.798c2.732-1.113,27.913-10.813,29.44-21.255c1.527-10.442-20.593-12.335-23.559-13.327     s-1.424-3.486,0.141-4.491c1.594-1.024,19.268-12.283,27.512-17.119c8.244-4.836,12.254-10.249,10.089-15.868     c-2.087-5.418-11.873-3.67-16.346-4.409c-4.472-0.74-2.507-6.073-2.507-6.073s7.852-11.442,19.065-34.468     c11.213-23.026,0.142-26.885,0.142-26.885"/>
		</g>
		<g>
			<g>
				<path style="fill:#E0E0E0;" d="M659.613,222.636c0,0-0.063,0.171-0.211,0.494c-0.159,0.341-0.381,0.815-0.667,1.427      c-0.606,1.27-1.484,3.108-2.61,5.466c-2.271,4.744-5.607,11.585-9.761,20.022c-8.301,16.878-19.964,40.096-32.927,65.697      c-12.967,25.61-24.683,48.802-33.069,65.636c-4.177,8.407-7.561,15.216-9.91,19.945c-1.164,2.338-2.071,4.161-2.698,5.421      c-0.306,0.602-0.544,1.069-0.714,1.404c-0.164,0.315-0.259,0.47-0.259,0.47s0.063-0.171,0.211-0.494      c0.159-0.34,0.381-0.815,0.667-1.427c0.606-1.27,1.484-3.107,2.609-5.465c2.271-4.743,5.607-11.584,9.76-20.021      c8.301-16.878,19.965-40.099,32.933-65.709c12.963-25.601,24.677-48.791,33.064-65.625c4.177-8.407,7.561-15.217,9.911-19.947      c1.164-2.339,2.072-4.162,2.699-5.422c0.306-0.602,0.544-1.069,0.714-1.404C659.517,222.791,659.613,222.636,659.613,222.636z"/>
			</g>
		</g>
		<g>
			<g>
				<path style="fill:#E0E0E0;" d="M618.93,258.623c0.035-0.01,0.186,0.401,0.429,1.154c0.247,0.752,0.571,1.849,0.959,3.209      c0.771,2.721,1.739,6.505,2.733,10.701c0.965,4.141,1.837,7.886,2.504,10.75c0.309,1.289,0.569,2.377,0.779,3.251      c0.187,0.767,0.275,1.197,0.24,1.207c-0.035,0.01-0.189-0.4-0.438-1.151c-0.244-0.753-0.569-1.851-0.943-3.215      c-0.744-2.729-1.663-6.525-2.656-10.72c-0.994-4.132-1.893-7.869-2.58-10.728c-0.315-1.288-0.582-2.375-0.796-3.249      C618.979,259.064,618.894,258.634,618.93,258.623z"/>
			</g>
		</g>
		<g>
			<g>
				<path style="fill:#E0E0E0;" d="M628.136,289.198c-0.04-0.14,7.675-2.481,17.229-5.228c9.558-2.748,17.337-4.861,17.377-4.72      c0.04,0.14-7.673,2.481-17.231,5.228C635.957,287.225,628.177,289.338,628.136,289.198z"/>
			</g>
		</g>
		<g>
			<g>
				<path style="fill:#E0E0E0;" d="M606.453,327.622c0.002-0.036,0.449-0.055,1.256-0.058c0.915,0.003,2.058,0.007,3.415,0.012      c2.882,0.006,6.864-0.003,11.256-0.173c4.394-0.161,8.365-0.445,11.239-0.673c1.353-0.106,2.492-0.196,3.404-0.268      c0.805-0.059,1.252-0.074,1.256-0.038c0.004,0.036-0.435,0.121-1.233,0.243c-0.799,0.121-1.957,0.276-3.392,0.435      c-2.869,0.324-6.848,0.668-11.254,0.829c-4.405,0.171-8.398,0.121-11.283,0.019c-1.443-0.057-2.61-0.116-3.415-0.18      C606.896,327.709,606.452,327.658,606.453,327.622z"/>
			</g>
		</g>
		<g>
			<g>
				<path style="fill:#E0E0E0;" d="M592.039,301.8c0.032-0.018,0.267,0.322,0.666,0.952c0.448,0.733,0.998,1.633,1.646,2.694      c1.37,2.286,3.232,5.464,5.259,8.989c2.028,3.526,3.838,6.733,5.126,9.068c0.591,1.094,1.093,2.022,1.501,2.778      c0.344,0.662,0.52,1.036,0.488,1.055c-0.032,0.018-0.267-0.322-0.666-0.952c-0.448-0.733-0.998-1.633-1.646-2.694      c-1.37-2.287-3.232-5.464-5.26-8.99c-2.027-3.525-3.837-6.732-5.125-9.066c-0.591-1.095-1.093-2.023-1.501-2.778      C592.182,302.192,592.007,301.818,592.039,301.8z"/>
			</g>
		</g>
		<g>
			<g>
				<path style="fill:#E0E0E0;" d="M568.587,333.289c0.031-0.019,0.329,0.419,0.84,1.227c0.553,0.898,1.267,2.055,2.123,3.445      c1.773,2.921,4.19,6.974,6.831,11.467c2.642,4.495,5.009,8.578,6.699,11.548c0.798,1.424,1.463,2.61,1.978,3.53      c0.457,0.84,0.695,1.312,0.663,1.331c-0.031,0.018-0.329-0.419-0.84-1.227c-0.553-0.897-1.266-2.055-2.123-3.445      c-1.772-2.921-4.19-6.974-6.832-11.469c-2.642-4.493-5.008-8.576-6.698-11.546c-0.798-1.424-1.463-2.61-1.978-3.53      C568.793,333.78,568.555,333.307,568.587,333.289z"/>
			</g>
		</g>
		<g>
			<g>
				<path style="fill:#E0E0E0;" d="M587.483,364.929c0-0.036,0.566-0.075,1.589-0.113c1.117-0.036,2.574-0.084,4.33-0.141      c3.656-0.123,8.704-0.313,14.271-0.679c5.569-0.358,10.601-0.815,14.241-1.172c1.749-0.17,3.2-0.311,4.312-0.419      c1.019-0.095,1.585-0.13,1.589-0.094c0.005,0.036-0.552,0.141-1.564,0.298c-1.012,0.158-2.479,0.363-4.296,0.586      c-3.633,0.452-8.669,0.969-14.248,1.328c-5.576,0.367-10.636,0.498-14.298,0.525c-1.831,0.009-3.313,0.001-4.336-0.027      C588.049,364.996,587.483,364.965,587.483,364.929z"/>
			</g>
		</g>
	</g>
	<g>
		<g>
			<g>
				<path style="fill:#E0E0E0;" d="M464.468,87.408h68.654c2.989,0,5.412,2.423,5.412,5.412v45.492c0,2.989-2.423,5.412-5.412,5.412      h-36.154l-17.185,17.185v-17.185h-15.315c-2.216,0-4.013-1.797-4.013-4.013v-48.29      C460.455,89.205,462.252,87.408,464.468,87.408z"/>
			</g>
		</g>
		<g>
			<g>
				<path style="fill:#FAFAFA;" d="M487.247,116.52c0,2.231-1.809,4.04-4.04,4.04c-2.231,0-4.04-1.809-4.04-4.04      c0-2.231,1.809-4.04,4.04-4.04C485.438,112.48,487.247,114.289,487.247,116.52z"/>
			</g>
		</g>
		<g>
			<g>
				<path style="fill:#FAFAFA;" d="M503.225,116.52c0,2.231-1.809,4.04-4.04,4.04c-2.231,0-4.04-1.809-4.04-4.04      c0-2.231,1.809-4.04,4.04-4.04C501.416,112.48,503.225,114.289,503.225,116.52z"/>
			</g>
		</g>
		<g>
			<g>
				<path style="fill:#FAFAFA;" d="M519.203,116.52c0,2.231-1.809,4.04-4.04,4.04s-4.04-1.809-4.04-4.04      c0-2.231,1.809-4.04,4.04-4.04S519.203,114.289,519.203,116.52z"/>
			</g>
		</g>
	</g>
</g>
<g id="Background_Simple" style="display:none;">
	<path style="display:inline;fill:#EBEBEB;" d="M100.191,262.092c-21.482-42.138-3.033-107.37,26.704-144.151   c38.521-47.646,118.089-42.677,163.577-8.158c28.255,21.441,47.803,54.065,79.364,70.251   c36.855,18.901,81.137,11.151,121.735,2.947c40.598-8.203,84.876-15.964,121.739,2.919c31.12,15.942,51.529,50.868,49.969,85.799   c-1.008,22.563-10.382,44.071-22.812,62.928c-16.176,24.539-38.174,45.757-64.912,57.958   c-33.914,15.476-72.519,15.537-109.786,16.399c-60.219,1.393-120.951,5.562-180.331-4.554   C205.478,390.81,124.363,344.306,100.191,262.092"/>
</g>
<g id="Plants">
	<g>
		<g>
			<g>
				<g>
					<path style="fill:#5b0888;" d="M576.038,430.876c-17.177-16.701-17.478-42.554-13.028-65.024       c0.742-3.751,0.976-7.794,3.309-10.812c2.334-3.016,6.889-4.595,10.007-2.456c2.586,1.775,3.276,5.232,4.404,8.182       c1.5,3.925,4.123,7.398,7.469,9.89c2.198,1.638,5.046,2.884,7.63,1.963c3.546-1.265,4.662-5.697,5.25-9.453       c1.095-6.999,2.192-13.998,3.287-20.995c0.588-3.755,1.201-7.587,2.948-10.957c1.747-3.37,4.864-6.257,8.595-6.676       c3.732-0.417,7.809,2.359,7.965,6.154c0.065,1.579-0.505,3.115-0.655,4.688c-0.15,1.574,0.295,3.415,1.703,4.09       c1.426,0.684,3.1-0.135,4.4-1.05c4.489-3.157,7.912-7.608,11.158-12.06c3.246-4.452,6.439-9.031,10.625-12.59       c4.186-3.559,9.579-6.04,15.001-5.469c5.423,0.572,10.606,4.82,11.104,10.315c0.5,5.51-3.46,10.373-7.515,14.107       c-6.016,5.54-12.824,10.196-20.142,13.777c-1.319,0.646-2.749,1.344-3.427,2.66c-1.222,2.368,0.742,5.238,3.078,6.463       c2.644,1.387,5.726,1.591,8.594,2.412c2.869,0.821,5.827,2.628,6.483,5.572c0.912,4.084-2.95,7.581-6.534,9.699       c-7.177,4.242-15.07,7.23-23.226,8.795c-2.924,0.56-5.972,0.972-8.513,2.548c-2.541,1.577-4.434,4.729-3.52,7.59       c0.914,2.865,4.227,4.273,7.205,4.207c2.977-0.065,5.82-1.212,8.744-1.803c5.472-1.106,12.071,0.335,14.648,5.328       c1.693,3.282,1.219,7.391-0.447,10.703c-1.666,3.312-4.382,5.956-7.198,8.344c-9.842,8.347-21.691,14.427-34.326,16.625       C598.477,437.842,587.214,437.159,576.038,430.876"/>
				</g>
			</g>
		</g>
		<g>
			<g>
				<g>
					<g>
						<path style="fill:#263238;" d="M573.011,447.579c2.277-8.818,5.963-19.069,11.168-29.917        c5.184-10.861,11.854-22.295,19.24-34.014c1.857-2.922,3.693-5.811,5.501-8.657c1.812-2.837,3.609-5.651,5.537-8.294        c3.833-5.305,7.922-10.113,11.947-14.555c4.024-4.446,8.005-8.518,11.754-12.298c3.76-3.774,7.33-7.226,10.718-10.233        c6.761-6.041,12.779-10.259,17.028-12.986c2.123-1.371,3.804-2.38,4.954-3.049c0.552-0.316,0.985-0.565,1.311-0.752        c0.297-0.165,0.452-0.245,0.458-0.235c0.007,0.011-0.136,0.111-0.422,0.297c-0.317,0.202-0.74,0.47-1.276,0.812        c-1.124,0.708-2.781,1.754-4.879,3.157c-4.198,2.795-10.149,7.06-16.848,13.13c-3.358,3.022-6.9,6.486-10.635,10.273        c-3.729,3.796-7.689,7.877-11.69,12.323c-4.001,4.444-8.064,9.243-11.868,14.524c-1.913,2.632-3.691,5.423-5.506,8.268        c-1.807,2.845-3.64,5.733-5.496,8.654c-7.38,11.711-14.05,23.107-19.251,33.92c-5.219,10.8-8.938,20.991-11.268,29.762"/>
					</g>
				</g>
			</g>
		</g>
		<g>
			<g>
				<g>
					<g>
						<path style="fill:#263238;" d="M614.659,366.701c-0.048,0-0.082-0.591-0.106-1.66c-0.028-1.069-0.018-2.616,0.023-4.527        c0.078-3.821,0.367-9.095,0.706-14.908c0.34-5.816,0.553-11.079,0.573-14.891c0.015-1.906,0.012-3.449-0.004-4.515        c-0.01-1.067,0.008-1.659,0.056-1.663c0.048-0.003,0.122,0.584,0.216,1.649c0.1,1.065,0.179,2.611,0.225,4.522        c0.108,3.825-0.027,9.113-0.368,14.934c-0.35,5.736-0.667,10.924-0.909,14.888c-0.098,1.792-0.18,3.302-0.245,4.514        C614.764,366.111,614.708,366.702,614.659,366.701z"/>
					</g>
				</g>
			</g>
		</g>
		<g>
			<g>
				<g>
					<g>
						<path style="fill:#263238;" d="M664.357,365.547c-0.006,0.048-0.706,0.016-1.961-0.083c-1.255-0.091-3.071-0.234-5.32-0.337        c-4.495-0.243-10.716-0.361-17.585-0.192c-6.871,0.182-13.082,0.611-17.565,1.052c-2.245,0.204-4.056,0.418-5.309,0.559        c-1.253,0.146-1.949,0.203-1.957,0.155c-0.007-0.049,0.676-0.198,1.92-0.428c1.244-0.224,3.051-0.514,5.295-0.784        c4.483-0.569,10.71-1.079,17.602-1.262c6.889-0.169,13.132,0.028,17.633,0.401c2.252,0.168,4.067,0.386,5.317,0.563        C663.675,365.375,664.362,365.498,664.357,365.547z"/>
					</g>
				</g>
			</g>
		</g>
		<g>
			<g>
				<g>
					<g>
						<path style="fill:#263238;" d="M584.916,416.871c-0.023,0.006-0.103-0.214-0.235-0.642c-0.146-0.508-0.324-1.128-0.54-1.879        c-0.462-1.634-1.069-4.016-1.78-6.968c-1.427-5.904-3.14-14.122-4.909-23.215c-1.77-9.097-3.405-17.32-4.706-23.245        c-0.641-2.882-1.169-5.252-1.561-7.014c-0.166-0.764-0.302-1.394-0.414-1.911c-0.087-0.438-0.122-0.672-0.098-0.679        c0.023-0.005,0.103,0.216,0.235,0.643c0.146,0.508,0.325,1.127,0.541,1.878c0.462,1.634,1.069,4.016,1.78,6.968        c1.426,5.904,3.14,14.122,4.909,23.219c1.769,9.095,3.404,17.316,4.705,23.242c0.643,2.881,1.169,5.252,1.562,7.013        c0.166,0.764,0.302,1.395,0.414,1.912C584.905,416.632,584.94,416.865,584.916,416.871z"/>
					</g>
				</g>
			</g>
		</g>
		<g>
			<g>
				<g>
					<g>
						<path style="fill:#263238;" d="M652.371,406.66c0.002,0.024-0.232,0.078-0.679,0.159c-0.528,0.086-1.177,0.192-1.963,0.32        c-1.81,0.277-4.253,0.651-7.226,1.105c-6.101,0.935-14.512,2.323-23.804,3.869c-9.295,1.548-17.728,2.859-23.85,3.668        c-3.061,0.405-5.541,0.708-7.258,0.882c-0.794,0.076-1.448,0.138-1.979,0.19c-0.453,0.035-0.693,0.042-0.696,0.017        c-0.002-0.024,0.232-0.078,0.679-0.16c0.527-0.085,1.176-0.191,1.963-0.319c1.81-0.277,4.252-0.65,7.224-1.106        c6.101-0.934,14.513-2.323,23.808-3.87c9.292-1.547,17.724-2.859,23.846-3.667c3.061-0.406,5.541-0.708,7.26-0.882        c0.793-0.076,1.447-0.139,1.979-0.189C652.129,406.642,652.367,406.635,652.371,406.66z"/>
					</g>
				</g>
			</g>
		</g>
	</g>
	<g>
		<g>
			<path style="fill:#5b0888;" d="M114.625,351.991c5.409-1.451,11.322-0.083,16.084,2.863c4.763,2.946,8.478,7.347,11.446,12.096     c5.743,9.188,7.713,21.504,7.909,32.337c-12.021-0.555-22.241-10.065-27.122-15.214     C115.226,375.934,106.224,356.539,114.625,351.991"/>
		</g>
		<g>
			<path style="fill:#5b0888;" d="M169.369,406.643c-4.922-3.862-7.092-10.663-6.024-16.827c1.068-6.164,5.082-11.603,10.263-15.11     c2.395-1.622,5.359-2.902,8.129-2.07c2.59,0.778,4.382,3.311,4.892,5.967c0.51,2.656-0.073,5.407-0.972,7.958     C182.572,395.307,177.982,403.205,169.369,406.643"/>
		</g>
		<g>
			<g>
				<path style="fill:#263238;" d="M180.291,440.932c-0.075,0.036-0.499-0.655-1.197-1.938c-0.697-1.284-1.671-3.159-2.803-5.516      c-2.23-4.705-5.233-11.394-6.661-19.344c-1.423-7.962-0.384-15.462,1.618-20.355c0.977-2.459,2.066-4.317,2.94-5.502      c0.868-1.191,1.442-1.771,1.496-1.728c0.207,0.136-1.935,2.647-3.63,7.527c-1.74,4.831-2.611,12.091-1.228,19.849      c1.392,7.762,4.223,14.422,6.247,19.2C179.14,437.9,180.454,440.854,180.291,440.932z"/>
			</g>
		</g>
		<g>
			<g>
				<path style="fill:#263238;" d="M122.784,366.155c0.064-0.054,0.989,0.911,2.606,2.704c1.62,1.79,3.92,4.42,6.727,7.699      c5.616,6.557,13.225,15.743,21.377,26.091c8.151,10.354,15.299,19.906,20.356,26.902c2.53,3.498,4.546,6.349,5.907,8.344      c1.363,1.993,2.085,3.118,2.017,3.167c-0.068,0.049-0.918-0.982-2.398-2.888c-1.597-2.084-3.69-4.816-6.215-8.111      c-5.23-6.861-12.478-16.32-20.621-26.663c-8.144-10.337-15.639-19.599-21.083-26.292c-2.611-3.227-4.776-5.902-6.428-7.943      C123.523,367.279,122.72,366.21,122.784,366.155z"/>
			</g>
		</g>
		<g>
			<path style="fill:#5b0888;" d="M161.251,420.004c-10.296-8.243-24.717-11.04-37.348-7.244c-3.216,0.967-6.78,2.93-7.104,6.272     c-0.325,3.349,2.816,5.967,5.83,7.464c12.537,6.226,28.822,3.853,39.06-5.693"/>
		</g>
		<g>
			<g>
				<path style="fill:#263238;" d="M131.891,418.879c-0.019-0.082,0.723-0.3,2.089-0.626c0.681-0.176,1.522-0.357,2.515-0.465      c0.99-0.121,2.116-0.325,3.376-0.343c2.513-0.182,5.525-0.06,8.831,0.386c3.294,0.516,6.873,1.398,10.467,2.793      c3.577,1.442,6.792,3.248,9.548,5.125c2.717,1.936,4.997,3.909,6.705,5.761c0.907,0.874,1.589,1.794,2.228,2.56      c0.65,0.758,1.139,1.465,1.516,2.06c0.774,1.173,1.165,1.839,1.095,1.886c-0.193,0.138-1.909-2.45-5.449-5.901      c-1.753-1.74-4.04-3.6-6.727-5.441c-2.726-1.783-5.875-3.513-9.364-4.92c-3.506-1.36-6.985-2.252-10.193-2.817      c-3.218-0.495-6.159-0.704-8.628-0.634C134.96,418.397,131.938,419.112,131.891,418.879z"/>
			</g>
		</g>
	</g>
</g>
<g id="Speech_Bubble">
	<g>
		<g>
			<path style="fill:#5b0888;" d="M296.388,94.167l-8.387,7.01l-4.08-1.817l-0.842-3.456c0,0,9.015-6.65,8.675-7.003     c-0.824-0.856-1.963-1.26-3.096-1.422c-2.151-0.309-4.331,0.336-6.076,1.632l-1.586,1.178c-2.938,2.183-4.455,5.829-3.829,9.435     c0.035,0.199,0.06,0.309,0.06,0.309l-24.869,20.665c-3.861-1.285-8.141,0.545-9.831,4.34c-1.798,4.038,0.018,8.769,4.055,10.567     c4.038,1.798,8.769-0.018,10.567-4.056c0.726-1.629,0.854-3.369,0.494-4.986l24.592-20.646c0.948,0.911,2.247,1.241,3.535,1.286     c2.491,0.086,4.889-0.961,6.671-2.704l2.075-2.031C298.089,98.792,296.388,94.167,296.388,94.167z M248.348,131.644     c-1.85-0.824-2.682-2.992-1.858-4.842c0.824-1.85,2.992-2.682,4.842-1.858c1.85,0.824,2.682,2.992,1.859,4.843     C252.367,131.636,250.199,132.468,248.348,131.644z"/>
		</g>
		<g>
			<g>
				<g>
					<path style="fill:#263238;" d="M334.044,141.868c-1.031,0.086-9.883,0.828-26.787,2.244l0.097-0.05       c-4.789,5.692-11.938,11.561-21.517,14.982c-4.771,1.68-10.092,2.77-15.729,2.867c-5.626,0.037-11.554-0.735-17.363-2.746       c-5.804-1.988-11.469-5.167-16.44-9.491c-4.972-4.313-9.246-9.769-12.277-16.048c-3.04-6.269-4.81-13.359-4.971-20.653       c-0.083-0.911-0.026-1.824,0.027-2.739c0.046-0.915,0.092-1.833,0.139-2.752c0.002-0.924,0.232-1.827,0.344-2.745       c0.14-0.915,0.279-1.831,0.42-2.75c0.189-0.909,0.451-1.805,0.674-2.71c0.25-0.898,0.425-1.822,0.739-2.705       c0.322-0.88,0.645-1.762,0.968-2.646l0.486-1.327c0.16-0.443,0.397-0.855,0.592-1.285c3.014-6.647,7.438-12.512,12.744-17.156       c5.302-4.654,11.483-8.084,17.935-10.105c6.453-2.036,13.157-2.643,19.531-2.047c6.383,0.586,12.44,2.395,17.794,5.088       c10.73,5.409,18.606,14.132,22.785,23.234c0.547,1.13,1.106,2.236,1.478,3.402c0.412,1.148,0.842,2.273,1.222,3.395       c0.548,2.305,1.273,4.5,1.502,6.721c0.151,1.101,0.362,2.177,0.455,3.246c0.052,1.073,0.103,2.127,0.154,3.161       c0.025,0.517,0.05,1.029,0.074,1.537c-0.008,0.507-0.044,1.01-0.064,1.507c-0.048,0.995-0.095,1.969-0.141,2.924l-0.021-0.089       C328.384,132.254,333.486,140.921,334.044,141.868c-0.567-0.941-5.756-9.557-15.408-25.582l-0.023-0.038l0.002-0.052       c0.042-0.949,0.084-1.918,0.127-2.907c0.018-0.494,0.052-0.994,0.058-1.498c-0.027-0.504-0.053-1.013-0.081-1.527       c-0.054-1.028-0.109-2.074-0.164-3.14c-0.097-1.062-0.311-2.13-0.464-3.223c-0.234-2.204-0.963-4.382-1.513-6.667       c-0.381-1.112-0.812-2.227-1.224-3.365c-0.372-1.156-0.931-2.252-1.477-3.371c-4.17-9.019-12-17.646-22.638-22.987       c-5.308-2.659-11.309-4.441-17.63-5.014c-6.313-0.583-12.949,0.025-19.334,2.045c-6.383,2.005-12.498,5.404-17.743,10.011       c-5.248,4.597-9.625,10.401-12.607,16.978c-0.193,0.425-0.428,0.832-0.586,1.271l-0.48,1.313       c-0.32,0.874-0.639,1.747-0.958,2.618c-0.311,0.873-0.483,1.787-0.731,2.676c-0.221,0.896-0.48,1.782-0.668,2.681       c-0.139,0.909-0.277,1.816-0.415,2.721c-0.111,0.908-0.341,1.801-0.341,2.716c-0.046,0.91-0.092,1.818-0.138,2.724       c-0.052,0.906-0.11,1.809-0.028,2.711c0.156,7.219,1.904,14.235,4.907,20.442c2.995,6.217,7.22,11.623,12.139,15.901       c4.918,4.288,10.523,7.445,16.27,9.424c5.752,2.002,11.625,2.779,17.204,2.756c5.589-0.082,10.87-1.149,15.609-2.803       c9.515-3.366,16.638-9.166,21.428-14.803l0.039-0.046l0.059-0.004C324.153,142.592,333.013,141.943,334.044,141.868z"/>
				</g>
			</g>
		</g>
	</g>
</g>
<g id="Device">
	<g>
		<g>
			<g>
				<g>
					<g>
						<g>
							<g>
								<path style="fill:#455a64;" d="M567.214,452.32H188.32c-8.045,0-14.567-6.522-14.567-14.567V197.062          c0-8.045,6.522-14.567,14.567-14.567h378.894c8.045,0,14.567,6.522,14.567,14.567v240.691          C581.781,445.798,575.259,452.32,567.214,452.32z"/>
							</g>
						</g>
					</g>
					<g>
						<g>
							<g>
								<path style="fill:#455a64;" d="M581.53,455.973H175.058c-9.829,0-17.798-7.968-17.798-17.798v-5.812h442.068v5.812          C599.328,448.004,591.36,455.973,581.53,455.973z"/>
							</g>
						</g>
					</g>
					<g>
						<g>
							<g>
								<rect x="185.276" y="193.215" style="fill:#F5F5F5;" width="384.982" height="227.863"/>
							</g>
						</g>
					</g>
					<g>
						<g>
							<g>
								<g>
									<path style="fill:#263238;" d="M338.114,432.363c-0.008-0.004,0.136-0.009,0.425-0.013           c0.314-0.003,0.743-0.008,1.294-0.013c1.173-0.007,2.862-0.016,5.027-0.029c4.418-0.018,10.779-0.044,18.654-0.076           c15.877-0.034,37.854-0.081,62.37-0.134l0.46-0.001l-0.232,0.398c-0.785,1.345-1.628,2.788-2.475,4.241           c-0.889,1.522-1.772,3.035-2.618,4.484l-0.077,0.131l-0.151,0c-33.922-0.064-62.891-0.118-77.19-0.145l-0.067,0           l-0.034-0.056c-1.759-2.86-3.113-5.063-4.042-6.574c-0.439-0.719-0.776-1.272-1.016-1.665           C338.215,432.543,338.114,432.363,338.114,432.363s0.138,0.2,0.383,0.578c0.255,0.394,0.614,0.949,1.08,1.669           c0.947,1.474,2.329,3.624,4.124,6.415l-0.101-0.056c14.299-0.027,43.269-0.081,77.19-0.144l-0.228,0.131           c0.846-1.449,1.729-2.962,2.618-4.485c0.848-1.453,1.691-2.897,2.476-4.241l0.228,0.397           c-24.415-0.053-46.303-0.1-62.115-0.134c-7.912-0.032-14.302-0.058-18.741-0.076c-2.199-0.012-3.914-0.022-5.105-0.029           c-0.57-0.005-1.013-0.01-1.338-0.013C338.281,432.372,338.114,432.363,338.114,432.363z"/>
								</g>
							</g>
						</g>
					</g>
				</g>
			</g>
			<g>
				<g>
					<g>
						<path style="fill-rule:evenodd;clip-rule:evenodd;fill:#E0E0E0;" d="M326.151,235.603c0.709-0.949,1.534-1.785,2.446-2.497        l-0.582-3.188l4.932-2.104l1.899,2.626c1.145-0.166,2.32-0.183,3.496-0.038l1.842-2.665l4.975,1.999l-0.514,3.198        c0.949,0.709,1.786,1.534,2.497,2.446l3.188-0.582l2.105,4.932l-2.626,1.9c0.166,1.145,0.183,2.32,0.038,3.495l2.665,1.842        l-1.999,4.975l-3.198-0.514c-0.709,0.949-1.534,1.786-2.447,2.497l0.582,3.188l-4.932,2.104l-1.899-2.626        c-1.145,0.166-2.32,0.183-3.495,0.038l-1.842,2.665l-4.975-1.999l0.514-3.198c-0.949-0.709-1.786-1.534-2.497-2.447        l-3.188,0.582l-2.105-4.932l2.626-1.9c-0.166-1.145-0.183-2.32-0.038-3.495l-2.665-1.842l1.999-4.975L326.151,235.603        L326.151,235.603z M331.487,241.145c-1.184,2.948,0.245,6.298,3.193,7.482c2.948,1.184,6.297-0.245,7.482-3.193        c1.184-2.948-0.245-6.298-3.193-7.482C336.021,236.768,332.671,238.197,331.487,241.145z"/>
					</g>
				</g>
				<g>
					<g>
						<path style="fill-rule:evenodd;clip-rule:evenodd;fill:#F5F5F5;" d="M306.163,339.02c2.053-2.75,4.444-5.173,7.087-7.236        l-1.687-9.239l14.291-6.098l5.503,7.609c3.318-0.482,6.722-0.531,10.128-0.111l5.338-7.722l14.417,5.793l-1.489,9.267        c2.75,2.054,5.174,4.446,7.236,7.089l9.238-1.686l6.098,14.29l-7.609,5.504c0.482,3.318,0.531,6.722,0.111,10.128l7.722,5.338        l-5.792,14.417l-9.268-1.489c-2.053,2.75-4.445,5.174-7.089,7.236l1.687,9.239l-14.29,6.098l-5.504-7.61        c-3.318,0.482-6.721,0.53-10.128,0.111l-5.338,7.723l-14.417-5.793l1.489-9.267c-2.75-2.054-5.174-4.445-7.236-7.089        l-9.238,1.687l-6.098-14.29l7.61-5.504c-0.482-3.318-0.53-6.721-0.111-10.128l-7.722-5.338l5.792-14.417L306.163,339.02        L306.163,339.02z M321.622,355.077c-3.432,8.542,0.71,18.248,9.252,21.679c8.542,3.432,18.247-0.71,21.679-9.252        c3.432-8.541-0.71-18.248-9.252-21.68C334.76,342.394,325.054,346.536,321.622,355.077z"/>
					</g>
				</g>
				<g>
					<g>
						<g>
							<path style="fill:none;" d="M233.949,358.267c1.136-1.521,2.459-2.862,3.921-4.003l-0.933-5.111l7.906-3.374l3.045,4.21         c1.836-0.267,3.719-0.294,5.604-0.062l2.953-4.272l7.976,3.205l-0.824,5.127c1.522,1.136,2.863,2.459,4.003,3.922         l5.111-0.933l3.374,7.906l-4.21,3.045c0.266,1.836,0.294,3.719,0.061,5.603l4.272,2.953l-3.204,7.976l-5.128-0.824         c-1.136,1.521-2.459,2.862-3.922,4.003l0.933,5.111l-7.906,3.374l-3.045-4.21c-1.835,0.267-3.719,0.293-5.603,0.061         l-2.953,4.273l-7.976-3.205l0.824-5.127c-1.522-1.137-2.863-2.459-4.003-3.922l-5.111,0.933l-3.374-7.906l4.21-3.045         c-0.266-1.836-0.293-3.719-0.061-5.603l-4.272-2.953l3.205-7.976L233.949,358.267L233.949,358.267z M242.502,367.151         c-1.899,4.726,0.393,10.096,5.118,11.994c4.726,1.899,10.095-0.393,11.994-5.119c1.899-4.725-0.393-10.096-5.118-11.994         C249.771,360.134,244.401,362.425,242.502,367.151z"/>
						</g>
					</g>
					<g>
						<g>
							<g>
								<path style="fill:#263238;" d="M242.502,367.151c0,0,0.191-0.811,1.024-2.042c0.819-1.204,2.443-2.833,5.039-3.581          c1.281-0.36,2.784-0.505,4.335-0.193c1.537,0.317,3.146,1.004,4.465,2.208c0.673,0.581,1.265,1.289,1.751,2.082          c0.498,0.786,0.883,1.67,1.116,2.61c0.509,1.873,0.379,3.974-0.371,5.889c-0.783,1.902-2.143,3.51-3.806,4.511          c-0.819,0.518-1.709,0.89-2.613,1.113c-0.9,0.236-1.817,0.339-2.706,0.292c-1.785-0.044-3.422-0.661-4.752-1.496          c-1.336-0.848-2.32-1.992-2.996-3.139c-1.356-2.336-1.401-4.636-1.159-6.072          C242.079,367.868,242.502,367.151,242.502,367.151c0.062,0.02-0.288,0.77-0.47,2.21c-0.176,1.414-0.067,3.634,1.277,5.853          c0.669,1.089,1.627,2.168,2.91,2.96c1.278,0.779,2.84,1.352,4.533,1.379c0.842,0.038,1.71-0.065,2.561-0.294          c0.855-0.216,1.695-0.572,2.467-1.065c1.57-0.952,2.848-2.47,3.589-4.267c0.707-1.81,0.835-3.79,0.36-5.563          c-0.217-0.89-0.577-1.728-1.045-2.475c-0.456-0.754-1.011-1.429-1.646-1.984c-1.241-1.151-2.765-1.819-4.226-2.141          c-1.474-0.316-2.913-0.2-4.149,0.123c-2.505,0.672-4.12,2.2-4.972,3.342C242.827,366.395,242.561,367.179,242.502,367.151z"/>
							</g>
						</g>
					</g>
					<g>
						<g>
							<g>
								<path style="fill:#263238;" d="M233.949,358.267c0.003,0.007-0.106-0.004-0.322-0.032c-0.239-0.033-0.559-0.078-0.974-0.136          c-0.892-0.133-2.177-0.324-3.845-0.572l0.091-0.052c-0.809,2.047-1.872,4.739-3.158,7.994l-0.048-0.16          c1.298,0.889,2.741,1.878,4.284,2.936l0.077,0.053l-0.011,0.094c-0.207,1.734-0.209,3.614,0.079,5.559l0.015,0.104          l-0.085,0.062c-1.309,0.953-2.727,1.984-4.201,3.057l0.063-0.226c1.068,2.487,2.202,5.126,3.392,7.898l-0.229-0.123          c1.582-0.292,3.324-0.613,5.109-0.943l0.13-0.024l0.082,0.105c1.062,1.359,2.41,2.716,3.967,3.873l0.11,0.082l-0.022,0.137          c-0.253,1.59-0.532,3.343-0.816,5.128l-0.145-0.256c2.506,1.004,5.209,2.086,7.98,3.195l-0.294,0.088          c0.918-1.331,1.927-2.794,2.949-4.275l0.086-0.125l0.151,0.019c1.723,0.212,3.635,0.215,5.535-0.065l0.153-0.023          l0.091,0.126c0.954,1.318,1.996,2.756,3.048,4.208l-0.311-0.086c2.503-1.069,5.185-2.215,7.905-3.377l-0.155,0.289          c-0.295-1.614-0.614-3.356-0.934-5.111l-0.029-0.157l0.126-0.098c1.388-1.08,2.734-2.426,3.869-3.949l0.003-0.004          l0.097-0.128l0.156,0.025c1.721,0.277,3.432,0.552,5.127,0.824l-0.287,0.162c1.084-2.695,2.153-5.354,3.206-7.975          l0.094,0.313c-1.438-0.995-2.861-1.98-4.271-2.955l-0.129-0.089l0.019-0.156c0.231-1.859,0.205-3.725-0.057-5.534          l-0.022-0.154l0.126-0.091c1.424-1.029,2.827-2.041,4.212-3.042l-0.084,0.303c-1.149-2.7-2.271-5.337-3.366-7.909          l0.267,0.144c-1.735,0.314-3.438,0.623-5.112,0.927l-0.142,0.026l-0.088-0.113c-1.162-1.495-2.503-2.798-3.953-3.884          l-0.111-0.083l0.022-0.136c0.286-1.757,0.562-3.461,0.832-5.125l0.135,0.239c-2.803-1.133-5.45-2.203-7.969-3.221          l0.242-0.073c-1.042,1.5-2.02,2.907-2.963,4.265l-0.066,0.095l-0.113-0.014c-1.968-0.246-3.822-0.2-5.555,0.045          l-0.105,0.015l-0.061-0.085c-1.101-1.533-2.093-2.915-3.031-4.22l0.188,0.052c-3.068,1.293-5.683,2.395-7.921,3.339          l0.07-0.13c0.36,2.044,0.655,3.721,0.9,5.117l0.009,0.051l-0.041,0.031c-1.494,1.155-2.456,2.186-3.072,2.879          c-0.29,0.342-0.512,0.604-0.675,0.795C234.025,358.19,233.952,358.273,233.949,358.267          c-0.002-0.007,0.063-0.106,0.192-0.289c0.137-0.186,0.344-0.466,0.643-0.825c0.597-0.715,1.544-1.772,3.034-2.957          l-0.031,0.082c-0.264-1.393-0.58-3.066-0.966-5.105l-0.018-0.092l0.088-0.038c2.23-0.963,4.834-2.088,7.891-3.408          l0.114-0.049l0.074,0.101c0.946,1.299,1.947,2.673,3.059,4.199l-0.165-0.07c1.76-0.26,3.646-0.318,5.651-0.078l-0.179,0.08          c0.936-1.362,1.908-2.774,2.943-4.279l0.091-0.133l0.151,0.06c2.524,1.008,5.174,2.067,7.982,3.189l0.163,0.065          l-0.028,0.174c-0.265,1.665-0.536,3.37-0.815,5.128l-0.089-0.219c1.486,1.106,2.86,2.434,4.053,3.96l-0.229-0.087          c1.673-0.308,3.376-0.621,5.109-0.939l0.191-0.035l0.077,0.179c1.1,2.57,2.227,5.205,3.382,7.902l0.079,0.185l-0.163,0.118          c-1.383,1.002-2.784,2.017-4.207,3.048l0.103-0.244c0.271,1.853,0.3,3.766,0.065,5.671l-0.11-0.245          c1.41,0.974,2.835,1.958,4.273,2.951l0.172,0.119l-0.078,0.194c-1.052,2.621-2.12,5.281-3.202,7.977l-0.079,0.196          l-0.208-0.033c-1.695-0.272-3.406-0.547-5.127-0.823l0.254-0.103l-0.003,0.004c-1.164,1.562-2.545,2.941-3.968,4.049          l0.097-0.255c0.32,1.755,0.638,3.497,0.932,5.111l0.038,0.207l-0.193,0.082c-2.72,1.159-5.404,2.303-7.907,3.37          l-0.191,0.081l-0.121-0.168c-1.05-1.453-2.089-2.893-3.042-4.212l0.244,0.103c-1.947,0.284-3.907,0.279-5.67,0.058          l0.237-0.106c-1.025,1.479-2.036,2.94-2.957,4.27l-0.112,0.162l-0.182-0.073c-2.768-1.116-5.468-2.205-7.972-3.214          l-0.175-0.071l0.03-0.186c0.289-1.785,0.574-3.537,0.831-5.126l0.089,0.219c-1.589-1.187-2.96-2.578-4.039-3.97l0.211,0.08          c-1.787,0.323-3.53,0.637-5.113,0.923l-0.164,0.03l-0.065-0.153c-1.177-2.777-2.299-5.421-3.355-7.913l-0.059-0.139          l0.122-0.088c1.48-1.064,2.904-2.088,4.218-3.033l-0.07,0.165c-0.281-1.979-0.266-3.888-0.043-5.647l0.066,0.147          c-1.535-1.07-2.969-2.07-4.26-2.97l-0.089-0.062l0.04-0.099c1.324-3.241,2.418-5.92,3.251-7.957l0.026-0.063l0.066,0.011          c1.647,0.284,2.916,0.503,3.797,0.655c0.417,0.076,0.74,0.135,0.98,0.178C233.833,358.235,233.946,358.26,233.949,358.267z"/>
							</g>
						</g>
					</g>
				</g>
				<g>
					<g>
						<path style="fill-rule:evenodd;clip-rule:evenodd;fill:#E0E0E0;" d="M214.422,252.738c1.633-4.442,3.84-8.585,6.523-12.35        l-5.861-11.547l16.489-13.678l10.265,7.893c4.196-1.941,8.676-3.344,13.343-4.129l4.019-12.304l21.332,1.988l1.676,12.834        c4.442,1.633,8.586,3.841,12.351,6.525l11.547-5.861l13.677,16.49l-7.893,10.266c1.941,4.196,3.344,8.675,4.128,13.342        l12.306,4.02l-1.988,21.331l-12.834,1.676c-1.633,4.442-3.841,8.586-6.525,12.35l5.861,11.547l-16.489,13.678l-10.266-7.894        c-4.195,1.941-8.675,3.344-13.342,4.128l-4.019,12.306l-21.332-1.988l-1.676-12.834c-4.442-1.633-8.586-3.84-12.351-6.524        l-11.547,5.861l-13.678-16.489l7.894-10.266c-1.941-4.196-3.344-8.675-4.128-13.342l-12.305-4.019l1.988-21.332        L214.422,252.738L214.422,252.738z M241.168,267.884c-1.178,12.639,8.113,23.839,20.751,25.017        c12.638,1.178,23.839-8.113,25.016-20.751c1.178-12.639-8.113-23.839-20.751-25.017        C253.546,245.955,242.345,255.246,241.168,267.884z"/>
					</g>
				</g>
			</g>
		</g>
		<g>
			<g>
				<line style="fill:#263238;" x1="173.753" y1="432.363" x2="581.781" y2="432.363"/>
			</g>
			<g>
				<g>
					<path style="fill:#263238;" d="M581.781,432.363c0,0.137-91.348,0.248-204.004,0.248c-112.696,0-204.024-0.111-204.024-0.248       c0-0.137,91.328-0.248,204.024-0.248C490.434,432.115,581.781,432.226,581.781,432.363z"/>
				</g>
			</g>
		</g>
	</g>
</g>
<g id="Character">
	<g>
		<g>
			<g>
				<g>
					<path style="fill:#263238;" d="M362.323,125.794c-6.293,2.761-9.954,9.542-11.327,16.275       c-1.373,6.733-0.923,13.691-1.518,20.537c-0.595,6.846-2.473,14.001-7.469,18.718c-4.656,4.396-11.514,6.186-15.481,11.213       c-2.945,3.732-3.809,9.004-2.21,13.481c1.599,4.477,5.608,8.008,10.251,9.03c-3.138,4.969-1.567,11.907,2.447,16.2       c4.014,4.293,9.911,6.338,15.721,7.223c10.22,1.556,21.119-0.163,29.752-5.851c8.633-5.688,14.674-15.566,14.653-25.904"/>
				</g>
				<g>
					<g>
						<path style="fill:#455a64;" d="M335.071,227.373c0,0-0.566-0.705-1.108-2.228c-0.539-1.509-0.917-3.897-0.402-6.75        c0.259-1.419,0.726-2.942,1.443-4.482c0.736-1.532,1.711-3.067,2.889-4.562c2.344-3.009,5.488-5.776,8.651-8.754        c3.162-2.99,6.057-5.965,8.41-8.902c2.383-2.913,4.165-5.817,5.381-8.382c1.211-2.571,1.857-4.794,2.185-6.35        c0.188-0.774,0.242-1.392,0.33-1.803c0.074-0.414,0.121-0.631,0.138-0.629s0.003,0.222-0.038,0.641        c-0.056,0.417-0.079,1.044-0.24,1.829c-0.272,1.579-0.873,3.842-2.056,6.46c-1.188,2.612-2.96,5.568-5.342,8.52        c-2.353,2.977-5.255,5.978-8.426,8.977c-3.176,2.989-6.305,5.726-8.634,8.677c-1.169,1.464-2.141,2.967-2.876,4.456        c-0.717,1.498-1.194,2.983-1.469,4.369c-0.548,2.785-0.233,5.124,0.241,6.626C334.622,226.6,335.124,227.345,335.071,227.373z        "/>
					</g>
				</g>
			</g>
			<g>
				<g>
					<path style="fill:#263238;" d="M437.535,148.382c0,9.242,4.264,17.712,8.098,20.826c5.425,4.405,13.383,6.535,18.628,8.001       c7.639,2.135,14.041,8.823,14.996,16.697c0.955,7.874-4.195,16.293-11.875,18.273c4.828,4.93,3.391,13.407-0.583,19.048       c-7.531,10.691-22.563,14.799-35.028,10.846c-12.465-3.952-22.018-15-25.739-27.536"/>
				</g>
				<g>
					<g>
						<path style="fill:#455a64;" d="M456.54,239.403c-0.034-0.084,1.223-0.084,2.938-1.293c0.837-0.605,1.749-1.528,2.461-2.819        c0.725-1.274,1.264-2.911,1.316-4.757c0.046-1.84-0.503-3.861-1.545-5.765c-1.047-1.909-2.602-3.699-4.491-5.267        c-3.785-3.191-8.935-5.184-13.914-8.047c-2.481-1.455-4.783-3.144-6.609-5.189c-0.914-1.016-1.703-2.12-2.31-3.294        c-0.61-1.17-1.028-2.41-1.293-3.636c-0.534-2.465-0.482-4.87-0.323-7.074c0.167-2.21,0.448-4.247,0.643-6.11        c0.409-3.719,0.363-6.77-0.139-8.804c-0.135-0.497-0.256-0.943-0.363-1.338c-0.114-0.385-0.268-0.69-0.362-0.949        c-0.203-0.512-0.303-0.786-0.287-0.794c0.015-0.008,0.145,0.251,0.379,0.754c0.109,0.254,0.279,0.557,0.409,0.941        c0.121,0.396,0.259,0.843,0.412,1.341c0.567,2.046,0.667,5.144,0.3,8.883c-0.173,1.872-0.434,3.911-0.582,6.104        c-0.14,2.187-0.172,4.553,0.359,6.946c0.513,2.39,1.703,4.743,3.52,6.704c1.783,1.988,4.045,3.647,6.497,5.085        c4.924,2.836,10.108,4.853,13.957,8.125c1.917,1.608,3.498,3.448,4.559,5.421c1.056,1.969,1.604,4.054,1.535,5.971        c-0.077,1.913-0.658,3.588-1.426,4.885c-0.755,1.313-1.714,2.243-2.591,2.838c-0.873,0.619-1.685,0.845-2.211,1.009        C456.829,239.377,456.542,239.42,456.54,239.403z"/>
					</g>
				</g>
				<g>
					<g>
						<path style="fill:#455a64;" d="M474.543,208.568c-0.092-0.033,0.803-0.761,0.933-2.568c0.043-0.881-0.133-1.991-0.714-3.116        c-0.567-1.118-1.486-2.301-2.834-3.13c-1.356-0.829-3.057-1.35-4.914-1.659c-1.861-0.323-3.891-0.441-6.021-0.771        c-4.256-0.658-8.803-2.339-12.935-5.116c-4.123-2.793-7.383-6.39-9.557-10.109c-2.196-3.719-3.355-7.486-3.925-10.68        c-0.571-3.207-0.542-5.859-0.409-7.665c0.07-0.905,0.154-1.604,0.24-2.074c0.075-0.471,0.122-0.717,0.139-0.715        c0.059,0.008-0.114,0.997-0.186,2.8c-0.074,1.798-0.048,4.426,0.561,7.591c0.608,3.151,1.787,6.858,3.973,10.51        c2.164,3.652,5.381,7.179,9.441,9.931c4.07,2.735,8.541,4.402,12.729,5.076c2.096,0.339,4.133,0.472,6.02,0.817        c1.884,0.333,3.629,0.884,5.029,1.767c1.406,0.893,2.333,2.135,2.898,3.305c0.577,1.177,0.733,2.337,0.658,3.251        c-0.079,0.925-0.408,1.584-0.659,1.991c-0.134,0.199-0.261,0.335-0.337,0.43C474.593,208.529,474.55,208.574,474.543,208.568z        "/>
					</g>
				</g>
			</g>
			<g>
				<g>
					<g>
						<g>
							<g>
								<g>
									<g>
										<path style="fill:#B78876;" d="M366.811,256.714c1.316-13.809,2.449-28.371,2.449-28.371s-17.494-4.703-18.895-28.269            c-1.336-22.475,7.339-73.216,7.339-73.216l0,0c26.623-7.92,56.263,2.014,72.499,24.297l0,0l-12.539,111.981            c-1.456,13-13.793,22.102-27.701,20.437h0C375.917,281.89,365.557,269.87,366.811,256.714z"/>
									</g>
								</g>
								<g>
									<g>
										<g>
											<path style="fill:#263238;" d="M360.358,167.418c-0.21,1.566,0.943,3.035,2.574,3.285             c1.628,0.249,3.121-0.815,3.331-2.381c0.21-1.566-0.942-3.037-2.571-3.286             C362.062,164.786,360.569,165.853,360.358,167.418z"/>
										</g>
									</g>
									<g>
										<g>
											<g>
												<path style="fill:#263238;" d="M355.862,163.612c0.331,0.424,2.749-1.022,5.951-0.698              c3.202,0.277,5.39,2.156,5.776,1.798c0.188-0.157-0.119-0.894-1.069-1.74c-0.934-0.841-2.581-1.731-4.577-1.92              c-1.996-0.185-3.746,0.384-4.784,1.041C356.1,162.751,355.697,163.42,355.862,163.612z"/>
											</g>
										</g>
									</g>
								</g>
								<g>
									<g>
										<g>
											<path style="fill:#263238;" d="M393.084,171.21c-0.21,1.566,0.943,3.035,2.574,3.285             c1.628,0.249,3.121-0.815,3.331-2.381c0.21-1.566-0.943-3.037-2.571-3.287             C394.787,168.578,393.294,169.644,393.084,171.21z"/>
										</g>
									</g>
									<g>
										<g>
											<g>
												<path style="fill:#263238;" d="M389.159,168.063c0.331,0.424,2.752-1.021,5.951-0.698              c3.202,0.277,5.39,2.156,5.777,1.798c0.187-0.157-0.116-0.893-1.07-1.74c-0.934-0.841-2.581-1.731-4.576-1.919              c-1.996-0.185-3.746,0.384-4.785,1.041C389.4,167.203,388.996,167.872,389.159,168.063z"/>
											</g>
										</g>
									</g>
								</g>
								<g>
									<g>
										<g>
											<path style="fill:#263238;" d="M375.201,190.667c0.033-0.181-1.924-0.72-5.109-1.45c-0.809-0.165-1.567-0.404-1.65-0.975             c-0.135-0.61,0.295-1.458,0.784-2.37c0.963-1.903,1.972-3.898,3.031-5.988c4.23-8.535,7.379-15.585,7.034-15.752             c-0.345-0.167-4.055,6.614-8.285,15.149c-1.023,2.106-2.001,4.114-2.933,6.036c-0.401,0.899-1.037,1.9-0.74,3.167             c0.16,0.633,0.717,1.135,1.227,1.328c0.508,0.211,0.967,0.265,1.37,0.33             C373.159,190.635,375.171,190.848,375.201,190.667z"/>
										</g>
									</g>
								</g>
								<g>
									<g>
										<path style="fill:#AA6550;" d="M369.26,228.343c0,0,15.511,2.542,31.891-5.231c0,0-9.108,15.197-32.117,10.74            L369.26,228.343z"/>
									</g>
								</g>
								<g>
									<g>
										<path style="fill:#AA6550;" d="M375.796,198.518c1.302-1.41,3.401-2.047,5.384-1.634c1.375,0.286,2.713,1.094,3.446,2.309            c0.733,1.214,0.752,2.838-0.122,3.842c-0.984,1.13-2.817,1.233-4.303,0.648c-1.486-0.585-2.702-1.72-3.852-2.846            c-0.318-0.311-0.643-0.635-0.822-1.037c-0.178-0.401-0.175-0.903,0.122-1.192"/>
									</g>
								</g>
								<g>
									<g>
										<g>
											<path style="fill:#263238;" d="M384.407,193.81c-0.518-0.081-0.867,3.394-4.084,5.568             c-3.213,2.183-6.88,1.428-6.955,1.911c-0.07,0.213,0.759,0.756,2.318,0.953c1.529,0.204,3.818-0.069,5.786-1.399             c1.964-1.335,2.943-3.276,3.202-4.691C384.95,194.712,384.647,193.813,384.407,193.81z"/>
										</g>
									</g>
								</g>
							</g>
							<g>
								<g>
									<path style="fill:#B78876;" d="M419.162,175.909c2.528-0.236,5.145,0.09,7.422,1.213c2.277,1.122,4.185,3.087,4.979,5.499           c0.796,2.418,0.427,5.124-0.666,7.423c-1.093,2.299-2.862,4.223-4.841,5.824c-1.421,1.15-3.009,2.171-4.799,2.546           c-1.789,0.374-3.816,0.002-5.089-1.31"/>
								</g>
							</g>
							<g>
								<g>
									<g>
										<path style="fill:#AA6550;" d="M419.053,191.086c-0.293,0.064,0.638,1.671,2.967,1.284c1.12-0.18,2.28-1.035,3.045-2.172            c0.769-1.155,1.322-2.449,1.64-3.996c0.31-1.533,0.119-3.214-0.619-4.471c-0.696-1.275-1.957-2.112-3.071-2.246            c-2.328-0.282-3.21,1.263-2.951,1.337c0.168,0.207,1.155-0.537,2.647-0.019c1.437,0.413,2.677,2.57,2.114,5.047            c-0.529,2.526-1.74,4.766-3.156,5.215C420.186,191.645,419.229,190.896,419.053,191.086z"/>
									</g>
								</g>
							</g>
						</g>
					</g>
					<g>
						<path style="fill:#263238;" d="M368.919,136.782c-3.423,7.946-10.736,14.104-19.148,16.126        c-0.495-5.729-0.831-11.53,0.105-17.204c0.936-5.673,3.247-11.27,7.385-15.264c4.137-3.993,10.273-6.143,15.827-4.655"/>
					</g>
				</g>
			</g>
			<g>
				<path style="fill:#263238;" d="M370.519,126.256c-2.886,7.259-1.699,15.99,3.02,22.215c4.719,6.226,12.803,9.728,20.572,8.913      c1.523-0.16,3.115-0.465,4.544,0.086c1.525,0.588,2.529,2.024,3.438,3.382c3.698,5.527,7.606,11.272,13.435,14.473      c5.829,3.201,14.175,2.886,18.072-2.502c1.896-2.621,2.453-5.951,2.893-9.155c1.478-10.773,2.083-22.336-3.05-31.922      c-3.814-7.122-10.515-12.416-17.927-15.629c-7.412-3.213-15.528-4.489-23.592-4.983c-4.686-0.287-9.537-0.293-13.883,1.483      c-4.346,1.776-8.099,5.722-8.345,10.41"/>
			</g>
			<g>
				<g>
					<path style="fill:#455a64;" d="M435.463,166.714c-0.017,0.004-0.114-0.268-0.284-0.79c-0.158-0.526-0.426-1.29-0.783-2.268       c-0.727-1.949-1.947-4.723-3.945-7.862c-2.009-3.12-4.847-6.588-8.671-9.676c-3.805-3.117-8.653-5.624-13.887-7.819       c-5.246-2.197-10.375-4.009-14.862-6.11c-4.491-2.084-8.32-4.444-11.207-6.844c-2.885-2.406-4.824-4.788-5.944-6.556       c-0.556-0.889-0.961-1.593-1.19-2.096c-0.246-0.493-0.367-0.755-0.351-0.763c0.015-0.008,0.166,0.24,0.439,0.716       c0.256,0.486,0.687,1.17,1.262,2.036c1.161,1.722,3.121,4.044,6.005,6.392c2.887,2.342,6.702,4.651,11.177,6.701       c4.47,2.065,9.597,3.863,14.863,6.067c5.254,2.204,10.145,4.746,13.982,7.921c3.853,3.143,6.691,6.671,8.679,9.843       c1.977,3.19,3.156,6.005,3.83,7.984c0.331,0.993,0.57,1.769,0.698,2.306C435.414,166.428,435.479,166.71,435.463,166.714z"/>
				</g>
			</g>
			<g>
				<g>
					<path style="fill:#455a64;" d="M428.249,165.438c-0.015,0.007-0.151-0.22-0.394-0.658c-0.253-0.433-0.632-1.068-1.191-1.836       c-1.101-1.543-2.982-3.595-5.758-5.558c-2.759-1.989-6.413-3.778-10.558-5.543c-2.07-0.894-4.258-1.811-6.482-2.869       c-2.22-1.063-4.483-2.245-6.724-3.588c-4.487-2.68-8.459-5.755-11.646-8.981c-3.195-3.222-5.598-6.568-7.272-9.557       c-1.688-2.987-2.643-5.611-3.2-7.438c-0.261-0.921-0.453-1.638-0.548-2.133c-0.105-0.492-0.152-0.752-0.136-0.756       c0.017-0.004,0.096,0.249,0.233,0.732c0.126,0.486,0.347,1.192,0.635,2.099c0.611,1.8,1.608,4.383,3.321,7.323       c1.698,2.941,4.108,6.234,7.29,9.408c3.176,3.179,7.12,6.216,11.577,8.878c2.226,1.334,4.473,2.512,6.679,3.575       c2.208,1.058,4.387,1.981,6.455,2.888c4.141,1.791,7.817,3.629,10.581,5.678c2.781,2.021,4.648,4.139,5.711,5.731       c0.54,0.793,0.896,1.449,1.121,1.9C428.159,165.189,428.265,165.431,428.249,165.438z"/>
				</g>
			</g>
			<g>
				<g>
					<path style="fill:#455a64;" d="M349.852,162.117c-0.016,0.006-0.093-0.178-0.225-0.534c-0.128-0.357-0.329-0.883-0.548-1.572       c-0.368-1.394-0.887-3.442-1.002-6.038c-0.115-2.584,0.087-5.71,1.027-9.017c0.936-3.291,2.487-6.818,4.964-9.929       c1.191-1.591,2.606-2.933,4.021-4.152c1.447-1.185,2.941-2.187,4.364-3.124c2.856-1.856,5.406-3.557,7.22-5.368       c1.843-1.779,2.955-3.563,3.535-4.866c0.58-1.309,0.712-2.105,0.764-2.091c0.017,0.004-0.014,0.201-0.088,0.575       c-0.081,0.372-0.232,0.916-0.499,1.592c-0.533,1.347-1.624,3.199-3.465,5.038c-1.812,1.874-4.379,3.628-7.215,5.501       c-1.414,0.946-2.889,1.948-4.308,3.119c-1.385,1.203-2.77,2.519-3.939,4.082c-2.432,3.054-3.969,6.514-4.915,9.748       c-0.95,3.25-1.185,6.326-1.116,8.88c0.069,2.566,0.53,4.602,0.838,6.001c0.186,0.649,0.337,1.175,0.456,1.59       C349.823,161.916,349.868,162.111,349.852,162.117z"/>
				</g>
			</g>
			<g>
				<g>
					<g>
						<path style="fill:#5b0888;" d="M407.161,208.39c-5.418,0-10.853-1.846-14.857-5.449l0.636-0.707        c6.951,6.254,18.413,6.977,26.095,1.649c7.683-5.329,11.02-16.319,7.597-25.02l0.885-0.349        c3.578,9.094,0.09,20.58-7.939,26.15C415.974,207.165,411.573,208.39,407.161,208.39z"/>
					</g>
					<g>
						<path style="fill:#5b0888;" d="M399.429,204.32c0,2.545-2.063,4.607-4.607,4.607c-2.545,0-4.607-2.063-4.607-4.607        s2.063-4.607,4.607-4.607C397.366,199.713,399.429,201.776,399.429,204.32z"/>
					</g>
				</g>
				<g>
					
						<ellipse transform="matrix(0.1217 -0.9926 0.9926 0.1217 198.2814 585.8817)" style="fill:#5b0888;" cx="430.203" cy="180.899" rx="15.431" ry="15.43"/>
				</g>
				<g>
					<g>
						<path style="fill:#5b0888;" d="M427.705,178.753c-0.102-0.011-0.065-1.407,0.089-3.914c0.05-1.267,0.11-2.799,0.18-4.57        c0.018-1.782,0.076-3.808,0.005-6.046c-0.001-1.12-0.076-2.289-0.143-3.507c-0.043-1.22-0.184-2.481-0.305-3.787        c-0.099-1.31-0.348-2.644-0.521-4.029c-0.128-0.685-0.258-1.381-0.389-2.085c-0.122-0.707-0.272-1.417-0.459-2.127        c-1.308-5.706-3.771-11.834-8.078-17.015c-4.302-5.19-9.93-8.667-15.383-10.78c-5.469-2.144-10.728-3.168-15.146-3.807        c-4.432-0.619-8.062-0.805-10.567-0.982c-2.508-0.114-3.9-0.215-3.901-0.32c-0.001-0.101,1.39-0.195,3.914-0.259        c2.521,0,6.182,0.026,10.685,0.518c4.488,0.514,9.86,1.441,15.511,3.573c5.628,2.098,11.534,5.679,16.029,11.106        c4.502,5.415,7.006,11.802,8.271,17.66c0.182,0.731,0.326,1.46,0.44,2.184c0.123,0.722,0.245,1.434,0.365,2.136        c0.154,1.414,0.382,2.779,0.456,4.111c0.097,1.33,0.21,2.613,0.224,3.849c0.037,1.236,0.081,2.421,0.049,3.552        c0.004,2.263-0.129,4.304-0.226,6.095c-0.148,1.788-0.29,3.326-0.433,4.579C428.039,177.39,427.807,178.764,427.705,178.753z"/>
					</g>
				</g>
				<g style="opacity:0.4;">
					<path d="M441.246,180.898c0,5.866-4.755,10.621-10.621,10.621c-5.866,0-10.621-4.755-10.621-10.621       c0-5.866,4.755-10.621,10.621-10.621C436.49,170.278,441.246,175.033,441.246,180.898z" fill="#000000"/>
				</g>
				<g>
					<g>
						<path style="fill:#263238;" d="M427.131,170.993c-0.007-0.016,0.155-0.1,0.475-0.247c0.322-0.139,0.815-0.309,1.473-0.436        c1.295-0.23,3.373-0.243,5.509,0.943c1.055,0.576,2.101,1.48,2.83,2.715c0.747,1.221,1.155,2.751,1.136,4.356        c-0.015,1.601-0.507,3.307-1.569,4.718c-1.06,1.412-2.684,2.438-4.488,2.874c-1.803,0.441-3.716,0.278-5.31-0.482        c-1.601-0.758-2.802-2.071-3.54-3.491c-0.742-1.429-1.022-2.988-0.907-4.412c0.13-1.435,0.668-2.684,1.311-3.698        c1.305-2.047,3.103-3.11,4.398-3.426c0.65-0.177,1.179-0.186,1.529-0.174c0.351,0.033,0.532,0.059,0.53,0.076        c0.003,0.073-0.753-0.108-2.006,0.283c-1.236,0.361-2.935,1.431-4.154,3.426c-0.6,0.988-1.094,2.196-1.198,3.545        c-0.091,1.346,0.189,2.821,0.902,4.168c0.709,1.339,1.849,2.564,3.342,3.263c1.487,0.703,3.285,0.856,4.986,0.44        c1.702-0.411,3.227-1.374,4.218-2.685c0.996-1.311,1.475-2.916,1.5-4.434c0.03-1.52-0.342-2.976-1.034-4.138        c-0.673-1.174-1.649-2.048-2.649-2.619c-2.024-1.176-4.033-1.224-5.306-1.057C427.811,170.69,427.151,171.048,427.131,170.993        z"/>
					</g>
				</g>
				<g>
					<g>
						<path style="fill:#263238;" d="M430.533,191.36c-0.132,0.023-0.428-1.092-0.485-2.505c-0.06-1.413,0.143-2.549,0.276-2.537        c0.14,0.011,0.16,1.137,0.219,2.517C430.598,190.213,430.671,191.337,430.533,191.36z"/>
					</g>
				</g>
				<g>
					<g>
						<path style="fill:#263238;" d="M436.392,189.297c-0.128,0.05-0.621-0.912-1.103-2.148c-0.482-1.236-0.769-2.278-0.641-2.328        c0.128-0.05,0.621,0.912,1.103,2.148C436.232,188.205,436.519,189.247,436.392,189.297z"/>
					</g>
				</g>
				<g>
					<g>
						<path style="fill:#263238;" d="M440.339,184.679c-0.092,0.101-0.82-0.411-1.625-1.143c-0.806-0.733-1.384-1.409-1.292-1.51        c0.092-0.101,0.82,0.41,1.626,1.143C439.853,183.901,440.431,184.577,440.339,184.679z"/>
					</g>
				</g>
				<g>
					<g>
						<path style="fill:#263238;" d="M440.62,178.231c-0.047,0.129-0.575,0.056-1.179-0.162c-0.605-0.219-1.057-0.5-1.011-0.629        c0.047-0.129,0.574-0.056,1.179,0.163C440.214,177.82,440.667,178.102,440.62,178.231z"/>
					</g>
				</g>
				<g>
					<g>
						<path style="fill:#263238;" d="M423.596,188.978c-0.126-0.042,0.149-1.172,0.8-2.437c0.647-1.268,1.404-2.15,1.512-2.073        c0.116,0.08-0.441,1.065-1.071,2.299C424.203,187.998,423.728,189.025,423.596,188.978z"/>
					</g>
				</g>
				<g>
					<g>
						<path style="fill:#263238;" d="M420.43,183.567c-0.096-0.098,0.508-0.846,1.35-1.671c0.841-0.825,1.601-1.415,1.697-1.317        c0.096,0.098-0.508,0.846-1.35,1.671C421.285,183.076,420.525,183.665,420.43,183.567z"/>
					</g>
				</g>
				<g>
					<g>
						<path style="fill:#263238;" d="M422.908,176.211c0.035,0.132-0.396,0.362-0.962,0.512c-0.567,0.151-1.055,0.165-1.09,0.033        c-0.035-0.132,0.396-0.362,0.963-0.512C422.384,176.093,422.872,176.079,422.908,176.211z"/>
					</g>
				</g>
			</g>
		</g>
		<g>
			<g>
				<path style="fill:#B78876;" d="M503.616,260.627c-0.997-5.651-3.206-8.721-4.855-10.328c-1.546-1.508-3.038-3.078-4.888-4.203      c-2.244-1.366-5.295-3.061-7.245-3.482c-2.413-0.522-3-3.659-0.979-4.552c2.021-0.891,8.701,0.385,15.127,5.109      c6.425,4.725,3.175-7.245,2.07-11.625c-1.107-4.381-3.888-18.08-2.804-19.451c1.591-2.01,4.102-0.645,5.104,3.754      c1.015,4.452,4.941,17.401,7.238,16.766c2.263-0.625-3.672-22.859-3.672-22.859s-2.041-4.567,0.587-5.388      c4.74-1.482,9.3,22.572,9.677,24.87c0.261,1.599,2.785,0.998,2.411-0.704c-0.385-1.753-6.438-22.054-1.628-23.609      c3.692-1.193,3.938,19.757,7.541,23.333c3.606,3.575-1.818-15.907,1.759-16.903c1.331-0.37,2.381-0.462,3.873,11.132      c0.802,6.231,0.281,14.822,2.713,26.712"/>
			</g>
			<g>
				<g>
					<path style="fill:#B78876;" d="M491.631,305.349l21.859,31.37l-10.499-80.903l31.252-12.323c0,0,39.439,151.194-13.458,153.322       c0,0-36.601-1.003-63.921-64.369L491.631,305.349z"/>
				</g>
				<g>
					<g>
						<path style="fill:#AA6550;" d="M526.69,242.897c0.056,0.081-0.685,0.572-1.645,1.649c-0.955,1.062-2.096,2.799-2.562,5.041        l-0.123,0.591l-0.435-0.435c-0.488-0.488-1.015-0.981-1.615-1.415c-2.268-1.682-4.811-2.388-6.644-2.578        c-1.849-0.198-3.012,0.003-3.027-0.111c-0.019-0.066,1.133-0.442,3.064-0.36c1.909,0.073,4.612,0.737,7.005,2.511        c0.632,0.458,1.186,0.982,1.693,1.504l-0.557,0.156c0.531-2.387,1.82-4.174,2.896-5.197        C525.827,243.214,526.661,242.843,526.69,242.897z"/>
					</g>
				</g>
			</g>
		</g>
		<g>
			<g>
				<g>
					<g>
						<path style="fill:#5b0888;" d="M475.928,370.755L449.475,337.2l-6.874,34.319c-2.785,13.901-1.35,28.317,4.12,41.396        l3.414,8.163H327.652l3.062-10.904c1.727-13.36-0.586-27.309-0.183-46.443l-3.403-21.571L308.6,421.078h-54.473        c0,0,29.901-122.49,48.63-146.725c23.614-30.557,64.869-26.526,64.869-26.526l25.278,39.619l24.684-35.723        c0,0,42.421-9.017,75.537,48.003l17.722,30.374l0,0l-8.228-62.527l38.351-8.854c0,0,13.851,61.434,12.94,94.328        c-0.813,29.381-13.317,44.796-30.648,46.312C496.02,401.743,475.928,370.755,475.928,370.755z"/>
					</g>
				</g>
			</g>
			<g>
				<path style="fill:#5b0888;" d="M367.627,247.827l0.432-4.935c0,0,18.723,4.161,25,36.851c0,0,6.298-30.169,26.464-33.208      l3.401,8.691l-12.382,32.236l-21.746,6.356l-21.155-6.356l-9.622-19.107L367.627,247.827z"/>
			</g>
			<g>
				<g>
					<path style="fill:#263238;" d="M315.454,260.827c0.017-0.001,0.049,0.291,0.095,0.847c0.043,0.599,0.102,1.41,0.176,2.432       c0.136,2.113,0.356,5.169,0.66,8.941c0.603,7.545,1.639,17.954,3.269,29.387c1.64,11.435,3.563,21.718,5.099,29.13       c0.766,3.706,1.41,6.701,1.873,8.767c0.215,1.002,0.386,1.797,0.513,2.384c0.112,0.546,0.163,0.835,0.146,0.839       c-0.017,0.004-0.1-0.277-0.243-0.816c-0.149-0.582-0.35-1.37-0.603-2.363c-0.52-2.053-1.217-5.038-2.028-8.738       c-1.625-7.399-3.605-17.684-5.247-29.132c-1.632-11.446-2.614-21.873-3.128-29.431c-0.259-3.779-0.427-6.84-0.503-8.957       c-0.035-1.025-0.063-1.838-0.083-2.438C315.436,261.121,315.437,260.828,315.454,260.827z"/>
				</g>
			</g>
			<g>
				<g>
					<path style="fill:none;stroke:#4E585D;stroke-width:0.05;stroke-miterlimit:10;" d="M366.811,247.203"/>
				</g>
			</g>
			<g>
				<g>
					<path style="fill:#263238;" d="M422.461,250.558c0.014,0.01-0.078,0.172-0.267,0.472c-0.223,0.343-0.501,0.773-0.842,1.299       c-0.774,1.182-1.831,2.795-3.119,4.762c-2.619,4.03-6.157,9.649-9.832,15.993c-0.145,0.25-0.29,0.5-0.424,0.731l-0.238,0.41       l-0.201-0.428c-0.755-1.61-1.523-3.181-2.691-4.327c-1.146-1.139-2.71-1.831-4.168-1.559c-1.464,0.228-2.619,1.226-3.438,2.256       c-0.835,1.052-1.359,2.203-1.716,3.296c-0.707,2.193-1.118,4.045-1.641,5.243c-0.242,0.606-0.488,1.05-0.655,1.348       c-0.182,0.291-0.284,0.438-0.298,0.429c-0.039-0.022,0.343-0.631,0.776-1.845c0.463-1.206,0.816-3.042,1.49-5.283       c0.341-1.116,0.868-2.33,1.724-3.438c0.843-1.085,2.056-2.179,3.685-2.453c1.629-0.315,3.36,0.452,4.579,1.66       c1.254,1.223,2.044,2.852,2.802,4.461l-0.439-0.018c0.134-0.231,0.279-0.481,0.424-0.732c3.68-6.354,7.272-11.953,9.968-15.938       c1.347-1.993,2.465-3.588,3.252-4.678c0.373-0.505,0.677-0.918,0.92-1.247C422.327,250.691,422.447,250.548,422.461,250.558z"/>
				</g>
			</g>
			<g>
				<g>
					<path style="fill:#263238;" d="M404.633,269.07c0.014,0.009-0.056,0.154-0.202,0.422c-0.18,0.315-0.398,0.697-0.662,1.159       c-0.633,1.062-1.482,2.486-2.512,4.215c-1.089,1.791-2.367,3.894-3.78,6.217c-0.717,1.169-1.469,2.394-2.247,3.663       c-0.396,0.638-0.798,1.286-1.206,1.944c-0.121,0.169-0.263,0.343-0.474,0.477c-0.207,0.14-0.517,0.188-0.762,0.104       c-0.504-0.163-0.746-0.606-0.952-0.909c-3.518-5.285-6.134-10.389-8.186-13.982c-1.012-1.806-1.844-3.259-2.43-4.257       c-0.584-0.999-0.906-1.554-0.875-1.574c0.014-0.009,0.114,0.117,0.291,0.366c0.175,0.25,0.435,0.618,0.749,1.106       c0.638,0.969,1.518,2.398,2.57,4.184c2.132,3.553,4.799,8.632,8.293,13.879c0.219,0.343,0.417,0.632,0.687,0.713       c0.242,0.089,0.481-0.097,0.688-0.393c0.405-0.648,0.803-1.287,1.195-1.914c0.787-1.263,1.546-2.483,2.271-3.647       c1.447-2.303,2.756-4.387,3.871-6.162c1.086-1.695,1.98-3.091,2.646-4.132c0.295-0.442,0.54-0.809,0.741-1.11       C404.52,269.188,404.618,269.061,404.633,269.07z"/>
				</g>
			</g>
			<g>
				<g>
					<path style="fill:#263238;" d="M472.448,271.969c0.015,0.008-0.083,0.233-0.284,0.654c-0.227,0.461-0.526,1.069-0.9,1.828       c-0.8,1.578-1.92,3.881-3.26,6.744c-1.347,2.861-2.867,6.306-4.468,10.167c-1.579,3.87-3.226,8.161-4.803,12.719       c-1.561,4.565-2.903,8.962-4.039,12.985c-1.113,4.029-2.035,7.68-2.733,10.765c-0.705,3.082-1.239,5.586-1.579,7.322       c-0.172,0.829-0.31,1.492-0.415,1.995c-0.1,0.455-0.161,0.693-0.178,0.69c-0.017-0.003,0.011-0.246,0.08-0.707       c0.082-0.508,0.189-1.177,0.324-2.013c0.282-1.748,0.764-4.266,1.426-7.363c0.655-3.099,1.543-6.766,2.635-10.81       c1.115-4.038,2.446-8.449,4.011-13.025c1.581-4.568,3.245-8.864,4.85-12.733c1.627-3.859,3.183-7.297,4.573-10.143       c1.383-2.849,2.552-5.13,3.405-6.682c0.409-0.742,0.735-1.336,0.983-1.786C472.305,272.17,472.433,271.961,472.448,271.969z"/>
				</g>
			</g>
			<g>
				<g>
					<path style="fill:#263238;" d="M416.422,396.236c-0.002,0.017-0.265,0.008-0.765-0.026c-0.546-0.043-1.274-0.1-2.187-0.173       c-0.95-0.074-2.11-0.181-3.453-0.348c-1.343-0.162-2.877-0.317-4.561-0.579c-3.376-0.46-7.375-1.156-11.788-2.07       c-4.405-0.946-9.219-2.13-14.207-3.601c-4.983-1.494-9.663-3.133-13.87-4.747c-4.195-1.645-7.925-3.248-11.004-4.707       c-1.553-0.7-2.923-1.408-4.136-2.007c-1.216-0.594-2.246-1.139-3.082-1.595c-0.804-0.438-1.445-0.788-1.925-1.05       c-0.437-0.245-0.663-0.381-0.655-0.396c0.008-0.015,0.25,0.091,0.702,0.307c0.491,0.241,1.146,0.563,1.967,0.967       c0.849,0.43,1.89,0.949,3.116,1.518c1.223,0.574,2.601,1.259,4.161,1.937c3.092,1.416,6.827,2.982,11.022,4.6       c4.206,1.587,8.877,3.208,13.847,4.699c4.975,1.467,9.772,2.661,14.161,3.63c4.396,0.937,8.38,1.666,11.743,2.17       c1.677,0.284,3.205,0.463,4.543,0.651c1.338,0.193,2.494,0.328,3.439,0.431c0.908,0.111,1.633,0.199,2.176,0.265       C416.163,396.176,416.423,396.219,416.422,396.236z"/>
				</g>
			</g>
			<g>
				<g>
					<path style="fill:#263238;" d="M411.005,398.379c0.003,0.017-0.171,0.061-0.504,0.13c-0.389,0.074-0.872,0.165-1.462,0.277       c-1.27,0.235-3.117,0.526-5.406,0.841c-4.576,0.633-10.936,1.278-17.985,1.527c-7.052,0.241-13.441,0.039-18.051-0.275       c-2.305-0.155-4.167-0.317-5.451-0.464c-0.596-0.071-1.084-0.128-1.477-0.175c-0.337-0.045-0.513-0.078-0.512-0.095       c0.002-0.017,0.181-0.018,0.521-0.005c0.395,0.022,0.885,0.049,1.484,0.082c1.287,0.088,3.151,0.196,5.454,0.307       c4.606,0.224,10.98,0.37,18.014,0.13c7.031-0.248,13.378-0.836,17.958-1.379c2.29-0.27,4.142-0.508,5.42-0.684       c0.595-0.074,1.083-0.136,1.475-0.185C410.823,398.373,411.003,398.362,411.005,398.379z"/>
				</g>
			</g>
			<g>
				<g>
					<path style="fill:#263238;" d="M454.35,343.383c-0.016-0.005,0.034-0.252,0.144-0.72c0.127-0.512,0.296-1.19,0.507-2.038       c0.462-1.818,1.109-4.362,1.902-7.483c1.606-6.318,3.74-15.07,6.363-24.671c1.323-4.799,2.674-9.347,3.985-13.457       c1.333-4.103,2.609-7.775,3.788-10.818c0.562-1.532,1.138-2.892,1.625-4.092c0.481-1.203,0.928-2.226,1.307-3.056       c0.362-0.796,0.651-1.432,0.87-1.912c0.204-0.435,0.318-0.66,0.334-0.653c0.016,0.007-0.068,0.245-0.243,0.693       c-0.197,0.489-0.457,1.137-0.784,1.947c-0.351,0.84-0.772,1.873-1.227,3.084c-0.462,1.209-1.014,2.575-1.554,4.112       c-1.135,3.053-2.374,6.73-3.681,10.834c-1.285,4.111-2.622,8.656-3.943,13.45c-2.62,9.592-4.808,18.33-6.501,24.628       c-0.844,3.15-1.542,5.695-2.055,7.445c-0.249,0.838-0.447,1.508-0.597,2.014C454.448,343.148,454.366,343.387,454.35,343.383z"/>
				</g>
			</g>
			<g>
				<g>
					<path style="fill:#263238;" d="M326.492,341.741c-0.013,0.011-0.192-0.197-0.521-0.603c-0.318-0.414-0.832-0.993-1.396-1.81       c-1.183-1.595-2.746-4.019-4.368-7.182c-1.629-3.159-3.231-7.095-4.584-11.595c-1.355-4.5-2.428-9.565-3.187-14.929       c-1.458-10.747-1.697-20.559-2.138-27.626c-0.198-3.537-0.384-6.398-0.533-8.374c-0.07-0.953-0.125-1.711-0.166-2.276       c-0.034-0.521-0.044-0.795-0.027-0.797s0.06,0.269,0.126,0.787c0.063,0.518,0.163,1.282,0.259,2.269       c0.208,1.972,0.448,4.832,0.691,8.369c0.53,7.067,0.826,16.873,2.279,27.579c0.757,5.343,1.81,10.386,3.134,14.868       c1.322,4.483,2.88,8.406,4.46,11.568c1.572,3.165,3.082,5.605,4.212,7.228c0.538,0.831,1.025,1.427,1.317,1.86       C326.353,341.501,326.506,341.73,326.492,341.741z"/>
				</g>
			</g>
			<g>
				<g>
					<path style="fill:#263238;" d="M321.839,319.723c0.029,0.146-1.419,0.46-2.956,1.373c-1.549,0.895-2.53,2.004-2.644,1.908       c-0.107-0.065,0.752-1.383,2.393-2.335C320.265,319.703,321.835,319.597,321.839,319.723z"/>
				</g>
			</g>
			<g>
				<g>
					<path style="fill:#263238;" d="M320.908,306.879c0.018,0.151-1.801,0.311-3.733,1.344c-1.947,1.007-3.109,2.416-3.223,2.315       c-0.111-0.055,0.934-1.684,2.993-2.754C318.991,306.694,320.926,306.756,320.908,306.879z"/>
				</g>
			</g>
			<g>
				<g>
					<path style="fill:#263238;" d="M318.099,295.138c0.008,0.149-1.429,0.223-2.964,1c-1.547,0.753-2.475,1.852-2.589,1.756       c-0.113-0.057,0.702-1.383,2.368-2.2C316.573,294.861,318.122,295.014,318.099,295.138z"/>
				</g>
			</g>
			<g>
				<g>
					<path style="fill:#263238;" d="M316.732,283.02c0.019,0.144-1.251,0.387-2.693,1.01c-1.448,0.61-2.502,1.359-2.593,1.245       c-0.088-0.093,0.874-1.057,2.398-1.701C315.364,282.92,316.726,282.892,316.732,283.02z"/>
				</g>
			</g>
			<g>
				<g>
					<path style="fill:#263238;" d="M315.945,273.22c0.019,0.145-1.269,0.377-2.7,1.058c-1.439,0.666-2.44,1.508-2.54,1.401       c-0.096-0.083,0.804-1.141,2.329-1.85C314.553,273.109,315.942,273.092,315.945,273.22z"/>
				</g>
			</g>
			<g>
				<g>
					<path style="fill:#263238;" d="M456.921,328.403c-0.118,0.084-0.77-0.793-1.963-1.262c-1.182-0.497-2.261-0.324-2.287-0.467       c-0.063-0.118,1.122-0.552,2.474,0.007C456.502,327.225,457.048,328.363,456.921,328.403z"/>
				</g>
			</g>
			<g>
				<g>
					<path style="fill:#263238;" d="M460.642,318.388c-0.133,0.061-0.65-1.432-2.203-2.408c-1.529-1.016-3.102-0.872-3.101-1.019       c-0.009-0.057,0.371-0.188,1.012-0.168c0.637,0.017,1.528,0.236,2.358,0.77c0.827,0.537,1.394,1.259,1.671,1.833       C460.661,317.972,460.698,318.372,460.642,318.388z"/>
				</g>
			</g>
			<g>
				<g>
					<path style="fill:#263238;" d="M463.43,307.385c-0.118,0.088-0.921-1.147-2.528-1.761c-1.592-0.653-3.023-0.304-3.048-0.449       c-0.018-0.057,0.316-0.234,0.914-0.318c0.594-0.086,1.453-0.034,2.317,0.306c0.862,0.344,1.524,0.895,1.897,1.364       C463.36,306.998,463.482,307.355,463.43,307.385z"/>
				</g>
			</g>
			<g>
				<g>
					<path style="fill:#263238;" d="M466.715,296.809c-0.128,0.066-0.649-0.914-1.803-1.504c-1.138-0.62-2.242-0.497-2.259-0.641       c-0.012-0.06,0.256-0.184,0.724-0.21c0.465-0.029,1.128,0.077,1.766,0.413c0.637,0.338,1.098,0.826,1.336,1.226       C466.723,296.494,466.771,296.784,466.715,296.809z"/>
				</g>
			</g>
			<g>
				<g>
					<path style="fill:#263238;" d="M470.559,287.099c-0.126,0.065-0.664-1.116-2.032-1.724c-1.35-0.649-2.598-0.295-2.63-0.433       c-0.021-0.055,0.262-0.239,0.792-0.327c0.525-0.091,1.296-0.035,2.046,0.31c0.749,0.348,1.29,0.899,1.561,1.358       C470.572,286.745,470.615,287.08,470.559,287.099z"/>
				</g>
			</g>
			<g>
				<g>
					<path style="fill:#263238;" d="M407.696,273.22c0.015,0.009-0.059,0.168-0.215,0.464c-0.188,0.341-0.42,0.764-0.703,1.278       c-0.622,1.103-1.539,2.69-2.698,4.636c-1.159,1.945-2.559,4.251-4.163,6.78c-0.803,1.264-1.658,2.584-2.575,3.935       c-0.924,1.346-1.874,2.742-3.025,4.069c-0.297,0.33-0.578,0.652-1.026,0.918c-0.11,0.077-0.267,0.1-0.438,0.087       c-0.158-0.01-0.254-0.079-0.383-0.12c-0.207-0.117-0.405-0.241-0.568-0.385c-0.676-0.563-1.219-1.198-1.75-1.825       c-1.048-1.264-1.972-2.54-2.835-3.767c-1.721-2.457-3.18-4.727-4.387-6.643c-1.204-1.919-2.15-3.489-2.789-4.582       c-0.291-0.51-0.529-0.929-0.722-1.268c-0.159-0.293-0.235-0.452-0.221-0.46c0.015-0.009,0.119,0.132,0.306,0.409       c0.214,0.325,0.478,0.728,0.801,1.218c0.729,1.122,1.717,2.642,2.92,4.494c1.243,1.89,2.731,4.136,4.465,6.569       c0.87,1.214,1.798,2.479,2.835,3.719c0.522,0.612,1.066,1.24,1.687,1.752c0.3,0.241,0.68,0.508,0.865,0.357       c0.283-0.168,0.6-0.488,0.871-0.802c1.114-1.283,2.072-2.678,2.994-4.012c0.918-1.341,1.779-2.653,2.591-3.908       c1.623-2.512,3.052-4.796,4.249-6.716c1.167-1.876,2.125-3.416,2.832-4.552c0.315-0.495,0.574-0.902,0.783-1.23       C407.578,273.353,407.681,273.211,407.696,273.22z"/>
				</g>
			</g>
			<g>
				<g>
					<path style="fill:#263238;" d="M386.391,287.447c-0.057,0.008-0.176-0.336-0.133-0.913c0.039-0.573,0.292-1.365,0.841-2.064       c0.552-0.697,1.264-1.127,1.813-1.297c0.551-0.176,0.913-0.14,0.919-0.082c0.037,0.138-1.352,0.394-2.342,1.686       C386.46,286.041,386.533,287.451,386.391,287.447z"/>
				</g>
			</g>
			<g>
				<g>
					<path style="fill:#263238;" d="M392.96,295.332c-0.13,0.018-0.47-1.74-0.483-3.94c-0.019-2.201,0.297-3.963,0.427-3.947       c0.141,0.015,0.05,1.776,0.069,3.943C392.985,293.555,393.101,295.315,392.96,295.332z"/>
				</g>
			</g>
			<g>
				<g>
					<path style="fill:#263238;" d="M400.419,285.286c-0.139,0.039-0.45-1.067-1.489-1.913c-1.018-0.873-2.161-0.982-2.147-1.126       c0.001-0.061,0.297-0.127,0.775-0.052c0.474,0.072,1.119,0.321,1.69,0.797c0.569,0.478,0.929,1.068,1.084,1.522       C400.491,284.971,400.479,285.274,400.419,285.286z"/>
				</g>
			</g>
			<g>
				<g>
					<path style="fill:#263238;" d="M405.292,277.135c-0.143,0.021-0.314-1.104-1.233-2.063c-0.895-0.982-2.006-1.228-1.975-1.369       c0.009-0.06,0.308-0.09,0.769,0.042c0.459,0.128,1.063,0.451,1.568,0.989c0.503,0.54,0.784,1.165,0.882,1.631       C405.402,276.834,405.353,277.131,405.292,277.135z"/>
				</g>
			</g>
			<g>
				<g>
					<path style="fill:#263238;" d="M381.42,279.985c-0.057,0.013-0.215-0.376-0.24-1.046c-0.028-0.666,0.13-1.61,0.613-2.52       c0.487-0.909,1.182-1.567,1.751-1.915c0.571-0.353,0.982-0.438,1.002-0.384c0.075,0.127-1.43,0.819-2.316,2.531       C381.303,278.341,381.568,279.977,381.42,279.985z"/>
				</g>
			</g>
			<g>
				<path style="fill:none;stroke:#000000;stroke-miterlimit:10;" d="M393.059,279.743"/>
			</g>
			<g style="opacity:0.4;">
				<g>
					<path d="M367.371,247.753c2.143,8.218,5.719,21.602,9.592,32.077c0.177,0.479,0.367,0.976,0.738,1.328       c0.983,0.935,2.673,0.361,3.6-0.63c0.879-0.94,1.392-2.156,2.11-3.224c0.718-1.068,1.78-2.054,3.066-2.098       c1.049-0.036,2.03,0.578,2.722,1.367c0.692,0.789,1.154,1.748,1.667,2.663c0.276,0.492,0.63,1.021,1.183,1.135       c0.553,0.114,1.162-0.387,0.845-0.993l-3.425-8.878c0,0-1.57-6.513-7.015-5.5c-6.087,1.133-3.327,11.128-3.327,11.128       S367.28,247.405,367.371,247.753z" fill="#000000"/>
				</g>
			</g>
			<g>
				<g>
					<path style="fill:#263238;" d="M393.059,279.743c-0.016,0.007-0.116-0.194-0.294-0.582c-0.176-0.388-0.424-0.966-0.733-1.714       c-0.618-1.558-1.475-3.72-2.524-6.367c-0.271-0.669-0.555-1.37-0.874-2.086c-0.317-0.724-0.668-1.435-1.246-2.023       c-1.137-1.158-2.911-1.955-4.741-1.767c-0.885,0.122-1.825,0.482-2.499,1.12c-0.676,0.652-1.025,1.614-1.351,2.587       c-0.317,0.938-0.309,1.991-0.206,3.04c0.103,1.052,0.314,2.115,0.563,3.182c0.096,0.39,0.193,0.779,0.282,1.14l-0.474,0.142       c-1.404-4.031-3.016-7.761-4.487-11.14c-1.48-3.377-2.826-6.406-3.886-8.977c-1.063-2.569-1.84-4.679-2.31-6.157       c-0.249-0.734-0.403-1.316-0.513-1.709c-0.107-0.393-0.156-0.601-0.14-0.606c0.016-0.005,0.096,0.194,0.233,0.577       c0.14,0.382,0.323,0.953,0.598,1.676c0.524,1.454,1.346,3.538,2.449,6.085c1.099,2.548,2.476,5.559,3.981,8.928       c1.497,3.372,3.128,7.105,4.543,11.161l-0.474,0.142c-0.09-0.364-0.187-0.756-0.284-1.15c-0.252-1.08-0.466-2.161-0.572-3.248       c-0.102-1.078-0.117-2.198,0.237-3.241c0.335-0.978,0.698-2.016,1.483-2.774c0.795-0.734,1.783-1.098,2.778-1.233       c2.008-0.187,3.872,0.68,5.088,1.937c0.617,0.638,0.996,1.432,1.299,2.153c0.313,0.73,0.589,1.437,0.85,2.112       c0.989,2.671,1.796,4.852,2.378,6.425c0.266,0.72,0.48,1.3,0.646,1.746C393.005,279.523,393.075,279.736,393.059,279.743z"/>
				</g>
			</g>
			<g style="opacity:0.4;">
				<g>
					<path d="M393.545,279.498c-0.207,0.142-0.055,0.509,0.19,0.563c0.245,0.054,0.488-0.091,0.686-0.245       c1.274-0.985,1.985-2.507,2.882-3.845c0.897-1.337,2.211-2.619,3.821-2.626c1.711-0.007,3.082,1.426,3.927,2.914       c0.845,1.488,1.422,3.173,2.64,4.375c6.125-8.98,11.02-18.797,14.508-29.092c-2.009,1.392-3.324,3.552-4.581,5.648       c-3.247,5.415-6.494,10.831-9.741,16.246c-0.682-1.581-1.488-3.154-2.744-4.331c-1.256-1.177-3.046-1.905-4.722-1.512       c-1.896,0.445-3.209,2.159-4.136,3.872c-1.356,2.507-2.243,5.266-2.602,8.093" fill="#000000"/>
				</g>
			</g>
			<g>
				<g>
					<path style="fill:#263238;" d="M521.25,359.61c-0.031,0.016-0.26-0.374-0.649-1.093c-0.392-0.717-0.927-1.772-1.56-3.09       c-1.267-2.634-2.88-6.343-4.387-10.544c-1.503-4.204-2.612-8.094-3.305-10.933c-0.348-1.42-0.604-2.574-0.757-3.377       c-0.156-0.802-0.226-1.249-0.192-1.257c0.033-0.008,0.167,0.425,0.38,1.213c0.24,0.881,0.544,1.999,0.908,3.332       c0.778,2.809,1.935,6.667,3.433,10.855c1.501,4.185,3.056,7.9,4.238,10.564c0.566,1.261,1.04,2.318,1.414,3.151       C521.109,359.175,521.281,359.594,521.25,359.61z"/>
				</g>
			</g>
			<g>
				<g>
					<path style="fill:#263238;" d="M511.743,357.73c-0.033,0.009-0.174-0.38-0.401-1.094c-0.232-0.712-0.522-1.757-0.84-3.058       c-0.639-2.601-1.314-6.253-1.64-10.333c-0.319-4.082-0.224-7.796-0.001-10.464c0.11-1.335,0.233-2.412,0.35-3.152       c0.112-0.741,0.19-1.147,0.224-1.143c0.034,0.004,0.021,0.419-0.033,1.164c-0.058,0.744-0.128,1.822-0.192,3.153       c-0.133,2.662-0.171,6.349,0.145,10.403c0.323,4.052,0.939,7.687,1.488,10.295c0.273,1.305,0.51,2.359,0.684,3.084       C511.697,357.313,511.776,357.72,511.743,357.73z"/>
				</g>
			</g>
			<g>
				<g>
					<path style="fill:#263238;" d="M542.299,270.19c0.01-0.021,0.25,0.07,0.765,0.293l0.15,0.065l-0.159,0.058       c-2.167,0.783-9.78,3.191-19.086,4.882c-5.581,1.028-10.688,1.625-14.391,1.922c-1.852,0.151-3.352,0.242-4.391,0.276       c-1.038,0.038-1.613,0.043-1.615,0.008c-0.002-0.034,0.569-0.104,1.602-0.201c1.116-0.11,2.589-0.256,4.371-0.432       c3.687-0.385,8.77-1.035,14.334-2.06c9.276-1.685,16.906-3.937,19.137-4.521l-0.009,0.122       C542.511,270.341,542.289,270.211,542.299,270.19z"/>
				</g>
			</g>
			<g>
				<g>
					<path style="fill:#263238;" d="M533.686,265.854c-0.013-0.014,0.099-0.164,0.408-0.252c0.304-0.093,0.808-0.04,1.281,0.284       c0.447,0.312,0.962,0.937,0.826,1.78c-0.073,0.405-0.346,0.791-0.733,1.005c-0.382,0.217-0.837,0.295-1.279,0.235       c-0.442-0.06-0.863-0.243-1.18-0.548c-0.317-0.307-0.479-0.747-0.469-1.147c0.029-0.83,0.593-1.373,1.068-1.643       c0.503-0.271,0.991-0.291,1.292-0.206c0.306,0.08,0.429,0.215,0.417,0.232c-0.011,0.087-0.682-0.286-1.527,0.274       c-0.388,0.262-0.803,0.752-0.793,1.343c-0.017,0.596,0.543,1.123,1.256,1.203c0.702,0.102,1.395-0.267,1.502-0.844       c0.124-0.561-0.23-1.113-0.589-1.405c-0.372-0.302-0.771-0.399-1.039-0.374C533.855,265.811,533.709,265.896,533.686,265.854z"/>
				</g>
			</g>
			<g>
				<g>
					<path style="fill:#FAFAFA;" d="M385.087,286.958c0.011,0.013-0.177,0.177-0.547,0.477c-0.378,0.288-0.899,0.764-1.65,1.268       c-1.458,1.069-3.697,2.455-6.652,3.784c-2.95,1.335-6.667,2.503-10.916,3.105c-2.125,0.271-4.377,0.44-6.712,0.361       c-2.333-0.083-4.741-0.37-7.163-0.888c-4.837-1.092-9.2-2.876-13.303-3.975c-2.047-0.568-4.026-0.972-5.897-1.163       c-1.874-0.176-3.636-0.145-5.222,0.051c-3.182,0.388-5.611,1.475-7.075,2.493c-1.481,1.012-2.121,1.799-2.166,1.752       c0,0,0.587-0.834,2.056-1.911c1.451-1.082,3.908-2.243,7.14-2.682c1.611-0.222,3.401-0.274,5.306-0.113       c1.905,0.176,3.914,0.571,5.979,1.131c4.143,1.086,8.512,2.855,13.291,3.932c2.392,0.511,4.767,0.798,7.072,0.886       c2.306,0.085,4.532-0.073,6.636-0.328c4.205-0.571,7.895-1.691,10.837-2.974c2.948-1.276,5.199-2.606,6.683-3.621       c0.765-0.476,1.302-0.926,1.699-1.188C384.867,287.082,385.076,286.944,385.087,286.958z"/>
				</g>
			</g>
			<g>
				<g>
					<path style="fill:#FAFAFA;" d="M448.631,328.141c-0.004,0.007-0.107-0.04-0.304-0.139c-0.217-0.113-0.503-0.262-0.864-0.45       c-0.381-0.194-0.874-0.39-1.443-0.648c-0.59-0.204-1.254-0.491-2.042-0.692c-3.1-0.936-7.878-1.414-13.622-0.495       c-2.874,0.422-5.965,1.196-9.265,2.104c-3.301,0.902-6.818,1.947-10.607,2.719c-3.778,0.783-7.88,1.193-12.083,0.737       c-4.207-0.391-8.435-1.579-12.655-2.977c-4.222-1.422-8.264-3.009-12.234-4.333c-3.959-1.352-7.876-2.353-11.677-2.865       c-7.617-1.044-14.61-0.265-20.238,1.101c-2.822,0.694-5.304,1.57-7.455,2.406c-1.057,0.462-2.053,0.869-2.943,1.299       c-0.881,0.448-1.705,0.824-2.415,1.22c-0.706,0.395-1.336,0.747-1.887,1.055c-0.526,0.324-0.975,0.602-1.348,0.832       c-0.348,0.212-0.623,0.38-0.833,0.508c-0.189,0.112-0.289,0.166-0.293,0.159c-0.005-0.007,0.085-0.075,0.265-0.201       c0.203-0.138,0.47-0.32,0.807-0.55c0.358-0.236,0.794-0.542,1.327-0.874c0.546-0.32,1.17-0.687,1.87-1.098       c0.705-0.411,1.526-0.801,2.405-1.264c0.888-0.445,1.883-0.867,2.94-1.343c2.152-0.865,4.641-1.77,7.475-2.49       c5.653-1.418,12.697-2.241,20.384-1.214c3.837,0.504,7.795,1.506,11.77,2.857c3.988,1.323,8.032,2.908,12.238,4.324       c4.203,1.393,8.394,2.572,12.547,2.964c4.147,0.456,8.187,0.063,11.944-0.702c3.764-0.754,7.279-1.782,10.589-2.668       c3.308-0.892,6.424-1.651,9.322-2.054c5.79-0.882,10.619-0.345,13.729,0.657c0.789,0.217,1.454,0.521,2.043,0.74       c0.567,0.274,1.056,0.486,1.432,0.695c0.353,0.207,0.632,0.37,0.844,0.495C448.542,328.072,448.636,328.134,448.631,328.141z"/>
				</g>
			</g>
			<g>
				<g>
					<path style="fill:#FAFAFA;" d="M398.242,286.25c0.018-0.059,0.886,0.336,2.556,0.56c1.661,0.242,4.136,0.193,7.053-0.565       c2.932-0.712,6.203-2.235,9.934-3.715c1.87-0.726,3.885-1.412,6.053-1.805c2.164-0.381,4.451-0.536,6.775-0.39       c4.659,0.268,8.977,1.517,12.688,3.046c3.719,1.54,6.874,3.331,9.463,4.907c2.588,1.582,4.618,2.96,6.018,3.913       c0.663,0.461,1.194,0.832,1.601,1.115c0.362,0.26,0.548,0.403,0.539,0.418c-0.009,0.014-0.214-0.101-0.594-0.334       c-0.419-0.263-0.968-0.608-1.652-1.037c-1.432-0.903-3.49-2.234-6.093-3.773c-2.604-1.532-5.76-3.281-9.456-4.784       c-3.686-1.493-7.956-2.711-12.543-2.974c-2.288-0.144-4.534,0.006-6.66,0.373c-2.126,0.378-4.113,1.043-5.976,1.753       c-3.715,1.445-7.031,2.95-10.014,3.629c-2.966,0.725-5.49,0.72-7.166,0.415C399.082,286.714,398.242,286.25,398.242,286.25z"/>
				</g>
			</g>
			<g>
				<g>
					<path style="fill:#FAFAFA;" d="M456.687,261.166c0.009,0.033-0.497,0.185-1.421,0.432c-0.461,0.128-1.028,0.272-1.695,0.402       c-0.666,0.135-1.42,0.312-2.268,0.432c-1.686,0.293-3.715,0.517-5.976,0.644c-2.262,0.1-4.756,0.086-7.362-0.126       c-2.605-0.231-5.066-0.639-7.279-1.119c-2.207-0.507-4.169-1.07-5.782-1.644c-0.815-0.261-1.529-0.563-2.162-0.808       c-0.635-0.241-1.17-0.478-1.603-0.683c-0.869-0.399-1.341-0.635-1.327-0.666c0.014-0.031,0.513,0.144,1.401,0.488       c0.442,0.176,0.985,0.387,1.627,0.602c0.64,0.219,1.357,0.497,2.174,0.735c1.616,0.528,3.574,1.052,5.768,1.53       c2.2,0.452,4.641,0.842,7.224,1.071c2.584,0.21,5.055,0.237,7.3,0.164c2.244-0.101,4.261-0.287,5.943-0.535       c0.846-0.096,1.6-0.249,2.267-0.357c0.669-0.104,1.239-0.219,1.705-0.318C456.157,261.222,456.678,261.133,456.687,261.166z"/>
				</g>
			</g>
			<g>
				<g>
					<path style="fill:#FAFAFA;" d="M315.858,267.593c-0.01-0.014,0.14-0.146,0.436-0.386c0.297-0.238,0.734-0.592,1.312-1.027       c1.149-0.879,2.838-2.118,4.988-3.561c4.288-2.866,10.508-6.598,18.103-8.939c7.599-2.343,14.98-2.415,20.065-1.4       c2.552,0.486,4.561,1.135,5.901,1.688c0.681,0.249,1.179,0.519,1.527,0.672c0.344,0.164,0.521,0.257,0.514,0.273       c-0.018,0.042-0.754-0.276-2.109-0.764c-1.353-0.493-3.36-1.085-5.894-1.523c-5.051-0.917-12.336-0.79-19.859,1.529       c-7.523,2.318-13.731,5.974-18.056,8.758c-2.167,1.401-3.884,2.594-5.066,3.424c-0.557,0.388-1.01,0.703-1.366,0.951       C316.039,267.501,315.868,267.607,315.858,267.593z"/>
				</g>
			</g>
			<g>
				<g>
					<path style="fill:#FAFAFA;" d="M441.721,372.464c0.002,0.008-0.093,0.035-0.281,0.078c-0.215,0.046-0.492,0.106-0.838,0.181       c-0.367,0.091-0.828,0.162-1.378,0.208c-0.276,0.03-0.571,0.061-0.886,0.095c-0.319,0.009-0.657,0.018-1.014,0.027       c-2.875,0.121-7.015-0.621-11.879-2.186c-2.44-0.761-5.078-1.692-7.949-2.543c-2.869-0.852-6.003-1.507-9.349-1.814       c-6.704-0.641-14.128,0.166-21.77,1.561c-7.657,1.378-14.894,3.117-21.621,3.918c-6.711,0.827-12.863,0.885-17.934,0.116       c-5.09-0.686-9.009-2.23-11.563-3.493c-0.634-0.333-1.202-0.618-1.683-0.885c-0.457-0.291-0.848-0.54-1.176-0.748       c-0.296-0.193-0.532-0.347-0.717-0.468c-0.16-0.108-0.239-0.166-0.234-0.174c0.005-0.007,0.093,0.038,0.262,0.131       c0.191,0.109,0.435,0.25,0.741,0.425c0.333,0.196,0.731,0.431,1.195,0.704c0.496,0.246,1.062,0.526,1.695,0.841       c2.566,1.202,6.469,2.683,11.528,3.319c5.04,0.719,11.149,0.626,17.828-0.222c6.691-0.821,13.913-2.57,21.59-3.952       c7.66-1.398,15.135-2.2,21.9-1.528c3.375,0.321,6.545,1,9.424,1.875c2.881,0.873,5.511,1.823,7.938,2.603       c4.836,1.602,8.92,2.388,11.771,2.327c0.354-0.002,0.69-0.003,1.006-0.005c0.313-0.025,0.606-0.049,0.881-0.071       c0.548-0.031,1.008-0.086,1.376-0.16c0.348-0.054,0.627-0.098,0.844-0.132C441.62,372.465,441.719,372.455,441.721,372.464z"/>
				</g>
			</g>
			<g style="opacity:0.3;">
				<g>
					<path d="M353.616,379.353c4.532,11.307,13.303,19.341,25.371,21.001s24.278-1.103,36.032-4.301       C393.647,393.064,374.744,390.102,353.616,379.353" fill="#000000"/>
				</g>
			</g>
			<g>
				<g>
					<path style="fill:#FAFAFA;" d="M444.782,410.449c-0.004,0.008-0.104-0.029-0.296-0.108c-0.215-0.092-0.494-0.211-0.846-0.362       c-0.769-0.341-1.853-0.822-3.235-1.435c-2.812-1.236-6.84-3.133-11.874-5.314c-2.525-1.061-5.338-2.141-8.469-2.866       c-3.124-0.742-6.589-0.992-10.162-0.473c-1.783,0.26-3.59,0.673-5.398,1.225c-1.803,0.568-3.609,1.262-5.414,2.048       c-3.612,1.574-7.202,3.536-10.896,5.517c-3.698,1.981-7.384,3.814-11.119,5.174c-3.728,1.354-7.521,2.232-11.193,2.279       c-3.677,0.105-7.132-0.771-10.133-1.987c-3.017-1.215-5.636-2.733-8.027-4.082c-2.387-1.36-4.536-2.604-6.496-3.553       c-1.961-0.937-3.687-1.685-5.161-2.102c-0.723-0.257-1.391-0.387-1.963-0.529c-0.57-0.155-1.064-0.229-1.464-0.283       c-0.378-0.06-0.677-0.108-0.908-0.144c-0.204-0.035-0.309-0.058-0.308-0.066c0.001-0.009,0.107-0.003,0.313,0.016       c0.233,0.024,0.535,0.056,0.917,0.096c0.404,0.038,0.903,0.097,1.48,0.237c0.579,0.127,1.256,0.243,1.988,0.488       c1.494,0.392,3.242,1.119,5.227,2.038c1.982,0.931,4.15,2.158,6.547,3.498c2.4,1.329,5.019,2.822,8.008,4.006       c2.976,1.186,6.359,2.027,9.971,1.912c3.606-0.059,7.344-0.932,11.035-2.279c3.698-1.353,7.361-3.179,11.051-5.155       c3.692-1.979,7.295-3.945,10.936-5.525c1.819-0.789,3.644-1.485,5.469-2.055c1.83-0.554,3.663-0.967,5.474-1.225       c3.629-0.515,7.163-0.244,10.318,0.525c3.165,0.751,5.988,1.858,8.514,2.944c5.031,2.229,9.027,4.17,11.817,5.461       c1.365,0.649,2.436,1.158,3.196,1.52c0.344,0.169,0.616,0.303,0.826,0.407C444.692,410.39,444.785,410.441,444.782,410.449z"/>
				</g>
			</g>
		</g>
	</g>
</g>
</svg>